G04 #@! TF.FileFunction,Copper,L2,Bot,Signal*
%FSLAX46Y46*%
G04 Gerber Fmt 4.6, Leading zero omitted, Abs format (unit mm)*
G04 Created by KiCad (PCBNEW 4.0.6) date 2017 July 13, Thursday 09:44:44*
%MOMM*%
%LPD*%
G01*
G04 APERTURE LIST*
%ADD10C,0.100000*%
%ADD11O,1.998980X1.998980*%
%ADD12R,1.998980X1.998980*%
%ADD13R,1.700000X1.700000*%
%ADD14O,1.700000X1.700000*%
%ADD15C,2.200000*%
%ADD16O,2.200000X2.200000*%
%ADD17R,1.600000X1.600000*%
%ADD18C,1.600000*%
%ADD19R,2.000000X2.000000*%
%ADD20O,2.000000X2.000000*%
%ADD21C,2.800000*%
%ADD22O,2.800000X2.800000*%
%ADD23C,0.600000*%
%ADD24C,0.250000*%
%ADD25C,0.254000*%
G04 APERTURE END LIST*
D10*
D11*
X170810000Y-124950000D03*
D12*
X170810000Y-127490000D03*
D11*
X170960000Y-111480000D03*
D12*
X170960000Y-114020000D03*
D13*
X149880000Y-117370000D03*
D14*
X147340000Y-117370000D03*
D15*
X143600000Y-134400000D03*
D16*
X169000000Y-134400000D03*
D17*
X162980000Y-123870000D03*
D18*
X162980000Y-126370000D03*
D17*
X162840000Y-112510000D03*
D18*
X165340000Y-112510000D03*
D19*
X143810000Y-128210000D03*
D20*
X148890000Y-128210000D03*
D21*
X158870000Y-111000000D03*
D22*
X143630000Y-111000000D03*
D23*
X161671000Y-118046500D03*
X155818500Y-122809000D03*
X164540000Y-129720000D03*
X152560000Y-126930000D03*
X167550000Y-119795000D03*
X159190000Y-124240000D03*
X158700000Y-126760000D03*
X151070000Y-123810000D03*
X146000000Y-124285000D03*
X152430000Y-123180000D03*
X142380000Y-121335000D03*
D24*
X153015001Y-127385001D02*
X152560000Y-126930000D01*
X167550000Y-119795000D02*
X167550000Y-121485002D01*
X167550000Y-121485002D02*
X164040001Y-124995001D01*
X164040001Y-124995001D02*
X161390001Y-124995001D01*
X161390001Y-124995001D02*
X159000001Y-127385001D01*
X159000001Y-127385001D02*
X153015001Y-127385001D01*
X158700000Y-124730000D02*
X159190000Y-124240000D01*
X158700000Y-126760000D02*
X158700000Y-124730000D01*
X150595000Y-124285000D02*
X151070000Y-123810000D01*
X146000000Y-124285000D02*
X150595000Y-124285000D01*
X150585000Y-121335000D02*
X152430000Y-123180000D01*
X142380000Y-121335000D02*
X150585000Y-121335000D01*
D25*
G36*
X176790000Y-139290000D02*
X140710000Y-139290000D01*
X140710000Y-134743599D01*
X141864699Y-134743599D01*
X142128281Y-135381515D01*
X142615918Y-135870004D01*
X143253373Y-136134699D01*
X143943599Y-136135301D01*
X144581515Y-135871719D01*
X145070004Y-135384082D01*
X145334699Y-134746627D01*
X145335001Y-134400000D01*
X167231009Y-134400000D01*
X167363078Y-135063956D01*
X167739179Y-135626830D01*
X168302053Y-136002931D01*
X168966009Y-136135000D01*
X169033991Y-136135000D01*
X169697947Y-136002931D01*
X170260821Y-135626830D01*
X170636922Y-135063956D01*
X170768991Y-134400000D01*
X170636922Y-133736044D01*
X170260821Y-133173170D01*
X169697947Y-132797069D01*
X169033991Y-132665000D01*
X168966009Y-132665000D01*
X168302053Y-132797069D01*
X167739179Y-133173170D01*
X167363078Y-133736044D01*
X167231009Y-134400000D01*
X145335001Y-134400000D01*
X145335301Y-134056401D01*
X145071719Y-133418485D01*
X144584082Y-132929996D01*
X143946627Y-132665301D01*
X143256401Y-132664699D01*
X142618485Y-132928281D01*
X142129996Y-133415918D01*
X141865301Y-134053373D01*
X141864699Y-134743599D01*
X140710000Y-134743599D01*
X140710000Y-127210000D01*
X142162560Y-127210000D01*
X142162560Y-129210000D01*
X142206838Y-129445317D01*
X142345910Y-129661441D01*
X142558110Y-129806431D01*
X142810000Y-129857440D01*
X144810000Y-129857440D01*
X145045317Y-129813162D01*
X145261441Y-129674090D01*
X145406431Y-129461890D01*
X145457440Y-129210000D01*
X145457440Y-128590434D01*
X147299876Y-128590434D01*
X147496598Y-129065385D01*
X147930006Y-129533505D01*
X148509565Y-129800133D01*
X148763000Y-129681319D01*
X148763000Y-128337000D01*
X149017000Y-128337000D01*
X149017000Y-129681319D01*
X149270435Y-129800133D01*
X149849994Y-129533505D01*
X150283402Y-129065385D01*
X150480124Y-128590434D01*
X150360777Y-128337000D01*
X149017000Y-128337000D01*
X148763000Y-128337000D01*
X147419223Y-128337000D01*
X147299876Y-128590434D01*
X145457440Y-128590434D01*
X145457440Y-127829566D01*
X147299876Y-127829566D01*
X147419223Y-128083000D01*
X148763000Y-128083000D01*
X148763000Y-126738681D01*
X149017000Y-126738681D01*
X149017000Y-128083000D01*
X150360777Y-128083000D01*
X150480124Y-127829566D01*
X150283402Y-127354615D01*
X150061710Y-127115167D01*
X151624838Y-127115167D01*
X151766883Y-127458943D01*
X152029673Y-127722192D01*
X152373201Y-127864838D01*
X152420077Y-127864879D01*
X152477600Y-127922402D01*
X152724162Y-128087149D01*
X153015001Y-128145001D01*
X159000001Y-128145001D01*
X159290840Y-128087149D01*
X159537402Y-127922402D01*
X160082059Y-127377745D01*
X162151861Y-127377745D01*
X162225995Y-127623864D01*
X162763223Y-127816965D01*
X163333454Y-127789778D01*
X163734005Y-127623864D01*
X163808139Y-127377745D01*
X162980000Y-126549605D01*
X162151861Y-127377745D01*
X160082059Y-127377745D01*
X161660106Y-125799698D01*
X161533035Y-126153223D01*
X161560222Y-126723454D01*
X161726136Y-127124005D01*
X161972255Y-127198139D01*
X162800395Y-126370000D01*
X162786252Y-126355858D01*
X162965858Y-126176252D01*
X162980000Y-126190395D01*
X162994142Y-126176252D01*
X163173748Y-126355858D01*
X163159605Y-126370000D01*
X163987745Y-127198139D01*
X164233864Y-127124005D01*
X164426965Y-126586777D01*
X164422376Y-126490510D01*
X169163070Y-126490510D01*
X169163070Y-128489490D01*
X169207348Y-128724807D01*
X169346420Y-128940931D01*
X169558620Y-129085921D01*
X169810510Y-129136930D01*
X171809490Y-129136930D01*
X172044807Y-129092652D01*
X172260931Y-128953580D01*
X172405921Y-128741380D01*
X172456930Y-128489490D01*
X172456930Y-126490510D01*
X172412652Y-126255193D01*
X172273580Y-126039069D01*
X172112351Y-125928906D01*
X172133068Y-125909726D01*
X172399627Y-125330355D01*
X172280807Y-125077000D01*
X170937000Y-125077000D01*
X170937000Y-125097000D01*
X170683000Y-125097000D01*
X170683000Y-125077000D01*
X169339193Y-125077000D01*
X169220373Y-125330355D01*
X169486932Y-125909726D01*
X169508863Y-125930030D01*
X169359069Y-126026420D01*
X169214079Y-126238620D01*
X169163070Y-126490510D01*
X164422376Y-126490510D01*
X164399778Y-126016546D01*
X164272302Y-125708793D01*
X164330840Y-125697149D01*
X164577402Y-125532402D01*
X165540159Y-124569645D01*
X169220373Y-124569645D01*
X169339193Y-124823000D01*
X170683000Y-124823000D01*
X170683000Y-123479735D01*
X170937000Y-123479735D01*
X170937000Y-124823000D01*
X172280807Y-124823000D01*
X172399627Y-124569645D01*
X172133068Y-123990274D01*
X171665084Y-123557013D01*
X171190354Y-123360381D01*
X170937000Y-123479735D01*
X170683000Y-123479735D01*
X170429646Y-123360381D01*
X169954916Y-123557013D01*
X169486932Y-123990274D01*
X169220373Y-124569645D01*
X165540159Y-124569645D01*
X168087401Y-122022403D01*
X168252148Y-121775842D01*
X168310000Y-121485002D01*
X168310000Y-120357463D01*
X168342192Y-120325327D01*
X168484838Y-119981799D01*
X168485162Y-119609833D01*
X168343117Y-119266057D01*
X168080327Y-119002808D01*
X167736799Y-118860162D01*
X167364833Y-118859838D01*
X167021057Y-119001883D01*
X166757808Y-119264673D01*
X166615162Y-119608201D01*
X166614838Y-119980167D01*
X166756883Y-120323943D01*
X166790000Y-120357118D01*
X166790000Y-121170200D01*
X164427440Y-123532760D01*
X164427440Y-123070000D01*
X164383162Y-122834683D01*
X164244090Y-122618559D01*
X164031890Y-122473569D01*
X163780000Y-122422560D01*
X162180000Y-122422560D01*
X161944683Y-122466838D01*
X161728559Y-122605910D01*
X161583569Y-122818110D01*
X161532560Y-123070000D01*
X161532560Y-124235001D01*
X161390001Y-124235001D01*
X161147415Y-124283255D01*
X161099161Y-124292853D01*
X160852600Y-124457600D01*
X159460000Y-125850200D01*
X159460000Y-125140110D01*
X159718943Y-125033117D01*
X159982192Y-124770327D01*
X160124838Y-124426799D01*
X160125162Y-124054833D01*
X159983117Y-123711057D01*
X159720327Y-123447808D01*
X159376799Y-123305162D01*
X159004833Y-123304838D01*
X158661057Y-123446883D01*
X158397808Y-123709673D01*
X158255162Y-124053201D01*
X158255121Y-124100077D01*
X158162599Y-124192599D01*
X157997852Y-124439161D01*
X157940000Y-124730000D01*
X157940000Y-126197537D01*
X157907808Y-126229673D01*
X157765162Y-126573201D01*
X157765117Y-126625001D01*
X153445649Y-126625001D01*
X153353117Y-126401057D01*
X153090327Y-126137808D01*
X152746799Y-125995162D01*
X152374833Y-125994838D01*
X152031057Y-126136883D01*
X151767808Y-126399673D01*
X151625162Y-126743201D01*
X151624838Y-127115167D01*
X150061710Y-127115167D01*
X149849994Y-126886495D01*
X149270435Y-126619867D01*
X149017000Y-126738681D01*
X148763000Y-126738681D01*
X148509565Y-126619867D01*
X147930006Y-126886495D01*
X147496598Y-127354615D01*
X147299876Y-127829566D01*
X145457440Y-127829566D01*
X145457440Y-127210000D01*
X145413162Y-126974683D01*
X145274090Y-126758559D01*
X145061890Y-126613569D01*
X144810000Y-126562560D01*
X142810000Y-126562560D01*
X142574683Y-126606838D01*
X142358559Y-126745910D01*
X142213569Y-126958110D01*
X142162560Y-127210000D01*
X140710000Y-127210000D01*
X140710000Y-121520167D01*
X141444838Y-121520167D01*
X141586883Y-121863943D01*
X141849673Y-122127192D01*
X142193201Y-122269838D01*
X142565167Y-122270162D01*
X142908943Y-122128117D01*
X142942118Y-122095000D01*
X150270198Y-122095000D01*
X151050180Y-122874982D01*
X150884833Y-122874838D01*
X150541057Y-123016883D01*
X150277808Y-123279673D01*
X150175939Y-123525000D01*
X146562463Y-123525000D01*
X146530327Y-123492808D01*
X146186799Y-123350162D01*
X145814833Y-123349838D01*
X145471057Y-123491883D01*
X145207808Y-123754673D01*
X145065162Y-124098201D01*
X145064838Y-124470167D01*
X145206883Y-124813943D01*
X145469673Y-125077192D01*
X145813201Y-125219838D01*
X146185167Y-125220162D01*
X146528943Y-125078117D01*
X146562118Y-125045000D01*
X150595000Y-125045000D01*
X150885839Y-124987148D01*
X151132401Y-124822401D01*
X151209680Y-124745122D01*
X151255167Y-124745162D01*
X151598943Y-124603117D01*
X151862192Y-124340327D01*
X151998087Y-124013057D01*
X152243201Y-124114838D01*
X152615167Y-124115162D01*
X152958943Y-123973117D01*
X153222192Y-123710327D01*
X153364838Y-123366799D01*
X153365162Y-122994833D01*
X153223117Y-122651057D01*
X152960327Y-122387808D01*
X152616799Y-122245162D01*
X152569923Y-122245121D01*
X151122401Y-120797599D01*
X150875839Y-120632852D01*
X150585000Y-120575000D01*
X142942463Y-120575000D01*
X142910327Y-120542808D01*
X142566799Y-120400162D01*
X142194833Y-120399838D01*
X141851057Y-120541883D01*
X141587808Y-120804673D01*
X141445162Y-121148201D01*
X141444838Y-121520167D01*
X140710000Y-121520167D01*
X140710000Y-117340907D01*
X145855000Y-117340907D01*
X145855000Y-117399093D01*
X145968039Y-117967378D01*
X146289946Y-118449147D01*
X146771715Y-118771054D01*
X147340000Y-118884093D01*
X147908285Y-118771054D01*
X148390054Y-118449147D01*
X148417850Y-118407548D01*
X148426838Y-118455317D01*
X148565910Y-118671441D01*
X148778110Y-118816431D01*
X149030000Y-118867440D01*
X150730000Y-118867440D01*
X150965317Y-118823162D01*
X151181441Y-118684090D01*
X151326431Y-118471890D01*
X151377440Y-118220000D01*
X151377440Y-116520000D01*
X151333162Y-116284683D01*
X151194090Y-116068559D01*
X150981890Y-115923569D01*
X150730000Y-115872560D01*
X149030000Y-115872560D01*
X148794683Y-115916838D01*
X148578559Y-116055910D01*
X148433569Y-116268110D01*
X148419914Y-116335541D01*
X148390054Y-116290853D01*
X147908285Y-115968946D01*
X147340000Y-115855907D01*
X146771715Y-115968946D01*
X146289946Y-116290853D01*
X145968039Y-116772622D01*
X145855000Y-117340907D01*
X140710000Y-117340907D01*
X140710000Y-114305750D01*
X169325510Y-114305750D01*
X169325510Y-115145799D01*
X169422183Y-115379188D01*
X169600811Y-115557817D01*
X169834200Y-115654490D01*
X170674250Y-115654490D01*
X170833000Y-115495740D01*
X170833000Y-114147000D01*
X171087000Y-114147000D01*
X171087000Y-115495740D01*
X171245750Y-115654490D01*
X172085800Y-115654490D01*
X172319189Y-115557817D01*
X172497817Y-115379188D01*
X172594490Y-115145799D01*
X172594490Y-114305750D01*
X172435740Y-114147000D01*
X171087000Y-114147000D01*
X170833000Y-114147000D01*
X169484260Y-114147000D01*
X169325510Y-114305750D01*
X140710000Y-114305750D01*
X140710000Y-111000000D01*
X141555132Y-111000000D01*
X141710037Y-111778761D01*
X142151170Y-112438962D01*
X142811371Y-112880095D01*
X143590132Y-113035000D01*
X143669868Y-113035000D01*
X144448629Y-112880095D01*
X145108830Y-112438962D01*
X145549963Y-111778761D01*
X145624704Y-111403011D01*
X156834648Y-111403011D01*
X157143805Y-112151229D01*
X157715760Y-112724183D01*
X158463438Y-113034646D01*
X159273011Y-113035352D01*
X160021229Y-112726195D01*
X160594183Y-112154240D01*
X160778647Y-111710000D01*
X161392560Y-111710000D01*
X161392560Y-113310000D01*
X161436838Y-113545317D01*
X161575910Y-113761441D01*
X161788110Y-113906431D01*
X162040000Y-113957440D01*
X163640000Y-113957440D01*
X163875317Y-113913162D01*
X164091441Y-113774090D01*
X164236431Y-113561890D01*
X164245370Y-113517745D01*
X164511861Y-113517745D01*
X164585995Y-113763864D01*
X165123223Y-113956965D01*
X165693454Y-113929778D01*
X166094005Y-113763864D01*
X166168139Y-113517745D01*
X165340000Y-112689605D01*
X164511861Y-113517745D01*
X164245370Y-113517745D01*
X164284646Y-113323799D01*
X164332255Y-113338139D01*
X165160395Y-112510000D01*
X165519605Y-112510000D01*
X166347745Y-113338139D01*
X166593864Y-113264005D01*
X166786965Y-112726777D01*
X166759778Y-112156546D01*
X166593864Y-111755995D01*
X166347745Y-111681861D01*
X165519605Y-112510000D01*
X165160395Y-112510000D01*
X164332255Y-111681861D01*
X164284833Y-111696145D01*
X164248351Y-111502255D01*
X164511861Y-111502255D01*
X165340000Y-112330395D01*
X166168139Y-111502255D01*
X166151791Y-111447978D01*
X169325510Y-111447978D01*
X169325510Y-111512022D01*
X169449928Y-112137514D01*
X169663013Y-112456418D01*
X169600811Y-112482183D01*
X169422183Y-112660812D01*
X169325510Y-112894201D01*
X169325510Y-113734250D01*
X169484260Y-113893000D01*
X170833000Y-113893000D01*
X170833000Y-113873000D01*
X171087000Y-113873000D01*
X171087000Y-113893000D01*
X172435740Y-113893000D01*
X172594490Y-113734250D01*
X172594490Y-112894201D01*
X172497817Y-112660812D01*
X172319189Y-112482183D01*
X172256987Y-112456418D01*
X172470072Y-112137514D01*
X172594490Y-111512022D01*
X172594490Y-111447978D01*
X172470072Y-110822486D01*
X172115759Y-110292219D01*
X171585492Y-109937906D01*
X170960000Y-109813488D01*
X170334508Y-109937906D01*
X169804241Y-110292219D01*
X169449928Y-110822486D01*
X169325510Y-111447978D01*
X166151791Y-111447978D01*
X166094005Y-111256136D01*
X165556777Y-111063035D01*
X164986546Y-111090222D01*
X164585995Y-111256136D01*
X164511861Y-111502255D01*
X164248351Y-111502255D01*
X164243162Y-111474683D01*
X164104090Y-111258559D01*
X163891890Y-111113569D01*
X163640000Y-111062560D01*
X162040000Y-111062560D01*
X161804683Y-111106838D01*
X161588559Y-111245910D01*
X161443569Y-111458110D01*
X161392560Y-111710000D01*
X160778647Y-111710000D01*
X160904646Y-111406562D01*
X160905352Y-110596989D01*
X160596195Y-109848771D01*
X160024240Y-109275817D01*
X159276562Y-108965354D01*
X158466989Y-108964648D01*
X157718771Y-109273805D01*
X157145817Y-109845760D01*
X156835354Y-110593438D01*
X156834648Y-111403011D01*
X145624704Y-111403011D01*
X145704868Y-111000000D01*
X145549963Y-110221239D01*
X145108830Y-109561038D01*
X144448629Y-109119905D01*
X143669868Y-108965000D01*
X143590132Y-108965000D01*
X142811371Y-109119905D01*
X142151170Y-109561038D01*
X141710037Y-110221239D01*
X141555132Y-111000000D01*
X140710000Y-111000000D01*
X140710000Y-105710000D01*
X176790000Y-105710000D01*
X176790000Y-139290000D01*
X176790000Y-139290000D01*
G37*
X176790000Y-139290000D02*
X140710000Y-139290000D01*
X140710000Y-134743599D01*
X141864699Y-134743599D01*
X142128281Y-135381515D01*
X142615918Y-135870004D01*
X143253373Y-136134699D01*
X143943599Y-136135301D01*
X144581515Y-135871719D01*
X145070004Y-135384082D01*
X145334699Y-134746627D01*
X145335001Y-134400000D01*
X167231009Y-134400000D01*
X167363078Y-135063956D01*
X167739179Y-135626830D01*
X168302053Y-136002931D01*
X168966009Y-136135000D01*
X169033991Y-136135000D01*
X169697947Y-136002931D01*
X170260821Y-135626830D01*
X170636922Y-135063956D01*
X170768991Y-134400000D01*
X170636922Y-133736044D01*
X170260821Y-133173170D01*
X169697947Y-132797069D01*
X169033991Y-132665000D01*
X168966009Y-132665000D01*
X168302053Y-132797069D01*
X167739179Y-133173170D01*
X167363078Y-133736044D01*
X167231009Y-134400000D01*
X145335001Y-134400000D01*
X145335301Y-134056401D01*
X145071719Y-133418485D01*
X144584082Y-132929996D01*
X143946627Y-132665301D01*
X143256401Y-132664699D01*
X142618485Y-132928281D01*
X142129996Y-133415918D01*
X141865301Y-134053373D01*
X141864699Y-134743599D01*
X140710000Y-134743599D01*
X140710000Y-127210000D01*
X142162560Y-127210000D01*
X142162560Y-129210000D01*
X142206838Y-129445317D01*
X142345910Y-129661441D01*
X142558110Y-129806431D01*
X142810000Y-129857440D01*
X144810000Y-129857440D01*
X145045317Y-129813162D01*
X145261441Y-129674090D01*
X145406431Y-129461890D01*
X145457440Y-129210000D01*
X145457440Y-128590434D01*
X147299876Y-128590434D01*
X147496598Y-129065385D01*
X147930006Y-129533505D01*
X148509565Y-129800133D01*
X148763000Y-129681319D01*
X148763000Y-128337000D01*
X149017000Y-128337000D01*
X149017000Y-129681319D01*
X149270435Y-129800133D01*
X149849994Y-129533505D01*
X150283402Y-129065385D01*
X150480124Y-128590434D01*
X150360777Y-128337000D01*
X149017000Y-128337000D01*
X148763000Y-128337000D01*
X147419223Y-128337000D01*
X147299876Y-128590434D01*
X145457440Y-128590434D01*
X145457440Y-127829566D01*
X147299876Y-127829566D01*
X147419223Y-128083000D01*
X148763000Y-128083000D01*
X148763000Y-126738681D01*
X149017000Y-126738681D01*
X149017000Y-128083000D01*
X150360777Y-128083000D01*
X150480124Y-127829566D01*
X150283402Y-127354615D01*
X150061710Y-127115167D01*
X151624838Y-127115167D01*
X151766883Y-127458943D01*
X152029673Y-127722192D01*
X152373201Y-127864838D01*
X152420077Y-127864879D01*
X152477600Y-127922402D01*
X152724162Y-128087149D01*
X153015001Y-128145001D01*
X159000001Y-128145001D01*
X159290840Y-128087149D01*
X159537402Y-127922402D01*
X160082059Y-127377745D01*
X162151861Y-127377745D01*
X162225995Y-127623864D01*
X162763223Y-127816965D01*
X163333454Y-127789778D01*
X163734005Y-127623864D01*
X163808139Y-127377745D01*
X162980000Y-126549605D01*
X162151861Y-127377745D01*
X160082059Y-127377745D01*
X161660106Y-125799698D01*
X161533035Y-126153223D01*
X161560222Y-126723454D01*
X161726136Y-127124005D01*
X161972255Y-127198139D01*
X162800395Y-126370000D01*
X162786252Y-126355858D01*
X162965858Y-126176252D01*
X162980000Y-126190395D01*
X162994142Y-126176252D01*
X163173748Y-126355858D01*
X163159605Y-126370000D01*
X163987745Y-127198139D01*
X164233864Y-127124005D01*
X164426965Y-126586777D01*
X164422376Y-126490510D01*
X169163070Y-126490510D01*
X169163070Y-128489490D01*
X169207348Y-128724807D01*
X169346420Y-128940931D01*
X169558620Y-129085921D01*
X169810510Y-129136930D01*
X171809490Y-129136930D01*
X172044807Y-129092652D01*
X172260931Y-128953580D01*
X172405921Y-128741380D01*
X172456930Y-128489490D01*
X172456930Y-126490510D01*
X172412652Y-126255193D01*
X172273580Y-126039069D01*
X172112351Y-125928906D01*
X172133068Y-125909726D01*
X172399627Y-125330355D01*
X172280807Y-125077000D01*
X170937000Y-125077000D01*
X170937000Y-125097000D01*
X170683000Y-125097000D01*
X170683000Y-125077000D01*
X169339193Y-125077000D01*
X169220373Y-125330355D01*
X169486932Y-125909726D01*
X169508863Y-125930030D01*
X169359069Y-126026420D01*
X169214079Y-126238620D01*
X169163070Y-126490510D01*
X164422376Y-126490510D01*
X164399778Y-126016546D01*
X164272302Y-125708793D01*
X164330840Y-125697149D01*
X164577402Y-125532402D01*
X165540159Y-124569645D01*
X169220373Y-124569645D01*
X169339193Y-124823000D01*
X170683000Y-124823000D01*
X170683000Y-123479735D01*
X170937000Y-123479735D01*
X170937000Y-124823000D01*
X172280807Y-124823000D01*
X172399627Y-124569645D01*
X172133068Y-123990274D01*
X171665084Y-123557013D01*
X171190354Y-123360381D01*
X170937000Y-123479735D01*
X170683000Y-123479735D01*
X170429646Y-123360381D01*
X169954916Y-123557013D01*
X169486932Y-123990274D01*
X169220373Y-124569645D01*
X165540159Y-124569645D01*
X168087401Y-122022403D01*
X168252148Y-121775842D01*
X168310000Y-121485002D01*
X168310000Y-120357463D01*
X168342192Y-120325327D01*
X168484838Y-119981799D01*
X168485162Y-119609833D01*
X168343117Y-119266057D01*
X168080327Y-119002808D01*
X167736799Y-118860162D01*
X167364833Y-118859838D01*
X167021057Y-119001883D01*
X166757808Y-119264673D01*
X166615162Y-119608201D01*
X166614838Y-119980167D01*
X166756883Y-120323943D01*
X166790000Y-120357118D01*
X166790000Y-121170200D01*
X164427440Y-123532760D01*
X164427440Y-123070000D01*
X164383162Y-122834683D01*
X164244090Y-122618559D01*
X164031890Y-122473569D01*
X163780000Y-122422560D01*
X162180000Y-122422560D01*
X161944683Y-122466838D01*
X161728559Y-122605910D01*
X161583569Y-122818110D01*
X161532560Y-123070000D01*
X161532560Y-124235001D01*
X161390001Y-124235001D01*
X161147415Y-124283255D01*
X161099161Y-124292853D01*
X160852600Y-124457600D01*
X159460000Y-125850200D01*
X159460000Y-125140110D01*
X159718943Y-125033117D01*
X159982192Y-124770327D01*
X160124838Y-124426799D01*
X160125162Y-124054833D01*
X159983117Y-123711057D01*
X159720327Y-123447808D01*
X159376799Y-123305162D01*
X159004833Y-123304838D01*
X158661057Y-123446883D01*
X158397808Y-123709673D01*
X158255162Y-124053201D01*
X158255121Y-124100077D01*
X158162599Y-124192599D01*
X157997852Y-124439161D01*
X157940000Y-124730000D01*
X157940000Y-126197537D01*
X157907808Y-126229673D01*
X157765162Y-126573201D01*
X157765117Y-126625001D01*
X153445649Y-126625001D01*
X153353117Y-126401057D01*
X153090327Y-126137808D01*
X152746799Y-125995162D01*
X152374833Y-125994838D01*
X152031057Y-126136883D01*
X151767808Y-126399673D01*
X151625162Y-126743201D01*
X151624838Y-127115167D01*
X150061710Y-127115167D01*
X149849994Y-126886495D01*
X149270435Y-126619867D01*
X149017000Y-126738681D01*
X148763000Y-126738681D01*
X148509565Y-126619867D01*
X147930006Y-126886495D01*
X147496598Y-127354615D01*
X147299876Y-127829566D01*
X145457440Y-127829566D01*
X145457440Y-127210000D01*
X145413162Y-126974683D01*
X145274090Y-126758559D01*
X145061890Y-126613569D01*
X144810000Y-126562560D01*
X142810000Y-126562560D01*
X142574683Y-126606838D01*
X142358559Y-126745910D01*
X142213569Y-126958110D01*
X142162560Y-127210000D01*
X140710000Y-127210000D01*
X140710000Y-121520167D01*
X141444838Y-121520167D01*
X141586883Y-121863943D01*
X141849673Y-122127192D01*
X142193201Y-122269838D01*
X142565167Y-122270162D01*
X142908943Y-122128117D01*
X142942118Y-122095000D01*
X150270198Y-122095000D01*
X151050180Y-122874982D01*
X150884833Y-122874838D01*
X150541057Y-123016883D01*
X150277808Y-123279673D01*
X150175939Y-123525000D01*
X146562463Y-123525000D01*
X146530327Y-123492808D01*
X146186799Y-123350162D01*
X145814833Y-123349838D01*
X145471057Y-123491883D01*
X145207808Y-123754673D01*
X145065162Y-124098201D01*
X145064838Y-124470167D01*
X145206883Y-124813943D01*
X145469673Y-125077192D01*
X145813201Y-125219838D01*
X146185167Y-125220162D01*
X146528943Y-125078117D01*
X146562118Y-125045000D01*
X150595000Y-125045000D01*
X150885839Y-124987148D01*
X151132401Y-124822401D01*
X151209680Y-124745122D01*
X151255167Y-124745162D01*
X151598943Y-124603117D01*
X151862192Y-124340327D01*
X151998087Y-124013057D01*
X152243201Y-124114838D01*
X152615167Y-124115162D01*
X152958943Y-123973117D01*
X153222192Y-123710327D01*
X153364838Y-123366799D01*
X153365162Y-122994833D01*
X153223117Y-122651057D01*
X152960327Y-122387808D01*
X152616799Y-122245162D01*
X152569923Y-122245121D01*
X151122401Y-120797599D01*
X150875839Y-120632852D01*
X150585000Y-120575000D01*
X142942463Y-120575000D01*
X142910327Y-120542808D01*
X142566799Y-120400162D01*
X142194833Y-120399838D01*
X141851057Y-120541883D01*
X141587808Y-120804673D01*
X141445162Y-121148201D01*
X141444838Y-121520167D01*
X140710000Y-121520167D01*
X140710000Y-117340907D01*
X145855000Y-117340907D01*
X145855000Y-117399093D01*
X145968039Y-117967378D01*
X146289946Y-118449147D01*
X146771715Y-118771054D01*
X147340000Y-118884093D01*
X147908285Y-118771054D01*
X148390054Y-118449147D01*
X148417850Y-118407548D01*
X148426838Y-118455317D01*
X148565910Y-118671441D01*
X148778110Y-118816431D01*
X149030000Y-118867440D01*
X150730000Y-118867440D01*
X150965317Y-118823162D01*
X151181441Y-118684090D01*
X151326431Y-118471890D01*
X151377440Y-118220000D01*
X151377440Y-116520000D01*
X151333162Y-116284683D01*
X151194090Y-116068559D01*
X150981890Y-115923569D01*
X150730000Y-115872560D01*
X149030000Y-115872560D01*
X148794683Y-115916838D01*
X148578559Y-116055910D01*
X148433569Y-116268110D01*
X148419914Y-116335541D01*
X148390054Y-116290853D01*
X147908285Y-115968946D01*
X147340000Y-115855907D01*
X146771715Y-115968946D01*
X146289946Y-116290853D01*
X145968039Y-116772622D01*
X145855000Y-117340907D01*
X140710000Y-117340907D01*
X140710000Y-114305750D01*
X169325510Y-114305750D01*
X169325510Y-115145799D01*
X169422183Y-115379188D01*
X169600811Y-115557817D01*
X169834200Y-115654490D01*
X170674250Y-115654490D01*
X170833000Y-115495740D01*
X170833000Y-114147000D01*
X171087000Y-114147000D01*
X171087000Y-115495740D01*
X171245750Y-115654490D01*
X172085800Y-115654490D01*
X172319189Y-115557817D01*
X172497817Y-115379188D01*
X172594490Y-115145799D01*
X172594490Y-114305750D01*
X172435740Y-114147000D01*
X171087000Y-114147000D01*
X170833000Y-114147000D01*
X169484260Y-114147000D01*
X169325510Y-114305750D01*
X140710000Y-114305750D01*
X140710000Y-111000000D01*
X141555132Y-111000000D01*
X141710037Y-111778761D01*
X142151170Y-112438962D01*
X142811371Y-112880095D01*
X143590132Y-113035000D01*
X143669868Y-113035000D01*
X144448629Y-112880095D01*
X145108830Y-112438962D01*
X145549963Y-111778761D01*
X145624704Y-111403011D01*
X156834648Y-111403011D01*
X157143805Y-112151229D01*
X157715760Y-112724183D01*
X158463438Y-113034646D01*
X159273011Y-113035352D01*
X160021229Y-112726195D01*
X160594183Y-112154240D01*
X160778647Y-111710000D01*
X161392560Y-111710000D01*
X161392560Y-113310000D01*
X161436838Y-113545317D01*
X161575910Y-113761441D01*
X161788110Y-113906431D01*
X162040000Y-113957440D01*
X163640000Y-113957440D01*
X163875317Y-113913162D01*
X164091441Y-113774090D01*
X164236431Y-113561890D01*
X164245370Y-113517745D01*
X164511861Y-113517745D01*
X164585995Y-113763864D01*
X165123223Y-113956965D01*
X165693454Y-113929778D01*
X166094005Y-113763864D01*
X166168139Y-113517745D01*
X165340000Y-112689605D01*
X164511861Y-113517745D01*
X164245370Y-113517745D01*
X164284646Y-113323799D01*
X164332255Y-113338139D01*
X165160395Y-112510000D01*
X165519605Y-112510000D01*
X166347745Y-113338139D01*
X166593864Y-113264005D01*
X166786965Y-112726777D01*
X166759778Y-112156546D01*
X166593864Y-111755995D01*
X166347745Y-111681861D01*
X165519605Y-112510000D01*
X165160395Y-112510000D01*
X164332255Y-111681861D01*
X164284833Y-111696145D01*
X164248351Y-111502255D01*
X164511861Y-111502255D01*
X165340000Y-112330395D01*
X166168139Y-111502255D01*
X166151791Y-111447978D01*
X169325510Y-111447978D01*
X169325510Y-111512022D01*
X169449928Y-112137514D01*
X169663013Y-112456418D01*
X169600811Y-112482183D01*
X169422183Y-112660812D01*
X169325510Y-112894201D01*
X169325510Y-113734250D01*
X169484260Y-113893000D01*
X170833000Y-113893000D01*
X170833000Y-113873000D01*
X171087000Y-113873000D01*
X171087000Y-113893000D01*
X172435740Y-113893000D01*
X172594490Y-113734250D01*
X172594490Y-112894201D01*
X172497817Y-112660812D01*
X172319189Y-112482183D01*
X172256987Y-112456418D01*
X172470072Y-112137514D01*
X172594490Y-111512022D01*
X172594490Y-111447978D01*
X172470072Y-110822486D01*
X172115759Y-110292219D01*
X171585492Y-109937906D01*
X170960000Y-109813488D01*
X170334508Y-109937906D01*
X169804241Y-110292219D01*
X169449928Y-110822486D01*
X169325510Y-111447978D01*
X166151791Y-111447978D01*
X166094005Y-111256136D01*
X165556777Y-111063035D01*
X164986546Y-111090222D01*
X164585995Y-111256136D01*
X164511861Y-111502255D01*
X164248351Y-111502255D01*
X164243162Y-111474683D01*
X164104090Y-111258559D01*
X163891890Y-111113569D01*
X163640000Y-111062560D01*
X162040000Y-111062560D01*
X161804683Y-111106838D01*
X161588559Y-111245910D01*
X161443569Y-111458110D01*
X161392560Y-111710000D01*
X160778647Y-111710000D01*
X160904646Y-111406562D01*
X160905352Y-110596989D01*
X160596195Y-109848771D01*
X160024240Y-109275817D01*
X159276562Y-108965354D01*
X158466989Y-108964648D01*
X157718771Y-109273805D01*
X157145817Y-109845760D01*
X156835354Y-110593438D01*
X156834648Y-111403011D01*
X145624704Y-111403011D01*
X145704868Y-111000000D01*
X145549963Y-110221239D01*
X145108830Y-109561038D01*
X144448629Y-109119905D01*
X143669868Y-108965000D01*
X143590132Y-108965000D01*
X142811371Y-109119905D01*
X142151170Y-109561038D01*
X141710037Y-110221239D01*
X141555132Y-111000000D01*
X140710000Y-111000000D01*
X140710000Y-105710000D01*
X176790000Y-105710000D01*
X176790000Y-139290000D01*
M02*
