  0
SECTION
  2
HEADER
  9
$ACADVER
  1
AC1009
  9
$EXTMIN
 10
0.0
 20
0.0
 30
0.0
  9
$EXTMAX
 10
1000.0
 20
1000.0
 30
0.0
  9
$FILLMODE
 70
 0
  9
$SPLFRAME
 70
 1
  0
ENDSEC
  0
SECTION
  2
TABLES
  0
TABLE
  2
LAYER
 70
1
  0
LAYER
  2
0
 70
     0
 62
     7
  6
CONTINUOUS
  0
ENDTAB
  0
ENDSEC
  0
SECTION
  2
ENTITIES
  0
POLYLINE
  8
0
 62
     0
 66
     1
 10
0
 20
0
 30
0.0
 70
     1
 40
0.425196
 41
0.425196
  0
VERTEX
  8
0
 10
6.96858
 20
1.73232
 30
0.0
 40
0.0059055
 41
0.0059055
  0
VERTEX
  8
0
 10
11.2205
 20
1.73232
 30
0.0
 40
0.0059055
 41
0.0059055
  0
VERTEX
  8
0
 10
11.2205
 20
0.472439
 30
0.0
 40
0.0059055
 41
0.0059055
  0
VERTEX
  8
0
 10
6.96858
 20
0.472439
 30
0.0
 40
0.0059055
 41
0.0059055
  0
VERTEX
  8
0
 10
6.96858
 20
1.73232
 30
0.0
 40
0.0059055
 41
0.0059055
  0
SEQEND
 8
0
  0
POLYLINE
  8
0
 62
     0
 66
     1
 10
0
 20
0
 30
0.0
 70
     1
 40
0.425196
 41
0.425196
  0
VERTEX
  8
0
 10
0.393718
 20
7.87429
 30
0.0
 40
0.0059055
 41
0.0059055
  0
VERTEX
  8
0
 10
11.2993
 20
7.87429
 30
0.0
 40
0.0059055
 41
0.0059055
  0
VERTEX
  8
0
 10
11.2993
 20
0.393664
 30
0.0
 40
0.0059055
 41
0.0059055
  0
VERTEX
  8
0
 10
0.393718
 20
0.393664
 30
0.0
 40
0.0059055
 41
0.0059055
  0
VERTEX
  8
0
 10
0.393718
 20
7.87429
 30
0.0
 40
0.0059055
 41
0.0059055
  0
SEQEND
 8
0
  0
POLYLINE
  8
0
 62
     0
 66
     1
 10
0
 20
0
 30
0.0
 70
     1
 40
0.425196
 41
0.425196
  0
VERTEX
  8
0
 10
0.472439
 20
7.79557
 30
0.0
 40
0.0059055
 41
0.0059055
  0
VERTEX
  8
0
 10
11.2205
 20
7.79557
 30
0.0
 40
0.0059055
 41
0.0059055
  0
VERTEX
  8
0
 10
11.2205
 20
0.472385
 30
0.0
 40
0.0059055
 41
0.0059055
  0
VERTEX
  8
0
 10
0.472439
 20
0.472385
 30
0.0
 40
0.0059055
 41
0.0059055
  0
VERTEX
  8
0
 10
0.472439
 20
7.79557
 30
0.0
 40
0.0059055
 41
0.0059055
  0
SEQEND
 8
0
  0
POLYLINE
  8
0
 62
     0
 66
     1
 10
0
 20
0
 30
0.0
 40
0.425196
 41
0.425196
  0
VERTEX
  8
0
 10
2.36219
 20
7.79562
 30
0.0
 40
0.0059055
 41
0.0059055
  0
VERTEX
  8
0
 10
2.36219
 20
7.87429
 30
0.0
 40
0.0059055
 41
0.0059055
  0
SEQEND
 8
0
  0
POLYLINE
  8
0
 62
     0
 66
     1
 10
0
 20
0
 30
0.0
 40
0.425196
 41
0.425196
  0
VERTEX
  8
0
 10
4.33068
 20
7.79562
 30
0.0
 40
0.0059055
 41
0.0059055
  0
VERTEX
  8
0
 10
4.33068
 20
7.87429
 30
0.0
 40
0.0059055
 41
0.0059055
  0
SEQEND
 8
0
  0
POLYLINE
  8
0
 62
     0
 66
     1
 10
0
 20
0
 30
0.0
 40
0.425196
 41
0.425196
  0
VERTEX
  8
0
 10
6.29921
 20
7.79562
 30
0.0
 40
0.0059055
 41
0.0059055
  0
VERTEX
  8
0
 10
6.29921
 20
7.87429
 30
0.0
 40
0.0059055
 41
0.0059055
  0
SEQEND
 8
0
  0
POLYLINE
  8
0
 62
     0
 66
     1
 10
0
 20
0
 30
0.0
 40
0.425196
 41
0.425196
  0
VERTEX
  8
0
 10
8.26768
 20
7.79562
 30
0.0
 40
0.0059055
 41
0.0059055
  0
VERTEX
  8
0
 10
8.26768
 20
7.87429
 30
0.0
 40
0.0059055
 41
0.0059055
  0
SEQEND
 8
0
  0
POLYLINE
  8
0
 62
     0
 66
     1
 10
0
 20
0
 30
0.0
 40
0.425196
 41
0.425196
  0
VERTEX
  8
0
 10
10.2362
 20
7.79562
 30
0.0
 40
0.0059055
 41
0.0059055
  0
VERTEX
  8
0
 10
10.2362
 20
7.87429
 30
0.0
 40
0.0059055
 41
0.0059055
  0
SEQEND
 8
0
  0
POLYLINE
  8
0
 62
     0
 66
     1
 10
0
 20
0
 30
0.0
 40
0.425196
 41
0.425196
  0
VERTEX
  8
0
 10
1.41689
 20
7.81179
 30
0.0
 40
0.0059055
 41
0.0059055
  0
VERTEX
  8
0
 10
1.3877
 20
7.81179
 30
0.0
 40
0.0059055
 41
0.0059055
  0
SEQEND
 8
0
  0
POLYLINE
  8
0
 62
     0
 66
     1
 10
0
 20
0
 30
0.0
 40
0.425196
 41
0.425196
  0
VERTEX
  8
0
 10
1.40229
 20
7.81179
 30
0.0
 40
0.0059055
 41
0.0059055
  0
VERTEX
  8
0
 10
1.40229
 20
7.86301
 30
0.0
 40
0.0059055
 41
0.0059055
  0
VERTEX
  8
0
 10
1.3974
 20
7.85562
 30
0.0
 40
0.0059055
 41
0.0059055
  0
VERTEX
  8
0
 10
1.39253
 20
7.85081
 30
0.0
 40
0.0059055
 41
0.0059055
  0
VERTEX
  8
0
 10
1.3877
 20
7.84842
 30
0.0
 40
0.0059055
 41
0.0059055
  0
SEQEND
 8
0
  0
POLYLINE
  8
0
 62
     0
 66
     1
 10
0
 20
0
 30
0.0
 40
0.425196
 41
0.425196
  0
VERTEX
  8
0
 10
3.35618
 20
7.85812
 30
0.0
 40
0.0059055
 41
0.0059055
  0
VERTEX
  8
0
 10
3.35861
 20
7.86063
 30
0.0
 40
0.0059055
 41
0.0059055
  0
VERTEX
  8
0
 10
3.3635
 20
7.86301
 30
0.0
 40
0.0059055
 41
0.0059055
  0
VERTEX
  8
0
 10
3.37571
 20
7.86301
 30
0.0
 40
0.0059055
 41
0.0059055
  0
VERTEX
  8
0
 10
3.38049
 20
7.86063
 30
0.0
 40
0.0059055
 41
0.0059055
  0
VERTEX
  8
0
 10
3.38297
 20
7.85812
 30
0.0
 40
0.0059055
 41
0.0059055
  0
VERTEX
  8
0
 10
3.38542
 20
7.85331
 30
0.0
 40
0.0059055
 41
0.0059055
  0
VERTEX
  8
0
 10
3.38542
 20
7.84842
 30
0.0
 40
0.0059055
 41
0.0059055
  0
VERTEX
  8
0
 10
3.38297
 20
7.8411
 30
0.0
 40
0.0059055
 41
0.0059055
  0
VERTEX
  8
0
 10
3.35368
 20
7.81179
 30
0.0
 40
0.0059055
 41
0.0059055
  0
VERTEX
  8
0
 10
3.38542
 20
7.81179
 30
0.0
 40
0.0059055
 41
0.0059055
  0
SEQEND
 8
0
  0
POLYLINE
  8
0
 62
     0
 66
     1
 10
0
 20
0
 30
0.0
 40
0.425196
 41
0.425196
  0
VERTEX
  8
0
 10
5.32221
 20
7.86301
 30
0.0
 40
0.0059055
 41
0.0059055
  0
VERTEX
  8
0
 10
5.35389
 20
7.86301
 30
0.0
 40
0.0059055
 41
0.0059055
  0
VERTEX
  8
0
 10
5.33681
 20
7.84353
 30
0.0
 40
0.0059055
 41
0.0059055
  0
VERTEX
  8
0
 10
5.34418
 20
7.84353
 30
0.0
 40
0.0059055
 41
0.0059055
  0
VERTEX
  8
0
 10
5.34901
 20
7.8411
 30
0.0
 40
0.0059055
 41
0.0059055
  0
VERTEX
  8
0
 10
5.35151
 20
7.8386
 30
0.0
 40
0.0059055
 41
0.0059055
  0
VERTEX
  8
0
 10
5.35389
 20
7.83382
 30
0.0
 40
0.0059055
 41
0.0059055
  0
VERTEX
  8
0
 10
5.35389
 20
7.82161
 30
0.0
 40
0.0059055
 41
0.0059055
  0
VERTEX
  8
0
 10
5.35151
 20
7.81674
 30
0.0
 40
0.0059055
 41
0.0059055
  0
VERTEX
  8
0
 10
5.34901
 20
7.81429
 30
0.0
 40
0.0059055
 41
0.0059055
  0
VERTEX
  8
0
 10
5.34418
 20
7.81179
 30
0.0
 40
0.0059055
 41
0.0059055
  0
VERTEX
  8
0
 10
5.32949
 20
7.81179
 30
0.0
 40
0.0059055
 41
0.0059055
  0
VERTEX
  8
0
 10
5.32471
 20
7.81429
 30
0.0
 40
0.0059055
 41
0.0059055
  0
VERTEX
  8
0
 10
5.32221
 20
7.81674
 30
0.0
 40
0.0059055
 41
0.0059055
  0
SEQEND
 8
0
  0
POLYLINE
  8
0
 62
     0
 66
     1
 10
0
 20
0
 30
0.0
 40
0.425196
 41
0.425196
  0
VERTEX
  8
0
 10
7.31749
 20
7.84592
 30
0.0
 40
0.0059055
 41
0.0059055
  0
VERTEX
  8
0
 10
7.31749
 20
7.81179
 30
0.0
 40
0.0059055
 41
0.0059055
  0
SEQEND
 8
0
  0
POLYLINE
  8
0
 62
     0
 66
     1
 10
0
 20
0
 30
0.0
 40
0.425196
 41
0.425196
  0
VERTEX
  8
0
 10
7.30528
 20
7.8654
 30
0.0
 40
0.0059055
 41
0.0059055
  0
VERTEX
  8
0
 10
7.29318
 20
7.82894
 30
0.0
 40
0.0059055
 41
0.0059055
  0
VERTEX
  8
0
 10
7.32482
 20
7.82894
 30
0.0
 40
0.0059055
 41
0.0059055
  0
SEQEND
 8
0
  0
POLYLINE
  8
0
 62
     0
 66
     1
 10
0
 20
0
 30
0.0
 40
0.425196
 41
0.425196
  0
VERTEX
  8
0
 10
9.28847
 20
7.86301
 30
0.0
 40
0.0059055
 41
0.0059055
  0
VERTEX
  8
0
 10
9.26411
 20
7.86301
 30
0.0
 40
0.0059055
 41
0.0059055
  0
VERTEX
  8
0
 10
9.26172
 20
7.8386
 30
0.0
 40
0.0059055
 41
0.0059055
  0
VERTEX
  8
0
 10
9.26411
 20
7.8411
 30
0.0
 40
0.0059055
 41
0.0059055
  0
VERTEX
  8
0
 10
9.26899
 20
7.84353
 30
0.0
 40
0.0059055
 41
0.0059055
  0
VERTEX
  8
0
 10
9.28119
 20
7.84353
 30
0.0
 40
0.0059055
 41
0.0059055
  0
VERTEX
  8
0
 10
9.28597
 20
7.8411
 30
0.0
 40
0.0059055
 41
0.0059055
  0
VERTEX
  8
0
 10
9.28847
 20
7.8386
 30
0.0
 40
0.0059055
 41
0.0059055
  0
VERTEX
  8
0
 10
9.2909
 20
7.83382
 30
0.0
 40
0.0059055
 41
0.0059055
  0
VERTEX
  8
0
 10
9.2909
 20
7.82161
 30
0.0
 40
0.0059055
 41
0.0059055
  0
VERTEX
  8
0
 10
9.28847
 20
7.81674
 30
0.0
 40
0.0059055
 41
0.0059055
  0
VERTEX
  8
0
 10
9.28597
 20
7.81429
 30
0.0
 40
0.0059055
 41
0.0059055
  0
VERTEX
  8
0
 10
9.28119
 20
7.81179
 30
0.0
 40
0.0059055
 41
0.0059055
  0
VERTEX
  8
0
 10
9.26899
 20
7.81179
 30
0.0
 40
0.0059055
 41
0.0059055
  0
VERTEX
  8
0
 10
9.26411
 20
7.81429
 30
0.0
 40
0.0059055
 41
0.0059055
  0
VERTEX
  8
0
 10
9.26172
 20
7.81674
 30
0.0
 40
0.0059055
 41
0.0059055
  0
SEQEND
 8
0
  0
POLYLINE
  8
0
 62
     0
 66
     1
 10
0
 20
0
 30
0.0
 40
0.425196
 41
0.425196
  0
VERTEX
  8
0
 10
11.2545
 20
7.86301
 30
0.0
 40
0.0059055
 41
0.0059055
  0
VERTEX
  8
0
 10
11.2448
 20
7.86301
 30
0.0
 40
0.0059055
 41
0.0059055
  0
VERTEX
  8
0
 10
11.2399
 20
7.86063
 30
0.0
 40
0.0059055
 41
0.0059055
  0
VERTEX
  8
0
 10
11.2375
 20
7.85812
 30
0.0
 40
0.0059055
 41
0.0059055
  0
VERTEX
  8
0
 10
11.2326
 20
7.85081
 30
0.0
 40
0.0059055
 41
0.0059055
  0
VERTEX
  8
0
 10
11.2302
 20
7.8411
 30
0.0
 40
0.0059055
 41
0.0059055
  0
VERTEX
  8
0
 10
11.2302
 20
7.82161
 30
0.0
 40
0.0059055
 41
0.0059055
  0
VERTEX
  8
0
 10
11.2326
 20
7.81674
 30
0.0
 40
0.0059055
 41
0.0059055
  0
VERTEX
  8
0
 10
11.235
 20
7.81429
 30
0.0
 40
0.0059055
 41
0.0059055
  0
VERTEX
  8
0
 10
11.2399
 20
7.81179
 30
0.0
 40
0.0059055
 41
0.0059055
  0
VERTEX
  8
0
 10
11.2497
 20
7.81179
 30
0.0
 40
0.0059055
 41
0.0059055
  0
VERTEX
  8
0
 10
11.2545
 20
7.81429
 30
0.0
 40
0.0059055
 41
0.0059055
  0
VERTEX
  8
0
 10
11.257
 20
7.81674
 30
0.0
 40
0.0059055
 41
0.0059055
  0
VERTEX
  8
0
 10
11.2594
 20
7.82161
 30
0.0
 40
0.0059055
 41
0.0059055
  0
VERTEX
  8
0
 10
11.2594
 20
7.83382
 30
0.0
 40
0.0059055
 41
0.0059055
  0
VERTEX
  8
0
 10
11.257
 20
7.8386
 30
0.0
 40
0.0059055
 41
0.0059055
  0
VERTEX
  8
0
 10
11.2545
 20
7.8411
 30
0.0
 40
0.0059055
 41
0.0059055
  0
VERTEX
  8
0
 10
11.2497
 20
7.84353
 30
0.0
 40
0.0059055
 41
0.0059055
  0
VERTEX
  8
0
 10
11.2399
 20
7.84353
 30
0.0
 40
0.0059055
 41
0.0059055
  0
VERTEX
  8
0
 10
11.235
 20
7.8411
 30
0.0
 40
0.0059055
 41
0.0059055
  0
VERTEX
  8
0
 10
11.2326
 20
7.8386
 30
0.0
 40
0.0059055
 41
0.0059055
  0
VERTEX
  8
0
 10
11.2302
 20
7.83382
 30
0.0
 40
0.0059055
 41
0.0059055
  0
SEQEND
 8
0
  0
POLYLINE
  8
0
 62
     0
 66
     1
 10
0
 20
0
 30
0.0
 40
0.425196
 41
0.425196
  0
VERTEX
  8
0
 10
2.36219
 20
0.472493
 30
0.0
 40
0.0059055
 41
0.0059055
  0
VERTEX
  8
0
 10
2.36219
 20
0.393826
 30
0.0
 40
0.0059055
 41
0.0059055
  0
SEQEND
 8
0
  0
POLYLINE
  8
0
 62
     0
 66
     1
 10
0
 20
0
 30
0.0
 40
0.425196
 41
0.425196
  0
VERTEX
  8
0
 10
4.33068
 20
0.472493
 30
0.0
 40
0.0059055
 41
0.0059055
  0
VERTEX
  8
0
 10
4.33068
 20
0.393826
 30
0.0
 40
0.0059055
 41
0.0059055
  0
SEQEND
 8
0
  0
POLYLINE
  8
0
 62
     0
 66
     1
 10
0
 20
0
 30
0.0
 40
0.425196
 41
0.425196
  0
VERTEX
  8
0
 10
6.29921
 20
0.472493
 30
0.0
 40
0.0059055
 41
0.0059055
  0
VERTEX
  8
0
 10
6.29921
 20
0.393826
 30
0.0
 40
0.0059055
 41
0.0059055
  0
SEQEND
 8
0
  0
POLYLINE
  8
0
 62
     0
 66
     1
 10
0
 20
0
 30
0.0
 40
0.425196
 41
0.425196
  0
VERTEX
  8
0
 10
8.26768
 20
0.472493
 30
0.0
 40
0.0059055
 41
0.0059055
  0
VERTEX
  8
0
 10
8.26768
 20
0.393826
 30
0.0
 40
0.0059055
 41
0.0059055
  0
SEQEND
 8
0
  0
POLYLINE
  8
0
 62
     0
 66
     1
 10
0
 20
0
 30
0.0
 40
0.425196
 41
0.425196
  0
VERTEX
  8
0
 10
10.2362
 20
0.472493
 30
0.0
 40
0.0059055
 41
0.0059055
  0
VERTEX
  8
0
 10
10.2362
 20
0.393826
 30
0.0
 40
0.0059055
 41
0.0059055
  0
SEQEND
 8
0
  0
POLYLINE
  8
0
 62
     0
 66
     1
 10
0
 20
0
 30
0.0
 40
0.425196
 41
0.425196
  0
VERTEX
  8
0
 10
1.41689
 20
0.409993
 30
0.0
 40
0.0059055
 41
0.0059055
  0
VERTEX
  8
0
 10
1.3877
 20
0.409993
 30
0.0
 40
0.0059055
 41
0.0059055
  0
SEQEND
 8
0
  0
POLYLINE
  8
0
 62
     0
 66
     1
 10
0
 20
0
 30
0.0
 40
0.425196
 41
0.425196
  0
VERTEX
  8
0
 10
1.40229
 20
0.409993
 30
0.0
 40
0.0059055
 41
0.0059055
  0
VERTEX
  8
0
 10
1.40229
 20
0.4611
 30
0.0
 40
0.0059055
 41
0.0059055
  0
VERTEX
  8
0
 10
1.3974
 20
0.453831
 30
0.0
 40
0.0059055
 41
0.0059055
  0
VERTEX
  8
0
 10
1.39253
 20
0.449001
 30
0.0
 40
0.0059055
 41
0.0059055
  0
VERTEX
  8
0
 10
1.3877
 20
0.446506
 30
0.0
 40
0.0059055
 41
0.0059055
  0
SEQEND
 8
0
  0
POLYLINE
  8
0
 62
     0
 66
     1
 10
0
 20
0
 30
0.0
 40
0.425196
 41
0.425196
  0
VERTEX
  8
0
 10
3.35618
 20
0.456326
 30
0.0
 40
0.0059055
 41
0.0059055
  0
VERTEX
  8
0
 10
3.35861
 20
0.458658
 30
0.0
 40
0.0059055
 41
0.0059055
  0
VERTEX
  8
0
 10
3.3635
 20
0.4611
 30
0.0
 40
0.0059055
 41
0.0059055
  0
VERTEX
  8
0
 10
3.37571
 20
0.4611
 30
0.0
 40
0.0059055
 41
0.0059055
  0
VERTEX
  8
0
 10
3.38049
 20
0.458658
 30
0.0
 40
0.0059055
 41
0.0059055
  0
VERTEX
  8
0
 10
3.38297
 20
0.456326
 30
0.0
 40
0.0059055
 41
0.0059055
  0
VERTEX
  8
0
 10
3.38542
 20
0.451443
 30
0.0
 40
0.0059055
 41
0.0059055
  0
VERTEX
  8
0
 10
3.38542
 20
0.446506
 30
0.0
 40
0.0059055
 41
0.0059055
  0
VERTEX
  8
0
 10
3.38297
 20
0.439236
 30
0.0
 40
0.0059055
 41
0.0059055
  0
VERTEX
  8
0
 10
3.35368
 20
0.409993
 30
0.0
 40
0.0059055
 41
0.0059055
  0
VERTEX
  8
0
 10
3.38542
 20
0.409993
 30
0.0
 40
0.0059055
 41
0.0059055
  0
SEQEND
 8
0
  0
POLYLINE
  8
0
 62
     0
 66
     1
 10
0
 20
0
 30
0.0
 40
0.425196
 41
0.425196
  0
VERTEX
  8
0
 10
5.32221
 20
0.4611
 30
0.0
 40
0.0059055
 41
0.0059055
  0
VERTEX
  8
0
 10
5.35389
 20
0.4611
 30
0.0
 40
0.0059055
 41
0.0059055
  0
VERTEX
  8
0
 10
5.33681
 20
0.441732
 30
0.0
 40
0.0059055
 41
0.0059055
  0
VERTEX
  8
0
 10
5.34418
 20
0.441732
 30
0.0
 40
0.0059055
 41
0.0059055
  0
VERTEX
  8
0
 10
5.34901
 20
0.439236
 30
0.0
 40
0.0059055
 41
0.0059055
  0
VERTEX
  8
0
 10
5.35151
 20
0.436794
 30
0.0
 40
0.0059055
 41
0.0059055
  0
VERTEX
  8
0
 10
5.35389
 20
0.431913
 30
0.0
 40
0.0059055
 41
0.0059055
  0
VERTEX
  8
0
 10
5.35389
 20
0.419706
 30
0.0
 40
0.0059055
 41
0.0059055
  0
VERTEX
  8
0
 10
5.35151
 20
0.414822
 30
0.0
 40
0.0059055
 41
0.0059055
  0
VERTEX
  8
0
 10
5.34901
 20
0.412435
 30
0.0
 40
0.0059055
 41
0.0059055
  0
VERTEX
  8
0
 10
5.34418
 20
0.409993
 30
0.0
 40
0.0059055
 41
0.0059055
  0
VERTEX
  8
0
 10
5.32949
 20
0.409993
 30
0.0
 40
0.0059055
 41
0.0059055
  0
VERTEX
  8
0
 10
5.32471
 20
0.412435
 30
0.0
 40
0.0059055
 41
0.0059055
  0
VERTEX
  8
0
 10
5.32221
 20
0.414822
 30
0.0
 40
0.0059055
 41
0.0059055
  0
SEQEND
 8
0
  0
POLYLINE
  8
0
 62
     0
 66
     1
 10
0
 20
0
 30
0.0
 40
0.425196
 41
0.425196
  0
VERTEX
  8
0
 10
7.31749
 20
0.444119
 30
0.0
 40
0.0059055
 41
0.0059055
  0
VERTEX
  8
0
 10
7.31749
 20
0.409993
 30
0.0
 40
0.0059055
 41
0.0059055
  0
SEQEND
 8
0
  0
POLYLINE
  8
0
 62
     0
 66
     1
 10
0
 20
0
 30
0.0
 40
0.425196
 41
0.425196
  0
VERTEX
  8
0
 10
7.30528
 20
0.463596
 30
0.0
 40
0.0059055
 41
0.0059055
  0
VERTEX
  8
0
 10
7.29318
 20
0.427029
 30
0.0
 40
0.0059055
 41
0.0059055
  0
VERTEX
  8
0
 10
7.32482
 20
0.427029
 30
0.0
 40
0.0059055
 41
0.0059055
  0
SEQEND
 8
0
  0
POLYLINE
  8
0
 62
     0
 66
     1
 10
0
 20
0
 30
0.0
 40
0.425196
 41
0.425196
  0
VERTEX
  8
0
 10
9.28847
 20
0.4611
 30
0.0
 40
0.0059055
 41
0.0059055
  0
VERTEX
  8
0
 10
9.26411
 20
0.4611
 30
0.0
 40
0.0059055
 41
0.0059055
  0
VERTEX
  8
0
 10
9.26172
 20
0.436794
 30
0.0
 40
0.0059055
 41
0.0059055
  0
VERTEX
  8
0
 10
9.26411
 20
0.439236
 30
0.0
 40
0.0059055
 41
0.0059055
  0
VERTEX
  8
0
 10
9.26899
 20
0.441732
 30
0.0
 40
0.0059055
 41
0.0059055
  0
VERTEX
  8
0
 10
9.28119
 20
0.441732
 30
0.0
 40
0.0059055
 41
0.0059055
  0
VERTEX
  8
0
 10
9.28597
 20
0.439236
 30
0.0
 40
0.0059055
 41
0.0059055
  0
VERTEX
  8
0
 10
9.28847
 20
0.436794
 30
0.0
 40
0.0059055
 41
0.0059055
  0
VERTEX
  8
0
 10
9.2909
 20
0.431913
 30
0.0
 40
0.0059055
 41
0.0059055
  0
VERTEX
  8
0
 10
9.2909
 20
0.419706
 30
0.0
 40
0.0059055
 41
0.0059055
  0
VERTEX
  8
0
 10
9.28847
 20
0.414822
 30
0.0
 40
0.0059055
 41
0.0059055
  0
VERTEX
  8
0
 10
9.28597
 20
0.412435
 30
0.0
 40
0.0059055
 41
0.0059055
  0
VERTEX
  8
0
 10
9.28119
 20
0.409993
 30
0.0
 40
0.0059055
 41
0.0059055
  0
VERTEX
  8
0
 10
9.26899
 20
0.409993
 30
0.0
 40
0.0059055
 41
0.0059055
  0
VERTEX
  8
0
 10
9.26411
 20
0.412435
 30
0.0
 40
0.0059055
 41
0.0059055
  0
VERTEX
  8
0
 10
9.26172
 20
0.414822
 30
0.0
 40
0.0059055
 41
0.0059055
  0
SEQEND
 8
0
  0
POLYLINE
  8
0
 62
     0
 66
     1
 10
0
 20
0
 30
0.0
 40
0.425196
 41
0.425196
  0
VERTEX
  8
0
 10
11.2545
 20
0.4611
 30
0.0
 40
0.0059055
 41
0.0059055
  0
VERTEX
  8
0
 10
11.2448
 20
0.4611
 30
0.0
 40
0.0059055
 41
0.0059055
  0
VERTEX
  8
0
 10
11.2399
 20
0.458658
 30
0.0
 40
0.0059055
 41
0.0059055
  0
VERTEX
  8
0
 10
11.2375
 20
0.456326
 30
0.0
 40
0.0059055
 41
0.0059055
  0
VERTEX
  8
0
 10
11.2326
 20
0.449001
 30
0.0
 40
0.0059055
 41
0.0059055
  0
VERTEX
  8
0
 10
11.2302
 20
0.439236
 30
0.0
 40
0.0059055
 41
0.0059055
  0
VERTEX
  8
0
 10
11.2302
 20
0.419706
 30
0.0
 40
0.0059055
 41
0.0059055
  0
VERTEX
  8
0
 10
11.2326
 20
0.414822
 30
0.0
 40
0.0059055
 41
0.0059055
  0
VERTEX
  8
0
 10
11.235
 20
0.412435
 30
0.0
 40
0.0059055
 41
0.0059055
  0
VERTEX
  8
0
 10
11.2399
 20
0.409993
 30
0.0
 40
0.0059055
 41
0.0059055
  0
VERTEX
  8
0
 10
11.2497
 20
0.409993
 30
0.0
 40
0.0059055
 41
0.0059055
  0
VERTEX
  8
0
 10
11.2545
 20
0.412435
 30
0.0
 40
0.0059055
 41
0.0059055
  0
VERTEX
  8
0
 10
11.257
 20
0.414822
 30
0.0
 40
0.0059055
 41
0.0059055
  0
VERTEX
  8
0
 10
11.2594
 20
0.419706
 30
0.0
 40
0.0059055
 41
0.0059055
  0
VERTEX
  8
0
 10
11.2594
 20
0.431913
 30
0.0
 40
0.0059055
 41
0.0059055
  0
VERTEX
  8
0
 10
11.257
 20
0.436794
 30
0.0
 40
0.0059055
 41
0.0059055
  0
VERTEX
  8
0
 10
11.2545
 20
0.439236
 30
0.0
 40
0.0059055
 41
0.0059055
  0
VERTEX
  8
0
 10
11.2497
 20
0.441732
 30
0.0
 40
0.0059055
 41
0.0059055
  0
VERTEX
  8
0
 10
11.2399
 20
0.441732
 30
0.0
 40
0.0059055
 41
0.0059055
  0
VERTEX
  8
0
 10
11.235
 20
0.439236
 30
0.0
 40
0.0059055
 41
0.0059055
  0
VERTEX
  8
0
 10
11.2326
 20
0.436794
 30
0.0
 40
0.0059055
 41
0.0059055
  0
VERTEX
  8
0
 10
11.2302
 20
0.431913
 30
0.0
 40
0.0059055
 41
0.0059055
  0
SEQEND
 8
0
  0
POLYLINE
  8
0
 62
     0
 66
     1
 10
0
 20
0
 30
0.0
 40
0.425196
 41
0.425196
  0
VERTEX
  8
0
 10
0.393718
 20
5.90582
 30
0.0
 40
0.0059055
 41
0.0059055
  0
VERTEX
  8
0
 10
0.472385
 20
5.90582
 30
0.0
 40
0.0059055
 41
0.0059055
  0
SEQEND
 8
0
  0
POLYLINE
  8
0
 62
     0
 66
     1
 10
0
 20
0
 30
0.0
 40
0.425196
 41
0.425196
  0
VERTEX
  8
0
 10
0.393718
 20
3.93733
 30
0.0
 40
0.0059055
 41
0.0059055
  0
VERTEX
  8
0
 10
0.472385
 20
3.93733
 30
0.0
 40
0.0059055
 41
0.0059055
  0
SEQEND
 8
0
  0
POLYLINE
  8
0
 62
     0
 66
     1
 10
0
 20
0
 30
0.0
 40
0.425196
 41
0.425196
  0
VERTEX
  8
0
 10
0.393718
 20
1.96881
 30
0.0
 40
0.0059055
 41
0.0059055
  0
VERTEX
  8
0
 10
0.472385
 20
1.96881
 30
0.0
 40
0.0059055
 41
0.0059055
  0
SEQEND
 8
0
  0
POLYLINE
  8
0
 62
     0
 66
     1
 10
0
 20
0
 30
0.0
 40
0.425196
 41
0.425196
  0
VERTEX
  8
0
 10
0.42079
 20
6.88162
 30
0.0
 40
0.0059055
 41
0.0059055
  0
VERTEX
  8
0
 10
0.445204
 20
6.88162
 30
0.0
 40
0.0059055
 41
0.0059055
  0
SEQEND
 8
0
  0
POLYLINE
  8
0
 62
     0
 66
     1
 10
0
 20
0
 30
0.0
 40
0.425196
 41
0.425196
  0
VERTEX
  8
0
 10
0.416015
 20
6.86692
 30
0.0
 40
0.0059055
 41
0.0059055
  0
VERTEX
  8
0
 10
0.432997
 20
6.91813
 30
0.0
 40
0.0059055
 41
0.0059055
  0
VERTEX
  8
0
 10
0.450087
 20
6.86692
 30
0.0
 40
0.0059055
 41
0.0059055
  0
SEQEND
 8
0
  0
POLYLINE
  8
0
 62
     0
 66
     1
 10
0
 20
0
 30
0.0
 40
0.425196
 41
0.425196
  0
VERTEX
  8
0
 10
0.436686
 20
4.92524
 30
0.0
 40
0.0059055
 41
0.0059055
  0
VERTEX
  8
0
 10
0.444011
 20
4.92279
 30
0.0
 40
0.0059055
 41
0.0059055
  0
VERTEX
  8
0
 10
0.446397
 20
4.92042
 30
0.0
 40
0.0059055
 41
0.0059055
  0
VERTEX
  8
0
 10
0.448893
 20
4.91553
 30
0.0
 40
0.0059055
 41
0.0059055
  0
VERTEX
  8
0
 10
0.448893
 20
4.90821
 30
0.0
 40
0.0059055
 41
0.0059055
  0
VERTEX
  8
0
 10
0.446397
 20
4.90332
 30
0.0
 40
0.0059055
 41
0.0059055
  0
VERTEX
  8
0
 10
0.444011
 20
4.90093
 30
0.0
 40
0.0059055
 41
0.0059055
  0
VERTEX
  8
0
 10
0.439074
 20
4.89844
 30
0.0
 40
0.0059055
 41
0.0059055
  0
VERTEX
  8
0
 10
0.419596
 20
4.89844
 30
0.0
 40
0.0059055
 41
0.0059055
  0
VERTEX
  8
0
 10
0.419596
 20
4.9496
 30
0.0
 40
0.0059055
 41
0.0059055
  0
VERTEX
  8
0
 10
0.436686
 20
4.9496
 30
0.0
 40
0.0059055
 41
0.0059055
  0
VERTEX
  8
0
 10
0.441624
 20
4.94721
 30
0.0
 40
0.0059055
 41
0.0059055
  0
VERTEX
  8
0
 10
0.444011
 20
4.94472
 30
0.0
 40
0.0059055
 41
0.0059055
  0
VERTEX
  8
0
 10
0.446397
 20
4.93994
 30
0.0
 40
0.0059055
 41
0.0059055
  0
VERTEX
  8
0
 10
0.446397
 20
4.935
 30
0.0
 40
0.0059055
 41
0.0059055
  0
VERTEX
  8
0
 10
0.444011
 20
4.93012
 30
0.0
 40
0.0059055
 41
0.0059055
  0
VERTEX
  8
0
 10
0.441624
 20
4.92774
 30
0.0
 40
0.0059055
 41
0.0059055
  0
VERTEX
  8
0
 10
0.436686
 20
4.92524
 30
0.0
 40
0.0059055
 41
0.0059055
  0
VERTEX
  8
0
 10
0.419596
 20
4.92524
 30
0.0
 40
0.0059055
 41
0.0059055
  0
SEQEND
 8
0
  0
POLYLINE
  8
0
 62
     0
 66
     1
 10
0
 20
0
 30
0.0
 40
0.425196
 41
0.425196
  0
VERTEX
  8
0
 10
0.448893
 20
2.93485
 30
0.0
 40
0.0059055
 41
0.0059055
  0
VERTEX
  8
0
 10
0.446397
 20
2.9324
 30
0.0
 40
0.0059055
 41
0.0059055
  0
VERTEX
  8
0
 10
0.439074
 20
2.9299
 30
0.0
 40
0.0059055
 41
0.0059055
  0
VERTEX
  8
0
 10
0.43419
 20
2.9299
 30
0.0
 40
0.0059055
 41
0.0059055
  0
VERTEX
  8
0
 10
0.426921
 20
2.9324
 30
0.0
 40
0.0059055
 41
0.0059055
  0
VERTEX
  8
0
 10
0.422092
 20
2.93722
 30
0.0
 40
0.0059055
 41
0.0059055
  0
VERTEX
  8
0
 10
0.419596
 20
2.94211
 30
0.0
 40
0.0059055
 41
0.0059055
  0
VERTEX
  8
0
 10
0.41721
 20
2.95193
 30
0.0
 40
0.0059055
 41
0.0059055
  0
VERTEX
  8
0
 10
0.41721
 20
2.95921
 30
0.0
 40
0.0059055
 41
0.0059055
  0
VERTEX
  8
0
 10
0.419596
 20
2.96892
 30
0.0
 40
0.0059055
 41
0.0059055
  0
VERTEX
  8
0
 10
0.422092
 20
2.97379
 30
0.0
 40
0.0059055
 41
0.0059055
  0
VERTEX
  8
0
 10
0.426921
 20
2.97874
 30
0.0
 40
0.0059055
 41
0.0059055
  0
VERTEX
  8
0
 10
0.43419
 20
2.98113
 30
0.0
 40
0.0059055
 41
0.0059055
  0
VERTEX
  8
0
 10
0.439074
 20
2.98113
 30
0.0
 40
0.0059055
 41
0.0059055
  0
VERTEX
  8
0
 10
0.446397
 20
2.97874
 30
0.0
 40
0.0059055
 41
0.0059055
  0
VERTEX
  8
0
 10
0.448893
 20
2.97624
 30
0.0
 40
0.0059055
 41
0.0059055
  0
SEQEND
 8
0
  0
POLYLINE
  8
0
 62
     0
 66
     1
 10
0
 20
0
 30
0.0
 70
     1
 40
0.425196
 41
0.425196
  0
VERTEX
  8
0
 10
0.419596
 20
0.961426
 30
0.0
 40
0.0059055
 41
0.0059055
  0
VERTEX
  8
0
 10
0.419596
 20
1.01264
 30
0.0
 40
0.0059055
 41
0.0059055
  0
VERTEX
  8
0
 10
0.431803
 20
1.01264
 30
0.0
 40
0.0059055
 41
0.0059055
  0
VERTEX
  8
0
 10
0.439074
 20
1.0102
 30
0.0
 40
0.0059055
 41
0.0059055
  0
VERTEX
  8
0
 10
0.444011
 20
1.00532
 30
0.0
 40
0.0059055
 41
0.0059055
  0
VERTEX
  8
0
 10
0.446397
 20
1.00043
 30
0.0
 40
0.0059055
 41
0.0059055
  0
VERTEX
  8
0
 10
0.448893
 20
0.990722
 30
0.0
 40
0.0059055
 41
0.0059055
  0
VERTEX
  8
0
 10
0.448893
 20
0.983399
 30
0.0
 40
0.0059055
 41
0.0059055
  0
VERTEX
  8
0
 10
0.446397
 20
0.973633
 30
0.0
 40
0.0059055
 41
0.0059055
  0
VERTEX
  8
0
 10
0.444011
 20
0.968696
 30
0.0
 40
0.0059055
 41
0.0059055
  0
VERTEX
  8
0
 10
0.439074
 20
0.963867
 30
0.0
 40
0.0059055
 41
0.0059055
  0
VERTEX
  8
0
 10
0.431803
 20
0.961426
 30
0.0
 40
0.0059055
 41
0.0059055
  0
VERTEX
  8
0
 10
0.419596
 20
0.961426
 30
0.0
 40
0.0059055
 41
0.0059055
  0
SEQEND
 8
0
  0
POLYLINE
  8
0
 62
     0
 66
     1
 10
0
 20
0
 30
0.0
 40
0.425196
 41
0.425196
  0
VERTEX
  8
0
 10
11.2992
 20
5.90582
 30
0.0
 40
0.0059055
 41
0.0059055
  0
VERTEX
  8
0
 10
11.2205
 20
5.90582
 30
0.0
 40
0.0059055
 41
0.0059055
  0
SEQEND
 8
0
  0
POLYLINE
  8
0
 62
     0
 66
     1
 10
0
 20
0
 30
0.0
 40
0.425196
 41
0.425196
  0
VERTEX
  8
0
 10
11.2992
 20
3.93733
 30
0.0
 40
0.0059055
 41
0.0059055
  0
VERTEX
  8
0
 10
11.2205
 20
3.93733
 30
0.0
 40
0.0059055
 41
0.0059055
  0
SEQEND
 8
0
  0
POLYLINE
  8
0
 62
     0
 66
     1
 10
0
 20
0
 30
0.0
 40
0.425196
 41
0.425196
  0
VERTEX
  8
0
 10
11.2992
 20
1.96881
 30
0.0
 40
0.0059055
 41
0.0059055
  0
VERTEX
  8
0
 10
11.2205
 20
1.96881
 30
0.0
 40
0.0059055
 41
0.0059055
  0
SEQEND
 8
0
  0
POLYLINE
  8
0
 62
     0
 66
     1
 10
0
 20
0
 30
0.0
 40
0.425196
 41
0.425196
  0
VERTEX
  8
0
 10
11.2477
 20
6.88162
 30
0.0
 40
0.0059055
 41
0.0059055
  0
VERTEX
  8
0
 10
11.2721
 20
6.88162
 30
0.0
 40
0.0059055
 41
0.0059055
  0
SEQEND
 8
0
  0
POLYLINE
  8
0
 62
     0
 66
     1
 10
0
 20
0
 30
0.0
 40
0.425196
 41
0.425196
  0
VERTEX
  8
0
 10
11.2428
 20
6.86692
 30
0.0
 40
0.0059055
 41
0.0059055
  0
VERTEX
  8
0
 10
11.2599
 20
6.91813
 30
0.0
 40
0.0059055
 41
0.0059055
  0
VERTEX
  8
0
 10
11.2769
 20
6.86692
 30
0.0
 40
0.0059055
 41
0.0059055
  0
SEQEND
 8
0
  0
POLYLINE
  8
0
 62
     0
 66
     1
 10
0
 20
0
 30
0.0
 40
0.425196
 41
0.425196
  0
VERTEX
  8
0
 10
11.2635
 20
4.92524
 30
0.0
 40
0.0059055
 41
0.0059055
  0
VERTEX
  8
0
 10
11.2708
 20
4.92279
 30
0.0
 40
0.0059055
 41
0.0059055
  0
VERTEX
  8
0
 10
11.2733
 20
4.92042
 30
0.0
 40
0.0059055
 41
0.0059055
  0
VERTEX
  8
0
 10
11.2757
 20
4.91553
 30
0.0
 40
0.0059055
 41
0.0059055
  0
VERTEX
  8
0
 10
11.2757
 20
4.90821
 30
0.0
 40
0.0059055
 41
0.0059055
  0
VERTEX
  8
0
 10
11.2733
 20
4.90332
 30
0.0
 40
0.0059055
 41
0.0059055
  0
VERTEX
  8
0
 10
11.2708
 20
4.90093
 30
0.0
 40
0.0059055
 41
0.0059055
  0
VERTEX
  8
0
 10
11.266
 20
4.89844
 30
0.0
 40
0.0059055
 41
0.0059055
  0
VERTEX
  8
0
 10
11.2465
 20
4.89844
 30
0.0
 40
0.0059055
 41
0.0059055
  0
VERTEX
  8
0
 10
11.2465
 20
4.9496
 30
0.0
 40
0.0059055
 41
0.0059055
  0
VERTEX
  8
0
 10
11.2635
 20
4.9496
 30
0.0
 40
0.0059055
 41
0.0059055
  0
VERTEX
  8
0
 10
11.2684
 20
4.94721
 30
0.0
 40
0.0059055
 41
0.0059055
  0
VERTEX
  8
0
 10
11.2708
 20
4.94472
 30
0.0
 40
0.0059055
 41
0.0059055
  0
VERTEX
  8
0
 10
11.2733
 20
4.93994
 30
0.0
 40
0.0059055
 41
0.0059055
  0
VERTEX
  8
0
 10
11.2733
 20
4.935
 30
0.0
 40
0.0059055
 41
0.0059055
  0
VERTEX
  8
0
 10
11.2708
 20
4.93012
 30
0.0
 40
0.0059055
 41
0.0059055
  0
VERTEX
  8
0
 10
11.2684
 20
4.92774
 30
0.0
 40
0.0059055
 41
0.0059055
  0
VERTEX
  8
0
 10
11.2635
 20
4.92524
 30
0.0
 40
0.0059055
 41
0.0059055
  0
VERTEX
  8
0
 10
11.2465
 20
4.92524
 30
0.0
 40
0.0059055
 41
0.0059055
  0
SEQEND
 8
0
  0
POLYLINE
  8
0
 62
     0
 66
     1
 10
0
 20
0
 30
0.0
 40
0.425196
 41
0.425196
  0
VERTEX
  8
0
 10
11.2757
 20
2.93485
 30
0.0
 40
0.0059055
 41
0.0059055
  0
VERTEX
  8
0
 10
11.2733
 20
2.9324
 30
0.0
 40
0.0059055
 41
0.0059055
  0
VERTEX
  8
0
 10
11.266
 20
2.9299
 30
0.0
 40
0.0059055
 41
0.0059055
  0
VERTEX
  8
0
 10
11.2611
 20
2.9299
 30
0.0
 40
0.0059055
 41
0.0059055
  0
VERTEX
  8
0
 10
11.2538
 20
2.9324
 30
0.0
 40
0.0059055
 41
0.0059055
  0
VERTEX
  8
0
 10
11.2489
 20
2.93722
 30
0.0
 40
0.0059055
 41
0.0059055
  0
VERTEX
  8
0
 10
11.2465
 20
2.94211
 30
0.0
 40
0.0059055
 41
0.0059055
  0
VERTEX
  8
0
 10
11.244
 20
2.95193
 30
0.0
 40
0.0059055
 41
0.0059055
  0
VERTEX
  8
0
 10
11.244
 20
2.95921
 30
0.0
 40
0.0059055
 41
0.0059055
  0
VERTEX
  8
0
 10
11.2465
 20
2.96892
 30
0.0
 40
0.0059055
 41
0.0059055
  0
VERTEX
  8
0
 10
11.2489
 20
2.97379
 30
0.0
 40
0.0059055
 41
0.0059055
  0
VERTEX
  8
0
 10
11.2538
 20
2.97874
 30
0.0
 40
0.0059055
 41
0.0059055
  0
VERTEX
  8
0
 10
11.2611
 20
2.98113
 30
0.0
 40
0.0059055
 41
0.0059055
  0
VERTEX
  8
0
 10
11.266
 20
2.98113
 30
0.0
 40
0.0059055
 41
0.0059055
  0
VERTEX
  8
0
 10
11.2733
 20
2.97874
 30
0.0
 40
0.0059055
 41
0.0059055
  0
VERTEX
  8
0
 10
11.2757
 20
2.97624
 30
0.0
 40
0.0059055
 41
0.0059055
  0
SEQEND
 8
0
  0
POLYLINE
  8
0
 62
     0
 66
     1
 10
0
 20
0
 30
0.0
 70
     1
 40
0.425196
 41
0.425196
  0
VERTEX
  8
0
 10
11.2465
 20
0.961426
 30
0.0
 40
0.0059055
 41
0.0059055
  0
VERTEX
  8
0
 10
11.2465
 20
1.01264
 30
0.0
 40
0.0059055
 41
0.0059055
  0
VERTEX
  8
0
 10
11.2587
 20
1.01264
 30
0.0
 40
0.0059055
 41
0.0059055
  0
VERTEX
  8
0
 10
11.266
 20
1.0102
 30
0.0
 40
0.0059055
 41
0.0059055
  0
VERTEX
  8
0
 10
11.2708
 20
1.00532
 30
0.0
 40
0.0059055
 41
0.0059055
  0
VERTEX
  8
0
 10
11.2733
 20
1.00043
 30
0.0
 40
0.0059055
 41
0.0059055
  0
VERTEX
  8
0
 10
11.2757
 20
0.990722
 30
0.0
 40
0.0059055
 41
0.0059055
  0
VERTEX
  8
0
 10
11.2757
 20
0.983399
 30
0.0
 40
0.0059055
 41
0.0059055
  0
VERTEX
  8
0
 10
11.2733
 20
0.973633
 30
0.0
 40
0.0059055
 41
0.0059055
  0
VERTEX
  8
0
 10
11.2708
 20
0.968696
 30
0.0
 40
0.0059055
 41
0.0059055
  0
VERTEX
  8
0
 10
11.266
 20
0.963867
 30
0.0
 40
0.0059055
 41
0.0059055
  0
VERTEX
  8
0
 10
11.2587
 20
0.961426
 30
0.0
 40
0.0059055
 41
0.0059055
  0
VERTEX
  8
0
 10
11.2465
 20
0.961426
 30
0.0
 40
0.0059055
 41
0.0059055
  0
SEQEND
 8
0
  0
POLYLINE
  8
0
 62
     0
 66
     1
 10
0
 20
0
 30
0.0
 70
     1
 40
0.425196
 41
0.425196
  0
VERTEX
  8
0
 10
7.88807
 20
0.638726
 30
0.0
 40
0.0059055
 41
0.0059055
  0
VERTEX
  8
0
 10
7.88807
 20
0.6977
 30
0.0
 40
0.0059055
 41
0.0059055
  0
VERTEX
  8
0
 10
7.90218
 20
0.6977
 30
0.0
 40
0.0059055
 41
0.0059055
  0
VERTEX
  8
0
 10
7.9106
 20
0.694933
 30
0.0
 40
0.0059055
 41
0.0059055
  0
VERTEX
  8
0
 10
7.91618
 20
0.689344
 30
0.0
 40
0.0059055
 41
0.0059055
  0
VERTEX
  8
0
 10
7.919
 20
0.683703
 30
0.0
 40
0.0059055
 41
0.0059055
  0
VERTEX
  8
0
 10
7.92188
 20
0.672418
 30
0.0
 40
0.0059055
 41
0.0059055
  0
VERTEX
  8
0
 10
7.92188
 20
0.664008
 30
0.0
 40
0.0059055
 41
0.0059055
  0
VERTEX
  8
0
 10
7.919
 20
0.652724
 30
0.0
 40
0.0059055
 41
0.0059055
  0
VERTEX
  8
0
 10
7.91618
 20
0.647136
 30
0.0
 40
0.0059055
 41
0.0059055
  0
VERTEX
  8
0
 10
7.9106
 20
0.641493
 30
0.0
 40
0.0059055
 41
0.0059055
  0
VERTEX
  8
0
 10
7.90218
 20
0.638726
 30
0.0
 40
0.0059055
 41
0.0059055
  0
VERTEX
  8
0
 10
7.88807
 20
0.638726
 30
0.0
 40
0.0059055
 41
0.0059055
  0
SEQEND
 8
0
  0
POLYLINE
  8
0
 62
     0
 66
     1
 10
0
 20
0
 30
0.0
 40
0.425196
 41
0.425196
  0
VERTEX
  8
0
 10
7.9725
 20
0.638726
 30
0.0
 40
0.0059055
 41
0.0059055
  0
VERTEX
  8
0
 10
7.9725
 20
0.669596
 30
0.0
 40
0.0059055
 41
0.0059055
  0
VERTEX
  8
0
 10
7.96967
 20
0.675239
 30
0.0
 40
0.0059055
 41
0.0059055
  0
VERTEX
  8
0
 10
7.96397
 20
0.678114
 30
0.0
 40
0.0059055
 41
0.0059055
  0
VERTEX
  8
0
 10
7.95281
 20
0.678114
 30
0.0
 40
0.0059055
 41
0.0059055
  0
VERTEX
  8
0
 10
7.94721
 20
0.675239
 30
0.0
 40
0.0059055
 41
0.0059055
  0
SEQEND
 8
0
  0
POLYLINE
  8
0
 62
     0
 66
     1
 10
0
 20
0
 30
0.0
 40
0.425196
 41
0.425196
  0
VERTEX
  8
0
 10
7.9725
 20
0.641493
 30
0.0
 40
0.0059055
 41
0.0059055
  0
VERTEX
  8
0
 10
7.9669
 20
0.638726
 30
0.0
 40
0.0059055
 41
0.0059055
  0
VERTEX
  8
0
 10
7.95281
 20
0.638726
 30
0.0
 40
0.0059055
 41
0.0059055
  0
VERTEX
  8
0
 10
7.94721
 20
0.641493
 30
0.0
 40
0.0059055
 41
0.0059055
  0
VERTEX
  8
0
 10
7.94439
 20
0.647136
 30
0.0
 40
0.0059055
 41
0.0059055
  0
VERTEX
  8
0
 10
7.94439
 20
0.652724
 30
0.0
 40
0.0059055
 41
0.0059055
  0
VERTEX
  8
0
 10
7.94721
 20
0.658421
 30
0.0
 40
0.0059055
 41
0.0059055
  0
VERTEX
  8
0
 10
7.95281
 20
0.661187
 30
0.0
 40
0.0059055
 41
0.0059055
  0
VERTEX
  8
0
 10
7.9669
 20
0.661187
 30
0.0
 40
0.0059055
 41
0.0059055
  0
VERTEX
  8
0
 10
7.9725
 20
0.664008
 30
0.0
 40
0.0059055
 41
0.0059055
  0
SEQEND
 8
0
  0
POLYLINE
  8
0
 62
     0
 66
     1
 10
0
 20
0
 30
0.0
 40
0.425196
 41
0.425196
  0
VERTEX
  8
0
 10
7.99219
 20
0.678114
 30
0.0
 40
0.0059055
 41
0.0059055
  0
VERTEX
  8
0
 10
8.01471
 20
0.678114
 30
0.0
 40
0.0059055
 41
0.0059055
  0
SEQEND
 8
0
  0
POLYLINE
  8
0
 62
     0
 66
     1
 10
0
 20
0
 30
0.0
 40
0.425196
 41
0.425196
  0
VERTEX
  8
0
 10
8.0006
 20
0.6977
 30
0.0
 40
0.0059055
 41
0.0059055
  0
VERTEX
  8
0
 10
8.0006
 20
0.647136
 30
0.0
 40
0.0059055
 41
0.0059055
  0
VERTEX
  8
0
 10
8.00342
 20
0.641493
 30
0.0
 40
0.0059055
 41
0.0059055
  0
VERTEX
  8
0
 10
8.009
 20
0.638726
 30
0.0
 40
0.0059055
 41
0.0059055
  0
VERTEX
  8
0
 10
8.01471
 20
0.638726
 30
0.0
 40
0.0059055
 41
0.0059055
  0
SEQEND
 8
0
  0
POLYLINE
  8
0
 62
     0
 66
     1
 10
0
 20
0
 30
0.0
 40
0.425196
 41
0.425196
  0
VERTEX
  8
0
 10
8.05681
 20
0.641493
 30
0.0
 40
0.0059055
 41
0.0059055
  0
VERTEX
  8
0
 10
8.05122
 20
0.638726
 30
0.0
 40
0.0059055
 41
0.0059055
  0
VERTEX
  8
0
 10
8.03999
 20
0.638726
 30
0.0
 40
0.0059055
 41
0.0059055
  0
VERTEX
  8
0
 10
8.03429
 20
0.641493
 30
0.0
 40
0.0059055
 41
0.0059055
  0
VERTEX
  8
0
 10
8.03147
 20
0.647136
 30
0.0
 40
0.0059055
 41
0.0059055
  0
VERTEX
  8
0
 10
8.03147
 20
0.669596
 30
0.0
 40
0.0059055
 41
0.0059055
  0
VERTEX
  8
0
 10
8.03429
 20
0.675239
 30
0.0
 40
0.0059055
 41
0.0059055
  0
VERTEX
  8
0
 10
8.03999
 20
0.678114
 30
0.0
 40
0.0059055
 41
0.0059055
  0
VERTEX
  8
0
 10
8.05122
 20
0.678114
 30
0.0
 40
0.0059055
 41
0.0059055
  0
VERTEX
  8
0
 10
8.05681
 20
0.675239
 30
0.0
 40
0.0059055
 41
0.0059055
  0
VERTEX
  8
0
 10
8.05968
 20
0.669596
 30
0.0
 40
0.0059055
 41
0.0059055
  0
VERTEX
  8
0
 10
8.05968
 20
0.664008
 30
0.0
 40
0.0059055
 41
0.0059055
  0
VERTEX
  8
0
 10
8.03147
 20
0.658421
 30
0.0
 40
0.0059055
 41
0.0059055
  0
SEQEND
 8
0
  0
POLYLINE
  8
0
 62
     0
 66
     1
 10
0
 20
0
 30
0.0
 40
0.425196
 41
0.425196
  0
VERTEX
  8
0
 10
8.08501
 20
0.644314
 30
0.0
 40
0.0059055
 41
0.0059055
  0
VERTEX
  8
0
 10
8.08778
 20
0.641493
 30
0.0
 40
0.0059055
 41
0.0059055
  0
VERTEX
  8
0
 10
8.08501
 20
0.638726
 30
0.0
 40
0.0059055
 41
0.0059055
  0
VERTEX
  8
0
 10
8.08219
 20
0.641493
 30
0.0
 40
0.0059055
 41
0.0059055
  0
VERTEX
  8
0
 10
8.08501
 20
0.644314
 30
0.0
 40
0.0059055
 41
0.0059055
  0
VERTEX
  8
0
 10
8.08501
 20
0.638726
 30
0.0
 40
0.0059055
 41
0.0059055
  0
SEQEND
 8
0
  0
POLYLINE
  8
0
 62
     0
 66
     1
 10
0
 20
0
 30
0.0
 40
0.425196
 41
0.425196
  0
VERTEX
  8
0
 10
8.08501
 20
0.675239
 30
0.0
 40
0.0059055
 41
0.0059055
  0
VERTEX
  8
0
 10
8.08778
 20
0.672418
 30
0.0
 40
0.0059055
 41
0.0059055
  0
VERTEX
  8
0
 10
8.08501
 20
0.669596
 30
0.0
 40
0.0059055
 41
0.0059055
  0
VERTEX
  8
0
 10
8.08219
 20
0.672418
 30
0.0
 40
0.0059055
 41
0.0059055
  0
VERTEX
  8
0
 10
8.08501
 20
0.675239
 30
0.0
 40
0.0059055
 41
0.0059055
  0
VERTEX
  8
0
 10
8.08501
 20
0.669596
 30
0.0
 40
0.0059055
 41
0.0059055
  0
SEQEND
 8
0
  0
POLYLINE
  8
0
 62
     0
 66
     1
 10
0
 20
0
 30
0.0
 40
0.425196
 41
0.425196
  0
VERTEX
  8
0
 10
6.96847
 20
0.610297
 30
0.0
 40
0.0059055
 41
0.0059055
  0
VERTEX
  8
0
 10
11.2205
 20
0.610297
 30
0.0
 40
0.0059055
 41
0.0059055
  0
SEQEND
 8
0
  0
POLYLINE
  8
0
 62
     0
 66
     1
 10
0
 20
0
 30
0.0
 40
0.425196
 41
0.425196
  0
VERTEX
  8
0
 10
7.02197
 20
0.528537
 30
0.0
 40
0.0059055
 41
0.0059055
  0
VERTEX
  8
0
 10
7.02197
 20
0.587511
 30
0.0
 40
0.0059055
 41
0.0059055
  0
SEQEND
 8
0
  0
POLYLINE
  8
0
 62
     0
 66
     1
 10
0
 20
0
 30
0.0
 40
0.425196
 41
0.425196
  0
VERTEX
  8
0
 10
7.05572
 20
0.528537
 30
0.0
 40
0.0059055
 41
0.0059055
  0
VERTEX
  8
0
 10
7.03039
 20
0.562229
 30
0.0
 40
0.0059055
 41
0.0059055
  0
SEQEND
 8
0
  0
POLYLINE
  8
0
 62
     0
 66
     1
 10
0
 20
0
 30
0.0
 40
0.425196
 41
0.425196
  0
VERTEX
  8
0
 10
7.05572
 20
0.587511
 30
0.0
 40
0.0059055
 41
0.0059055
  0
VERTEX
  8
0
 10
7.02197
 20
0.553819
 30
0.0
 40
0.0059055
 41
0.0059055
  0
SEQEND
 8
0
  0
POLYLINE
  8
0
 62
     0
 66
     1
 10
0
 20
0
 30
0.0
 40
0.425196
 41
0.425196
  0
VERTEX
  8
0
 10
7.081
 20
0.528537
 30
0.0
 40
0.0059055
 41
0.0059055
  0
VERTEX
  8
0
 10
7.081
 20
0.567817
 30
0.0
 40
0.0059055
 41
0.0059055
  0
SEQEND
 8
0
  0
POLYLINE
  8
0
 62
     0
 66
     1
 10
0
 20
0
 30
0.0
 40
0.425196
 41
0.425196
  0
VERTEX
  8
0
 10
7.081
 20
0.587511
 30
0.0
 40
0.0059055
 41
0.0059055
  0
VERTEX
  8
0
 10
7.07818
 20
0.584744
 30
0.0
 40
0.0059055
 41
0.0059055
  0
VERTEX
  8
0
 10
7.081
 20
0.581922
 30
0.0
 40
0.0059055
 41
0.0059055
  0
VERTEX
  8
0
 10
7.08376
 20
0.584744
 30
0.0
 40
0.0059055
 41
0.0059055
  0
VERTEX
  8
0
 10
7.081
 20
0.587511
 30
0.0
 40
0.0059055
 41
0.0059055
  0
VERTEX
  8
0
 10
7.081
 20
0.581922
 30
0.0
 40
0.0059055
 41
0.0059055
  0
SEQEND
 8
0
  0
POLYLINE
  8
0
 62
     0
 66
     1
 10
0
 20
0
 30
0.0
 40
0.425196
 41
0.425196
  0
VERTEX
  8
0
 10
7.1429
 20
0.534125
 30
0.0
 40
0.0059055
 41
0.0059055
  0
VERTEX
  8
0
 10
7.14008
 20
0.531304
 30
0.0
 40
0.0059055
 41
0.0059055
  0
VERTEX
  8
0
 10
7.13162
 20
0.528537
 30
0.0
 40
0.0059055
 41
0.0059055
  0
VERTEX
  8
0
 10
7.12597
 20
0.528537
 30
0.0
 40
0.0059055
 41
0.0059055
  0
VERTEX
  8
0
 10
7.11757
 20
0.531304
 30
0.0
 40
0.0059055
 41
0.0059055
  0
VERTEX
  8
0
 10
7.11199
 20
0.536893
 30
0.0
 40
0.0059055
 41
0.0059055
  0
VERTEX
  8
0
 10
7.1091
 20
0.542535
 30
0.0
 40
0.0059055
 41
0.0059055
  0
VERTEX
  8
0
 10
7.10628
 20
0.553819
 30
0.0
 40
0.0059055
 41
0.0059055
  0
VERTEX
  8
0
 10
7.10628
 20
0.562229
 30
0.0
 40
0.0059055
 41
0.0059055
  0
VERTEX
  8
0
 10
7.1091
 20
0.573406
 30
0.0
 40
0.0059055
 41
0.0059055
  0
VERTEX
  8
0
 10
7.11199
 20
0.579101
 30
0.0
 40
0.0059055
 41
0.0059055
  0
VERTEX
  8
0
 10
7.11757
 20
0.584744
 30
0.0
 40
0.0059055
 41
0.0059055
  0
VERTEX
  8
0
 10
7.12597
 20
0.587511
 30
0.0
 40
0.0059055
 41
0.0059055
  0
VERTEX
  8
0
 10
7.13162
 20
0.587511
 30
0.0
 40
0.0059055
 41
0.0059055
  0
VERTEX
  8
0
 10
7.14008
 20
0.584744
 30
0.0
 40
0.0059055
 41
0.0059055
  0
VERTEX
  8
0
 10
7.1429
 20
0.581922
 30
0.0
 40
0.0059055
 41
0.0059055
  0
SEQEND
 8
0
  0
POLYLINE
  8
0
 62
     0
 66
     1
 10
0
 20
0
 30
0.0
 40
0.425196
 41
0.425196
  0
VERTEX
  8
0
 10
7.19347
 20
0.528537
 30
0.0
 40
0.0059055
 41
0.0059055
  0
VERTEX
  8
0
 10
7.19347
 20
0.559353
 30
0.0
 40
0.0059055
 41
0.0059055
  0
VERTEX
  8
0
 10
7.19069
 20
0.564996
 30
0.0
 40
0.0059055
 41
0.0059055
  0
VERTEX
  8
0
 10
7.18511
 20
0.567817
 30
0.0
 40
0.0059055
 41
0.0059055
  0
VERTEX
  8
0
 10
7.17378
 20
0.567817
 30
0.0
 40
0.0059055
 41
0.0059055
  0
VERTEX
  8
0
 10
7.16818
 20
0.564996
 30
0.0
 40
0.0059055
 41
0.0059055
  0
SEQEND
 8
0
  0
POLYLINE
  8
0
 62
     0
 66
     1
 10
0
 20
0
 30
0.0
 40
0.425196
 41
0.425196
  0
VERTEX
  8
0
 10
7.19347
 20
0.531304
 30
0.0
 40
0.0059055
 41
0.0059055
  0
VERTEX
  8
0
 10
7.18787
 20
0.528537
 30
0.0
 40
0.0059055
 41
0.0059055
  0
VERTEX
  8
0
 10
7.17378
 20
0.528537
 30
0.0
 40
0.0059055
 41
0.0059055
  0
VERTEX
  8
0
 10
7.16818
 20
0.531304
 30
0.0
 40
0.0059055
 41
0.0059055
  0
VERTEX
  8
0
 10
7.16542
 20
0.536893
 30
0.0
 40
0.0059055
 41
0.0059055
  0
VERTEX
  8
0
 10
7.16542
 20
0.542535
 30
0.0
 40
0.0059055
 41
0.0059055
  0
VERTEX
  8
0
 10
7.16818
 20
0.548122
 30
0.0
 40
0.0059055
 41
0.0059055
  0
VERTEX
  8
0
 10
7.17378
 20
0.550944
 30
0.0
 40
0.0059055
 41
0.0059055
  0
VERTEX
  8
0
 10
7.18787
 20
0.550944
 30
0.0
 40
0.0059055
 41
0.0059055
  0
VERTEX
  8
0
 10
7.19347
 20
0.553819
 30
0.0
 40
0.0059055
 41
0.0059055
  0
SEQEND
 8
0
  0
POLYLINE
  8
0
 62
     0
 66
     1
 10
0
 20
0
 30
0.0
 40
0.425196
 41
0.425196
  0
VERTEX
  8
0
 10
7.2469
 20
0.528537
 30
0.0
 40
0.0059055
 41
0.0059055
  0
VERTEX
  8
0
 10
7.2469
 20
0.587511
 30
0.0
 40
0.0059055
 41
0.0059055
  0
SEQEND
 8
0
  0
POLYLINE
  8
0
 62
     0
 66
     1
 10
0
 20
0
 30
0.0
 40
0.425196
 41
0.425196
  0
VERTEX
  8
0
 10
7.2469
 20
0.531304
 30
0.0
 40
0.0059055
 41
0.0059055
  0
VERTEX
  8
0
 10
7.24132
 20
0.528537
 30
0.0
 40
0.0059055
 41
0.0059055
  0
VERTEX
  8
0
 10
7.23008
 20
0.528537
 30
0.0
 40
0.0059055
 41
0.0059055
  0
VERTEX
  8
0
 10
7.22439
 20
0.531304
 30
0.0
 40
0.0059055
 41
0.0059055
  0
VERTEX
  8
0
 10
7.22157
 20
0.534125
 30
0.0
 40
0.0059055
 41
0.0059055
  0
VERTEX
  8
0
 10
7.21881
 20
0.53966
 30
0.0
 40
0.0059055
 41
0.0059055
  0
VERTEX
  8
0
 10
7.21881
 20
0.55664
 30
0.0
 40
0.0059055
 41
0.0059055
  0
VERTEX
  8
0
 10
7.22157
 20
0.562229
 30
0.0
 40
0.0059055
 41
0.0059055
  0
VERTEX
  8
0
 10
7.22439
 20
0.564996
 30
0.0
 40
0.0059055
 41
0.0059055
  0
VERTEX
  8
0
 10
7.23008
 20
0.567817
 30
0.0
 40
0.0059055
 41
0.0059055
  0
VERTEX
  8
0
 10
7.24132
 20
0.567817
 30
0.0
 40
0.0059055
 41
0.0059055
  0
VERTEX
  8
0
 10
7.2469
 20
0.564996
 30
0.0
 40
0.0059055
 41
0.0059055
  0
SEQEND
 8
0
  0
POLYLINE
  8
0
 62
     0
 66
     1
 10
0
 20
0
 30
0.0
 40
0.425196
 41
0.425196
  0
VERTEX
  8
0
 10
7.3201
 20
0.559353
 30
0.0
 40
0.0059055
 41
0.0059055
  0
VERTEX
  8
0
 10
7.33968
 20
0.559353
 30
0.0
 40
0.0059055
 41
0.0059055
  0
SEQEND
 8
0
  0
POLYLINE
  8
0
 62
     0
 66
     1
 10
0
 20
0
 30
0.0
 40
0.425196
 41
0.425196
  0
VERTEX
  8
0
 10
7.34819
 20
0.528537
 30
0.0
 40
0.0059055
 41
0.0059055
  0
VERTEX
  8
0
 10
7.3201
 20
0.528537
 30
0.0
 40
0.0059055
 41
0.0059055
  0
VERTEX
  8
0
 10
7.3201
 20
0.587511
 30
0.0
 40
0.0059055
 41
0.0059055
  0
VERTEX
  8
0
 10
7.34819
 20
0.587511
 30
0.0
 40
0.0059055
 41
0.0059055
  0
SEQEND
 8
0
  0
POLYLINE
  8
0
 62
     0
 66
     1
 10
0
 20
0
 30
0.0
 40
0.425196
 41
0.425196
  0
VERTEX
  8
0
 10
7.37349
 20
0.534125
 30
0.0
 40
0.0059055
 41
0.0059055
  0
VERTEX
  8
0
 10
7.37631
 20
0.531304
 30
0.0
 40
0.0059055
 41
0.0059055
  0
VERTEX
  8
0
 10
7.37349
 20
0.528537
 30
0.0
 40
0.0059055
 41
0.0059055
  0
VERTEX
  8
0
 10
7.37071
 20
0.531304
 30
0.0
 40
0.0059055
 41
0.0059055
  0
VERTEX
  8
0
 10
7.37349
 20
0.534125
 30
0.0
 40
0.0059055
 41
0.0059055
  0
VERTEX
  8
0
 10
7.37349
 20
0.528537
 30
0.0
 40
0.0059055
 41
0.0059055
  0
SEQEND
 8
0
  0
POLYLINE
  8
0
 62
     0
 66
     1
 10
0
 20
0
 30
0.0
 70
     1
 40
0.425196
 41
0.425196
  0
VERTEX
  8
0
 10
7.40158
 20
0.528537
 30
0.0
 40
0.0059055
 41
0.0059055
  0
VERTEX
  8
0
 10
7.40158
 20
0.587511
 30
0.0
 40
0.0059055
 41
0.0059055
  0
VERTEX
  8
0
 10
7.41569
 20
0.587511
 30
0.0
 40
0.0059055
 41
0.0059055
  0
VERTEX
  8
0
 10
7.4241
 20
0.584744
 30
0.0
 40
0.0059055
 41
0.0059055
  0
VERTEX
  8
0
 10
7.42969
 20
0.579101
 30
0.0
 40
0.0059055
 41
0.0059055
  0
VERTEX
  8
0
 10
7.43251
 20
0.573406
 30
0.0
 40
0.0059055
 41
0.0059055
  0
VERTEX
  8
0
 10
7.43539
 20
0.562229
 30
0.0
 40
0.0059055
 41
0.0059055
  0
VERTEX
  8
0
 10
7.43539
 20
0.553819
 30
0.0
 40
0.0059055
 41
0.0059055
  0
VERTEX
  8
0
 10
7.43251
 20
0.542535
 30
0.0
 40
0.0059055
 41
0.0059055
  0
VERTEX
  8
0
 10
7.42969
 20
0.536893
 30
0.0
 40
0.0059055
 41
0.0059055
  0
VERTEX
  8
0
 10
7.4241
 20
0.531304
 30
0.0
 40
0.0059055
 41
0.0059055
  0
VERTEX
  8
0
 10
7.41569
 20
0.528537
 30
0.0
 40
0.0059055
 41
0.0059055
  0
VERTEX
  8
0
 10
7.40158
 20
0.528537
 30
0.0
 40
0.0059055
 41
0.0059055
  0
SEQEND
 8
0
  0
POLYLINE
  8
0
 62
     0
 66
     1
 10
0
 20
0
 30
0.0
 40
0.425196
 41
0.425196
  0
VERTEX
  8
0
 10
7.46072
 20
0.534125
 30
0.0
 40
0.0059055
 41
0.0059055
  0
VERTEX
  8
0
 10
7.46349
 20
0.531304
 30
0.0
 40
0.0059055
 41
0.0059055
  0
VERTEX
  8
0
 10
7.46072
 20
0.528537
 30
0.0
 40
0.0059055
 41
0.0059055
  0
VERTEX
  8
0
 10
7.4579
 20
0.531304
 30
0.0
 40
0.0059055
 41
0.0059055
  0
VERTEX
  8
0
 10
7.46072
 20
0.534125
 30
0.0
 40
0.0059055
 41
0.0059055
  0
VERTEX
  8
0
 10
7.46072
 20
0.528537
 30
0.0
 40
0.0059055
 41
0.0059055
  0
SEQEND
 8
0
  0
POLYLINE
  8
0
 62
     0
 66
     1
 10
0
 20
0
 30
0.0
 40
0.425196
 41
0.425196
  0
VERTEX
  8
0
 10
7.486
 20
0.545301
 30
0.0
 40
0.0059055
 41
0.0059055
  0
VERTEX
  8
0
 10
7.51411
 20
0.545301
 30
0.0
 40
0.0059055
 41
0.0059055
  0
SEQEND
 8
0
  0
POLYLINE
  8
0
 62
     0
 66
     1
 10
0
 20
0
 30
0.0
 40
0.425196
 41
0.425196
  0
VERTEX
  8
0
 10
7.48042
 20
0.528537
 30
0.0
 40
0.0059055
 41
0.0059055
  0
VERTEX
  8
0
 10
7.5
 20
0.587511
 30
0.0
 40
0.0059055
 41
0.0059055
  0
VERTEX
  8
0
 10
7.51969
 20
0.528537
 30
0.0
 40
0.0059055
 41
0.0059055
  0
SEQEND
 8
0
  0
POLYLINE
  8
0
 62
     0
 66
     1
 10
0
 20
0
 30
0.0
 40
0.425196
 41
0.425196
  0
VERTEX
  8
0
 10
7.53939
 20
0.534125
 30
0.0
 40
0.0059055
 41
0.0059055
  0
VERTEX
  8
0
 10
7.54221
 20
0.531304
 30
0.0
 40
0.0059055
 41
0.0059055
  0
VERTEX
  8
0
 10
7.53939
 20
0.528537
 30
0.0
 40
0.0059055
 41
0.0059055
  0
VERTEX
  8
0
 10
7.53657
 20
0.531304
 30
0.0
 40
0.0059055
 41
0.0059055
  0
VERTEX
  8
0
 10
7.53939
 20
0.534125
 30
0.0
 40
0.0059055
 41
0.0059055
  0
VERTEX
  8
0
 10
7.53939
 20
0.528537
 30
0.0
 40
0.0059055
 41
0.0059055
  0
SEQEND
 8
0
  0
POLYLINE
  8
0
 62
     0
 66
     1
 10
0
 20
0
 30
0.0
 40
0.425196
 41
0.425196
  0
VERTEX
  8
0
 10
7.6575
 20
0.567817
 30
0.0
 40
0.0059055
 41
0.0059055
  0
VERTEX
  8
0
 10
7.6575
 20
0.508843
 30
0.0
 40
0.0059055
 41
0.0059055
  0
SEQEND
 8
0
  0
POLYLINE
  8
0
 62
     0
 66
     1
 10
0
 20
0
 30
0.0
 40
0.425196
 41
0.425196
  0
VERTEX
  8
0
 10
7.6575
 20
0.564996
 30
0.0
 40
0.0059055
 41
0.0059055
  0
VERTEX
  8
0
 10
7.66308
 20
0.567817
 30
0.0
 40
0.0059055
 41
0.0059055
  0
VERTEX
  8
0
 10
7.67437
 20
0.567817
 30
0.0
 40
0.0059055
 41
0.0059055
  0
VERTEX
  8
0
 10
7.68001
 20
0.564996
 30
0.0
 40
0.0059055
 41
0.0059055
  0
VERTEX
  8
0
 10
7.68278
 20
0.562229
 30
0.0
 40
0.0059055
 41
0.0059055
  0
VERTEX
  8
0
 10
7.6856
 20
0.55664
 30
0.0
 40
0.0059055
 41
0.0059055
  0
VERTEX
  8
0
 10
7.6856
 20
0.53966
 30
0.0
 40
0.0059055
 41
0.0059055
  0
VERTEX
  8
0
 10
7.68278
 20
0.534125
 30
0.0
 40
0.0059055
 41
0.0059055
  0
VERTEX
  8
0
 10
7.68001
 20
0.531304
 30
0.0
 40
0.0059055
 41
0.0059055
  0
VERTEX
  8
0
 10
7.67437
 20
0.528537
 30
0.0
 40
0.0059055
 41
0.0059055
  0
VERTEX
  8
0
 10
7.66308
 20
0.528537
 30
0.0
 40
0.0059055
 41
0.0059055
  0
VERTEX
  8
0
 10
7.6575
 20
0.531304
 30
0.0
 40
0.0059055
 41
0.0059055
  0
SEQEND
 8
0
  0
POLYLINE
  8
0
 62
     0
 66
     1
 10
0
 20
0
 30
0.0
 40
0.425196
 41
0.425196
  0
VERTEX
  8
0
 10
7.73628
 20
0.531304
 30
0.0
 40
0.0059055
 41
0.0059055
  0
VERTEX
  8
0
 10
7.73058
 20
0.528537
 30
0.0
 40
0.0059055
 41
0.0059055
  0
VERTEX
  8
0
 10
7.7194
 20
0.528537
 30
0.0
 40
0.0059055
 41
0.0059055
  0
VERTEX
  8
0
 10
7.71382
 20
0.531304
 30
0.0
 40
0.0059055
 41
0.0059055
  0
VERTEX
  8
0
 10
7.71089
 20
0.534125
 30
0.0
 40
0.0059055
 41
0.0059055
  0
VERTEX
  8
0
 10
7.70811
 20
0.53966
 30
0.0
 40
0.0059055
 41
0.0059055
  0
VERTEX
  8
0
 10
7.70811
 20
0.55664
 30
0.0
 40
0.0059055
 41
0.0059055
  0
VERTEX
  8
0
 10
7.71089
 20
0.562229
 30
0.0
 40
0.0059055
 41
0.0059055
  0
VERTEX
  8
0
 10
7.71382
 20
0.564996
 30
0.0
 40
0.0059055
 41
0.0059055
  0
VERTEX
  8
0
 10
7.7194
 20
0.567817
 30
0.0
 40
0.0059055
 41
0.0059055
  0
VERTEX
  8
0
 10
7.73058
 20
0.567817
 30
0.0
 40
0.0059055
 41
0.0059055
  0
VERTEX
  8
0
 10
7.73628
 20
0.564996
 30
0.0
 40
0.0059055
 41
0.0059055
  0
SEQEND
 8
0
  0
POLYLINE
  8
0
 62
     0
 66
     1
 10
0
 20
0
 30
0.0
 40
0.425196
 41
0.425196
  0
VERTEX
  8
0
 10
7.76161
 20
0.528537
 30
0.0
 40
0.0059055
 41
0.0059055
  0
VERTEX
  8
0
 10
7.76161
 20
0.587511
 30
0.0
 40
0.0059055
 41
0.0059055
  0
SEQEND
 8
0
  0
POLYLINE
  8
0
 62
     0
 66
     1
 10
0
 20
0
 30
0.0
 40
0.425196
 41
0.425196
  0
VERTEX
  8
0
 10
7.76161
 20
0.564996
 30
0.0
 40
0.0059055
 41
0.0059055
  0
VERTEX
  8
0
 10
7.76719
 20
0.567817
 30
0.0
 40
0.0059055
 41
0.0059055
  0
VERTEX
  8
0
 10
7.77838
 20
0.567817
 30
0.0
 40
0.0059055
 41
0.0059055
  0
VERTEX
  8
0
 10
7.78407
 20
0.564996
 30
0.0
 40
0.0059055
 41
0.0059055
  0
VERTEX
  8
0
 10
7.78689
 20
0.562229
 30
0.0
 40
0.0059055
 41
0.0059055
  0
VERTEX
  8
0
 10
7.78971
 20
0.55664
 30
0.0
 40
0.0059055
 41
0.0059055
  0
VERTEX
  8
0
 10
7.78971
 20
0.53966
 30
0.0
 40
0.0059055
 41
0.0059055
  0
VERTEX
  8
0
 10
7.78689
 20
0.534125
 30
0.0
 40
0.0059055
 41
0.0059055
  0
VERTEX
  8
0
 10
7.78407
 20
0.531304
 30
0.0
 40
0.0059055
 41
0.0059055
  0
VERTEX
  8
0
 10
7.77838
 20
0.528537
 30
0.0
 40
0.0059055
 41
0.0059055
  0
VERTEX
  8
0
 10
7.76719
 20
0.528537
 30
0.0
 40
0.0059055
 41
0.0059055
  0
VERTEX
  8
0
 10
7.76161
 20
0.531304
 30
0.0
 40
0.0059055
 41
0.0059055
  0
SEQEND
 8
0
  0
POLYLINE
  8
0
 62
     0
 66
     1
 10
0
 20
0
 30
0.0
 40
0.425196
 41
0.425196
  0
VERTEX
  8
0
 10
7.815
 20
0.567817
 30
0.0
 40
0.0059055
 41
0.0059055
  0
VERTEX
  8
0
 10
7.815
 20
0.528537
 30
0.0
 40
0.0059055
 41
0.0059055
  0
SEQEND
 8
0
  0
POLYLINE
  8
0
 62
     0
 66
     1
 10
0
 20
0
 30
0.0
 40
0.425196
 41
0.425196
  0
VERTEX
  8
0
 10
7.815
 20
0.562229
 30
0.0
 40
0.0059055
 41
0.0059055
  0
VERTEX
  8
0
 10
7.81782
 20
0.564996
 30
0.0
 40
0.0059055
 41
0.0059055
  0
VERTEX
  8
0
 10
7.8234
 20
0.567817
 30
0.0
 40
0.0059055
 41
0.0059055
  0
VERTEX
  8
0
 10
7.83188
 20
0.567817
 30
0.0
 40
0.0059055
 41
0.0059055
  0
VERTEX
  8
0
 10
7.83751
 20
0.564996
 30
0.0
 40
0.0059055
 41
0.0059055
  0
VERTEX
  8
0
 10
7.84028
 20
0.559353
 30
0.0
 40
0.0059055
 41
0.0059055
  0
VERTEX
  8
0
 10
7.84028
 20
0.528537
 30
0.0
 40
0.0059055
 41
0.0059055
  0
SEQEND
 8
0
  0
POLYLINE
  8
0
 62
     0
 66
     1
 10
0
 20
0
 30
0.0
 40
0.425196
 41
0.425196
  0
VERTEX
  8
0
 10
7.8909
 20
0.531304
 30
0.0
 40
0.0059055
 41
0.0059055
  0
VERTEX
  8
0
 10
7.88531
 20
0.528537
 30
0.0
 40
0.0059055
 41
0.0059055
  0
VERTEX
  8
0
 10
7.87408
 20
0.528537
 30
0.0
 40
0.0059055
 41
0.0059055
  0
VERTEX
  8
0
 10
7.86838
 20
0.531304
 30
0.0
 40
0.0059055
 41
0.0059055
  0
VERTEX
  8
0
 10
7.86561
 20
0.536893
 30
0.0
 40
0.0059055
 41
0.0059055
  0
VERTEX
  8
0
 10
7.86561
 20
0.559353
 30
0.0
 40
0.0059055
 41
0.0059055
  0
VERTEX
  8
0
 10
7.86838
 20
0.564996
 30
0.0
 40
0.0059055
 41
0.0059055
  0
VERTEX
  8
0
 10
7.87408
 20
0.567817
 30
0.0
 40
0.0059055
 41
0.0059055
  0
VERTEX
  8
0
 10
7.88531
 20
0.567817
 30
0.0
 40
0.0059055
 41
0.0059055
  0
VERTEX
  8
0
 10
7.8909
 20
0.564996
 30
0.0
 40
0.0059055
 41
0.0059055
  0
VERTEX
  8
0
 10
7.89372
 20
0.559353
 30
0.0
 40
0.0059055
 41
0.0059055
  0
VERTEX
  8
0
 10
7.89372
 20
0.553819
 30
0.0
 40
0.0059055
 41
0.0059055
  0
VERTEX
  8
0
 10
7.86561
 20
0.548122
 30
0.0
 40
0.0059055
 41
0.0059055
  0
SEQEND
 8
0
  0
POLYLINE
  8
0
 62
     0
 66
     1
 10
0
 20
0
 30
0.0
 40
0.425196
 41
0.425196
  0
VERTEX
  8
0
 10
7.91342
 20
0.567817
 30
0.0
 40
0.0059055
 41
0.0059055
  0
VERTEX
  8
0
 10
7.92469
 20
0.528537
 30
0.0
 40
0.0059055
 41
0.0059055
  0
VERTEX
  8
0
 10
7.93587
 20
0.55664
 30
0.0
 40
0.0059055
 41
0.0059055
  0
VERTEX
  8
0
 10
7.94721
 20
0.528537
 30
0.0
 40
0.0059055
 41
0.0059055
  0
VERTEX
  8
0
 10
7.95839
 20
0.567817
 30
0.0
 40
0.0059055
 41
0.0059055
  0
SEQEND
 8
0
  0
POLYLINE
  8
0
 62
     0
 66
     1
 10
0
 20
0
 30
0.0
 40
0.425196
 41
0.425196
  0
VERTEX
  8
0
 10
8.05122
 20
0.567817
 30
0.0
 40
0.0059055
 41
0.0059055
  0
VERTEX
  8
0
 10
8.05122
 20
0.528537
 30
0.0
 40
0.0059055
 41
0.0059055
  0
SEQEND
 8
0
  0
POLYLINE
  8
0
 62
     0
 66
     1
 10
0
 20
0
 30
0.0
 40
0.425196
 41
0.425196
  0
VERTEX
  8
0
 10
8.03722
 20
0.590332
 30
0.0
 40
0.0059055
 41
0.0059055
  0
VERTEX
  8
0
 10
8.02311
 20
0.548122
 30
0.0
 40
0.0059055
 41
0.0059055
  0
VERTEX
  8
0
 10
8.05968
 20
0.548122
 30
0.0
 40
0.0059055
 41
0.0059055
  0
SEQEND
 8
0
  0
POLYLINE
  8
0
 62
     0
 66
     1
 10
0
 20
0
 30
0.0
 40
0.425196
 41
0.425196
  0
VERTEX
  8
0
 10
8.08219
 20
0.534125
 30
0.0
 40
0.0059055
 41
0.0059055
  0
VERTEX
  8
0
 10
8.08501
 20
0.531304
 30
0.0
 40
0.0059055
 41
0.0059055
  0
VERTEX
  8
0
 10
8.08219
 20
0.528537
 30
0.0
 40
0.0059055
 41
0.0059055
  0
VERTEX
  8
0
 10
8.07932
 20
0.531304
 30
0.0
 40
0.0059055
 41
0.0059055
  0
VERTEX
  8
0
 10
8.08219
 20
0.534125
 30
0.0
 40
0.0059055
 41
0.0059055
  0
VERTEX
  8
0
 10
8.08219
 20
0.528537
 30
0.0
 40
0.0059055
 41
0.0059055
  0
SEQEND
 8
0
  0
POLYLINE
  8
0
 62
     0
 66
     1
 10
0
 20
0
 30
0.0
 70
     1
 40
0.425196
 41
0.425196
  0
VERTEX
  8
0
 10
8.12147
 20
0.587511
 30
0.0
 40
0.0059055
 41
0.0059055
  0
VERTEX
  8
0
 10
8.12711
 20
0.587511
 30
0.0
 40
0.0059055
 41
0.0059055
  0
VERTEX
  8
0
 10
8.13282
 20
0.584744
 30
0.0
 40
0.0059055
 41
0.0059055
  0
VERTEX
  8
0
 10
8.13558
 20
0.581922
 30
0.0
 40
0.0059055
 41
0.0059055
  0
VERTEX
  8
0
 10
8.1384
 20
0.576335
 30
0.0
 40
0.0059055
 41
0.0059055
  0
VERTEX
  8
0
 10
8.14117
 20
0.564996
 30
0.0
 40
0.0059055
 41
0.0059055
  0
VERTEX
  8
0
 10
8.14117
 20
0.550944
 30
0.0
 40
0.0059055
 41
0.0059055
  0
VERTEX
  8
0
 10
8.1384
 20
0.53966
 30
0.0
 40
0.0059055
 41
0.0059055
  0
VERTEX
  8
0
 10
8.13558
 20
0.534125
 30
0.0
 40
0.0059055
 41
0.0059055
  0
VERTEX
  8
0
 10
8.13282
 20
0.531304
 30
0.0
 40
0.0059055
 41
0.0059055
  0
VERTEX
  8
0
 10
8.12711
 20
0.528537
 30
0.0
 40
0.0059055
 41
0.0059055
  0
VERTEX
  8
0
 10
8.12147
 20
0.528537
 30
0.0
 40
0.0059055
 41
0.0059055
  0
VERTEX
  8
0
 10
8.11589
 20
0.531304
 30
0.0
 40
0.0059055
 41
0.0059055
  0
VERTEX
  8
0
 10
8.11313
 20
0.534125
 30
0.0
 40
0.0059055
 41
0.0059055
  0
VERTEX
  8
0
 10
8.11029
 20
0.53966
 30
0.0
 40
0.0059055
 41
0.0059055
  0
VERTEX
  8
0
 10
8.10747
 20
0.550944
 30
0.0
 40
0.0059055
 41
0.0059055
  0
VERTEX
  8
0
 10
8.10747
 20
0.564996
 30
0.0
 40
0.0059055
 41
0.0059055
  0
VERTEX
  8
0
 10
8.11029
 20
0.576335
 30
0.0
 40
0.0059055
 41
0.0059055
  0
VERTEX
  8
0
 10
8.11313
 20
0.581922
 30
0.0
 40
0.0059055
 41
0.0059055
  0
VERTEX
  8
0
 10
8.11589
 20
0.584744
 30
0.0
 40
0.0059055
 41
0.0059055
  0
VERTEX
  8
0
 10
8.12147
 20
0.587511
 30
0.0
 40
0.0059055
 41
0.0059055
  0
SEQEND
 8
0
  0
POLYLINE
  8
0
 62
     0
 66
     1
 10
0
 20
0
 30
0.0
 40
0.425196
 41
0.425196
  0
VERTEX
  8
0
 10
8.1665
 20
0.534125
 30
0.0
 40
0.0059055
 41
0.0059055
  0
VERTEX
  8
0
 10
8.16928
 20
0.531304
 30
0.0
 40
0.0059055
 41
0.0059055
  0
VERTEX
  8
0
 10
8.1665
 20
0.528537
 30
0.0
 40
0.0059055
 41
0.0059055
  0
VERTEX
  8
0
 10
8.16368
 20
0.531304
 30
0.0
 40
0.0059055
 41
0.0059055
  0
VERTEX
  8
0
 10
8.1665
 20
0.534125
 30
0.0
 40
0.0059055
 41
0.0059055
  0
VERTEX
  8
0
 10
8.1665
 20
0.528537
 30
0.0
 40
0.0059055
 41
0.0059055
  0
SEQEND
 8
0
  0
POLYLINE
  8
0
 62
     0
 66
     1
 10
0
 20
0
 30
0.0
 40
0.425196
 41
0.425196
  0
VERTEX
  8
0
 10
8.21989
 20
0.587511
 30
0.0
 40
0.0059055
 41
0.0059055
  0
VERTEX
  8
0
 10
8.20871
 20
0.587511
 30
0.0
 40
0.0059055
 41
0.0059055
  0
VERTEX
  8
0
 10
8.20307
 20
0.584744
 30
0.0
 40
0.0059055
 41
0.0059055
  0
VERTEX
  8
0
 10
8.20031
 20
0.581922
 30
0.0
 40
0.0059055
 41
0.0059055
  0
VERTEX
  8
0
 10
8.19461
 20
0.573406
 30
0.0
 40
0.0059055
 41
0.0059055
  0
VERTEX
  8
0
 10
8.19179
 20
0.562229
 30
0.0
 40
0.0059055
 41
0.0059055
  0
VERTEX
  8
0
 10
8.19179
 20
0.53966
 30
0.0
 40
0.0059055
 41
0.0059055
  0
VERTEX
  8
0
 10
8.19461
 20
0.534125
 30
0.0
 40
0.0059055
 41
0.0059055
  0
VERTEX
  8
0
 10
8.19738
 20
0.531304
 30
0.0
 40
0.0059055
 41
0.0059055
  0
VERTEX
  8
0
 10
8.20307
 20
0.528537
 30
0.0
 40
0.0059055
 41
0.0059055
  0
VERTEX
  8
0
 10
8.21431
 20
0.528537
 30
0.0
 40
0.0059055
 41
0.0059055
  0
VERTEX
  8
0
 10
8.21989
 20
0.531304
 30
0.0
 40
0.0059055
 41
0.0059055
  0
VERTEX
  8
0
 10
8.22282
 20
0.534125
 30
0.0
 40
0.0059055
 41
0.0059055
  0
VERTEX
  8
0
 10
8.22558
 20
0.53966
 30
0.0
 40
0.0059055
 41
0.0059055
  0
VERTEX
  8
0
 10
8.22558
 20
0.553819
 30
0.0
 40
0.0059055
 41
0.0059055
  0
VERTEX
  8
0
 10
8.22282
 20
0.559353
 30
0.0
 40
0.0059055
 41
0.0059055
  0
VERTEX
  8
0
 10
8.21989
 20
0.562229
 30
0.0
 40
0.0059055
 41
0.0059055
  0
VERTEX
  8
0
 10
8.21431
 20
0.564996
 30
0.0
 40
0.0059055
 41
0.0059055
  0
VERTEX
  8
0
 10
8.20307
 20
0.564996
 30
0.0
 40
0.0059055
 41
0.0059055
  0
VERTEX
  8
0
 10
8.19738
 20
0.562229
 30
0.0
 40
0.0059055
 41
0.0059055
  0
VERTEX
  8
0
 10
8.19461
 20
0.559353
 30
0.0
 40
0.0059055
 41
0.0059055
  0
VERTEX
  8
0
 10
8.19179
 20
0.553819
 30
0.0
 40
0.0059055
 41
0.0059055
  0
SEQEND
 8
0
  0
POLYLINE
  8
0
 62
     0
 66
     1
 10
0
 20
0
 30
0.0
 40
0.425196
 41
0.425196
  0
VERTEX
  8
0
 10
6.96847
 20
0.728407
 30
0.0
 40
0.0059055
 41
0.0059055
  0
VERTEX
  8
0
 10
11.2205
 20
0.728407
 30
0.0
 40
0.0059055
 41
0.0059055
  0
SEQEND
 8
0
  0
POLYLINE
  8
0
 62
     0
 66
     1
 10
0
 20
0
 30
0.0
 40
0.850391
 41
0.850391
  0
VERTEX
  8
0
 10
10.4022
 20
0.638726
 30
0.0
 40
0.011811
 41
0.011811
  0
VERTEX
  8
0
 10
10.3825
 20
0.666829
 30
0.0
 40
0.011811
 41
0.011811
  0
SEQEND
 8
0
  0
POLYLINE
  8
0
 62
     0
 66
     1
 10
0
 20
0
 30
0.0
 40
0.850391
 41
0.850391
  0
VERTEX
  8
0
 10
10.3684
 20
0.638726
 30
0.0
 40
0.011811
 41
0.011811
  0
VERTEX
  8
0
 10
10.3684
 20
0.6977
 30
0.0
 40
0.011811
 41
0.011811
  0
VERTEX
  8
0
 10
10.3909
 20
0.6977
 30
0.0
 40
0.011811
 41
0.011811
  0
VERTEX
  8
0
 10
10.3965
 20
0.694933
 30
0.0
 40
0.011811
 41
0.011811
  0
VERTEX
  8
0
 10
10.3994
 20
0.692111
 30
0.0
 40
0.011811
 41
0.011811
  0
VERTEX
  8
0
 10
10.4022
 20
0.686524
 30
0.0
 40
0.011811
 41
0.011811
  0
VERTEX
  8
0
 10
10.4022
 20
0.678114
 30
0.0
 40
0.011811
 41
0.011811
  0
VERTEX
  8
0
 10
10.3994
 20
0.672418
 30
0.0
 40
0.011811
 41
0.011811
  0
VERTEX
  8
0
 10
10.3965
 20
0.669596
 30
0.0
 40
0.011811
 41
0.011811
  0
VERTEX
  8
0
 10
10.3909
 20
0.666829
 30
0.0
 40
0.011811
 41
0.011811
  0
VERTEX
  8
0
 10
10.3684
 20
0.666829
 30
0.0
 40
0.011811
 41
0.011811
  0
SEQEND
 8
0
  0
POLYLINE
  8
0
 62
     0
 66
     1
 10
0
 20
0
 30
0.0
 40
0.850391
 41
0.850391
  0
VERTEX
  8
0
 10
10.45
 20
0.641493
 30
0.0
 40
0.011811
 41
0.011811
  0
VERTEX
  8
0
 10
10.4444
 20
0.638726
 30
0.0
 40
0.011811
 41
0.011811
  0
VERTEX
  8
0
 10
10.4331
 20
0.638726
 30
0.0
 40
0.011811
 41
0.011811
  0
VERTEX
  8
0
 10
10.4275
 20
0.641493
 30
0.0
 40
0.011811
 41
0.011811
  0
VERTEX
  8
0
 10
10.4247
 20
0.647136
 30
0.0
 40
0.011811
 41
0.011811
  0
VERTEX
  8
0
 10
10.4247
 20
0.669596
 30
0.0
 40
0.011811
 41
0.011811
  0
VERTEX
  8
0
 10
10.4275
 20
0.675239
 30
0.0
 40
0.011811
 41
0.011811
  0
VERTEX
  8
0
 10
10.4331
 20
0.678114
 30
0.0
 40
0.011811
 41
0.011811
  0
VERTEX
  8
0
 10
10.4444
 20
0.678114
 30
0.0
 40
0.011811
 41
0.011811
  0
VERTEX
  8
0
 10
10.45
 20
0.675239
 30
0.0
 40
0.011811
 41
0.011811
  0
VERTEX
  8
0
 10
10.4528
 20
0.669596
 30
0.0
 40
0.011811
 41
0.011811
  0
VERTEX
  8
0
 10
10.4528
 20
0.664008
 30
0.0
 40
0.011811
 41
0.011811
  0
VERTEX
  8
0
 10
10.4247
 20
0.658421
 30
0.0
 40
0.011811
 41
0.011811
  0
SEQEND
 8
0
  0
POLYLINE
  8
0
 62
     0
 66
     1
 10
0
 20
0
 30
0.0
 40
0.850391
 41
0.850391
  0
VERTEX
  8
0
 10
10.4725
 20
0.678114
 30
0.0
 40
0.011811
 41
0.011811
  0
VERTEX
  8
0
 10
10.4865
 20
0.638726
 30
0.0
 40
0.011811
 41
0.011811
  0
VERTEX
  8
0
 10
10.5006
 20
0.678114
 30
0.0
 40
0.011811
 41
0.011811
  0
SEQEND
 8
0
  0
POLYLINE
  8
0
 62
     0
 66
     1
 10
0
 20
0
 30
0.0
 40
0.850391
 41
0.850391
  0
VERTEX
  8
0
 10
10.5231
 20
0.644314
 30
0.0
 40
0.011811
 41
0.011811
  0
VERTEX
  8
0
 10
10.5259
 20
0.641493
 30
0.0
 40
0.011811
 41
0.011811
  0
VERTEX
  8
0
 10
10.5231
 20
0.638726
 30
0.0
 40
0.011811
 41
0.011811
  0
VERTEX
  8
0
 10
10.5203
 20
0.641493
 30
0.0
 40
0.011811
 41
0.011811
  0
VERTEX
  8
0
 10
10.5231
 20
0.644314
 30
0.0
 40
0.011811
 41
0.011811
  0
VERTEX
  8
0
 10
10.5231
 20
0.638726
 30
0.0
 40
0.011811
 41
0.011811
  0
SEQEND
 8
0
  0
POLYLINE
  8
0
 62
     0
 66
     1
 10
0
 20
0
 30
0.0
 40
0.850391
 41
0.850391
  0
VERTEX
  8
0
 10
10.5231
 20
0.675239
 30
0.0
 40
0.011811
 41
0.011811
  0
VERTEX
  8
0
 10
10.5259
 20
0.672418
 30
0.0
 40
0.011811
 41
0.011811
  0
VERTEX
  8
0
 10
10.5231
 20
0.669596
 30
0.0
 40
0.011811
 41
0.011811
  0
VERTEX
  8
0
 10
10.5203
 20
0.672418
 30
0.0
 40
0.011811
 41
0.011811
  0
VERTEX
  8
0
 10
10.5231
 20
0.675239
 30
0.0
 40
0.011811
 41
0.011811
  0
VERTEX
  8
0
 10
10.5231
 20
0.669596
 30
0.0
 40
0.011811
 41
0.011811
  0
SEQEND
 8
0
  0
POLYLINE
  8
0
 62
     0
 66
     1
 10
0
 20
0
 30
0.0
 40
0.425196
 41
0.425196
  0
VERTEX
  8
0
 10
7.01921
 20
0.641493
 30
0.0
 40
0.0059055
 41
0.0059055
  0
VERTEX
  8
0
 10
7.02761
 20
0.638726
 30
0.0
 40
0.0059055
 41
0.0059055
  0
VERTEX
  8
0
 10
7.04172
 20
0.638726
 30
0.0
 40
0.0059055
 41
0.0059055
  0
VERTEX
  8
0
 10
7.04731
 20
0.641493
 30
0.0
 40
0.0059055
 41
0.0059055
  0
VERTEX
  8
0
 10
7.05007
 20
0.644314
 30
0.0
 40
0.0059055
 41
0.0059055
  0
VERTEX
  8
0
 10
7.0529
 20
0.649903
 30
0.0
 40
0.0059055
 41
0.0059055
  0
VERTEX
  8
0
 10
7.0529
 20
0.655599
 30
0.0
 40
0.0059055
 41
0.0059055
  0
VERTEX
  8
0
 10
7.05007
 20
0.661187
 30
0.0
 40
0.0059055
 41
0.0059055
  0
VERTEX
  8
0
 10
7.04731
 20
0.664008
 30
0.0
 40
0.0059055
 41
0.0059055
  0
VERTEX
  8
0
 10
7.04172
 20
0.666829
 30
0.0
 40
0.0059055
 41
0.0059055
  0
VERTEX
  8
0
 10
7.03039
 20
0.669596
 30
0.0
 40
0.0059055
 41
0.0059055
  0
VERTEX
  8
0
 10
7.02479
 20
0.672418
 30
0.0
 40
0.0059055
 41
0.0059055
  0
VERTEX
  8
0
 10
7.02197
 20
0.675239
 30
0.0
 40
0.0059055
 41
0.0059055
  0
VERTEX
  8
0
 10
7.01921
 20
0.680881
 30
0.0
 40
0.0059055
 41
0.0059055
  0
VERTEX
  8
0
 10
7.01921
 20
0.686524
 30
0.0
 40
0.0059055
 41
0.0059055
  0
VERTEX
  8
0
 10
7.02197
 20
0.692111
 30
0.0
 40
0.0059055
 41
0.0059055
  0
VERTEX
  8
0
 10
7.02479
 20
0.694933
 30
0.0
 40
0.0059055
 41
0.0059055
  0
VERTEX
  8
0
 10
7.03039
 20
0.6977
 30
0.0
 40
0.0059055
 41
0.0059055
  0
VERTEX
  8
0
 10
7.04449
 20
0.6977
 30
0.0
 40
0.0059055
 41
0.0059055
  0
VERTEX
  8
0
 10
7.0529
 20
0.694933
 30
0.0
 40
0.0059055
 41
0.0059055
  0
SEQEND
 8
0
  0
POLYLINE
  8
0
 62
     0
 66
     1
 10
0
 20
0
 30
0.0
 40
0.425196
 41
0.425196
  0
VERTEX
  8
0
 10
7.07818
 20
0.638726
 30
0.0
 40
0.0059055
 41
0.0059055
  0
VERTEX
  8
0
 10
7.07818
 20
0.678114
 30
0.0
 40
0.0059055
 41
0.0059055
  0
SEQEND
 8
0
  0
POLYLINE
  8
0
 62
     0
 66
     1
 10
0
 20
0
 30
0.0
 40
0.425196
 41
0.425196
  0
VERTEX
  8
0
 10
7.07818
 20
0.6977
 30
0.0
 40
0.0059055
 41
0.0059055
  0
VERTEX
  8
0
 10
7.07542
 20
0.694933
 30
0.0
 40
0.0059055
 41
0.0059055
  0
VERTEX
  8
0
 10
7.07818
 20
0.692111
 30
0.0
 40
0.0059055
 41
0.0059055
  0
VERTEX
  8
0
 10
7.081
 20
0.694933
 30
0.0
 40
0.0059055
 41
0.0059055
  0
VERTEX
  8
0
 10
7.07818
 20
0.6977
 30
0.0
 40
0.0059055
 41
0.0059055
  0
VERTEX
  8
0
 10
7.07818
 20
0.692111
 30
0.0
 40
0.0059055
 41
0.0059055
  0
SEQEND
 8
0
  0
POLYLINE
  8
0
 62
     0
 66
     1
 10
0
 20
0
 30
0.0
 40
0.425196
 41
0.425196
  0
VERTEX
  8
0
 10
7.10069
 20
0.678114
 30
0.0
 40
0.0059055
 41
0.0059055
  0
VERTEX
  8
0
 10
7.13162
 20
0.678114
 30
0.0
 40
0.0059055
 41
0.0059055
  0
VERTEX
  8
0
 10
7.10069
 20
0.638726
 30
0.0
 40
0.0059055
 41
0.0059055
  0
VERTEX
  8
0
 10
7.13162
 20
0.638726
 30
0.0
 40
0.0059055
 41
0.0059055
  0
SEQEND
 8
0
  0
POLYLINE
  8
0
 62
     0
 66
     1
 10
0
 20
0
 30
0.0
 40
0.425196
 41
0.425196
  0
VERTEX
  8
0
 10
7.1766
 20
0.641493
 30
0.0
 40
0.0059055
 41
0.0059055
  0
VERTEX
  8
0
 10
7.17101
 20
0.638726
 30
0.0
 40
0.0059055
 41
0.0059055
  0
VERTEX
  8
0
 10
7.15978
 20
0.638726
 30
0.0
 40
0.0059055
 41
0.0059055
  0
VERTEX
  8
0
 10
7.15408
 20
0.641493
 30
0.0
 40
0.0059055
 41
0.0059055
  0
VERTEX
  8
0
 10
7.15132
 20
0.647136
 30
0.0
 40
0.0059055
 41
0.0059055
  0
VERTEX
  8
0
 10
7.15132
 20
0.669596
 30
0.0
 40
0.0059055
 41
0.0059055
  0
VERTEX
  8
0
 10
7.15408
 20
0.675239
 30
0.0
 40
0.0059055
 41
0.0059055
  0
VERTEX
  8
0
 10
7.15978
 20
0.678114
 30
0.0
 40
0.0059055
 41
0.0059055
  0
VERTEX
  8
0
 10
7.17101
 20
0.678114
 30
0.0
 40
0.0059055
 41
0.0059055
  0
VERTEX
  8
0
 10
7.1766
 20
0.675239
 30
0.0
 40
0.0059055
 41
0.0059055
  0
VERTEX
  8
0
 10
7.17947
 20
0.669596
 30
0.0
 40
0.0059055
 41
0.0059055
  0
VERTEX
  8
0
 10
7.17947
 20
0.664008
 30
0.0
 40
0.0059055
 41
0.0059055
  0
VERTEX
  8
0
 10
7.15132
 20
0.658421
 30
0.0
 40
0.0059055
 41
0.0059055
  0
SEQEND
 8
0
  0
POLYLINE
  8
0
 62
     0
 66
     1
 10
0
 20
0
 30
0.0
 40
0.425196
 41
0.425196
  0
VERTEX
  8
0
 10
7.20481
 20
0.644314
 30
0.0
 40
0.0059055
 41
0.0059055
  0
VERTEX
  8
0
 10
7.20757
 20
0.641493
 30
0.0
 40
0.0059055
 41
0.0059055
  0
VERTEX
  8
0
 10
7.20481
 20
0.638726
 30
0.0
 40
0.0059055
 41
0.0059055
  0
VERTEX
  8
0
 10
7.20187
 20
0.641493
 30
0.0
 40
0.0059055
 41
0.0059055
  0
VERTEX
  8
0
 10
7.20481
 20
0.644314
 30
0.0
 40
0.0059055
 41
0.0059055
  0
VERTEX
  8
0
 10
7.20481
 20
0.638726
 30
0.0
 40
0.0059055
 41
0.0059055
  0
SEQEND
 8
0
  0
POLYLINE
  8
0
 62
     0
 66
     1
 10
0
 20
0
 30
0.0
 40
0.425196
 41
0.425196
  0
VERTEX
  8
0
 10
7.20481
 20
0.675239
 30
0.0
 40
0.0059055
 41
0.0059055
  0
VERTEX
  8
0
 10
7.20757
 20
0.672418
 30
0.0
 40
0.0059055
 41
0.0059055
  0
VERTEX
  8
0
 10
7.20481
 20
0.669596
 30
0.0
 40
0.0059055
 41
0.0059055
  0
VERTEX
  8
0
 10
7.20187
 20
0.672418
 30
0.0
 40
0.0059055
 41
0.0059055
  0
VERTEX
  8
0
 10
7.20481
 20
0.675239
 30
0.0
 40
0.0059055
 41
0.0059055
  0
VERTEX
  8
0
 10
7.20481
 20
0.669596
 30
0.0
 40
0.0059055
 41
0.0059055
  0
SEQEND
 8
0
  0
POLYLINE
  8
0
 62
     0
 66
     1
 10
0
 20
0
 30
0.0
 40
0.425196
 41
0.425196
  0
VERTEX
  8
0
 10
7.27513
 20
0.655599
 30
0.0
 40
0.0059055
 41
0.0059055
  0
VERTEX
  8
0
 10
7.30317
 20
0.655599
 30
0.0
 40
0.0059055
 41
0.0059055
  0
SEQEND
 8
0
  0
POLYLINE
  8
0
 62
     0
 66
     1
 10
0
 20
0
 30
0.0
 40
0.425196
 41
0.425196
  0
VERTEX
  8
0
 10
7.26938
 20
0.638726
 30
0.0
 40
0.0059055
 41
0.0059055
  0
VERTEX
  8
0
 10
7.28911
 20
0.6977
 30
0.0
 40
0.0059055
 41
0.0059055
  0
VERTEX
  8
0
 10
7.30881
 20
0.638726
 30
0.0
 40
0.0059055
 41
0.0059055
  0
SEQEND
 8
0
  0
POLYLINE
  8
0
 62
     0
 66
     1
 10
0
 20
0
 30
0.0
 40
0.425196
 41
0.425196
  0
VERTEX
  8
0
 10
7.35379
 20
0.678114
 30
0.0
 40
0.0059055
 41
0.0059055
  0
VERTEX
  8
0
 10
7.35379
 20
0.638726
 30
0.0
 40
0.0059055
 41
0.0059055
  0
SEQEND
 8
0
  0
POLYLINE
  8
0
 62
     0
 66
     1
 10
0
 20
0
 30
0.0
 40
0.425196
 41
0.425196
  0
VERTEX
  8
0
 10
7.33968
 20
0.700629
 30
0.0
 40
0.0059055
 41
0.0059055
  0
VERTEX
  8
0
 10
7.32568
 20
0.658421
 30
0.0
 40
0.0059055
 41
0.0059055
  0
VERTEX
  8
0
 10
7.36219
 20
0.658421
 30
0.0
 40
0.0059055
 41
0.0059055
  0
SEQEND
 8
0
  0
POLYLINE
  8
0
 62
     0
 66
     1
 10
0
 20
0
 30
0.0
 40
0.425196
 41
0.425196
  0
VERTEX
  8
0
 10
10.3684
 20
0.528537
 30
0.0
 40
0.0059055
 41
0.0059055
  0
VERTEX
  8
0
 10
10.3684
 20
0.587511
 30
0.0
 40
0.0059055
 41
0.0059055
  0
SEQEND
 8
0
  0
POLYLINE
  8
0
 62
     0
 66
     1
 10
0
 20
0
 30
0.0
 40
0.425196
 41
0.425196
  0
VERTEX
  8
0
 10
10.4219
 20
0.528537
 30
0.0
 40
0.0059055
 41
0.0059055
  0
VERTEX
  8
0
 10
10.4219
 20
0.587511
 30
0.0
 40
0.0059055
 41
0.0059055
  0
SEQEND
 8
0
  0
POLYLINE
  8
0
 62
     0
 66
     1
 10
0
 20
0
 30
0.0
 40
0.425196
 41
0.425196
  0
VERTEX
  8
0
 10
10.4219
 20
0.531304
 30
0.0
 40
0.0059055
 41
0.0059055
  0
VERTEX
  8
0
 10
10.4162
 20
0.528537
 30
0.0
 40
0.0059055
 41
0.0059055
  0
VERTEX
  8
0
 10
10.405
 20
0.528537
 30
0.0
 40
0.0059055
 41
0.0059055
  0
VERTEX
  8
0
 10
10.3994
 20
0.531304
 30
0.0
 40
0.0059055
 41
0.0059055
  0
VERTEX
  8
0
 10
10.3965
 20
0.534125
 30
0.0
 40
0.0059055
 41
0.0059055
  0
VERTEX
  8
0
 10
10.3937
 20
0.53966
 30
0.0
 40
0.0059055
 41
0.0059055
  0
VERTEX
  8
0
 10
10.3937
 20
0.55664
 30
0.0
 40
0.0059055
 41
0.0059055
  0
VERTEX
  8
0
 10
10.3965
 20
0.562229
 30
0.0
 40
0.0059055
 41
0.0059055
  0
VERTEX
  8
0
 10
10.3994
 20
0.564996
 30
0.0
 40
0.0059055
 41
0.0059055
  0
VERTEX
  8
0
 10
10.405
 20
0.567817
 30
0.0
 40
0.0059055
 41
0.0059055
  0
VERTEX
  8
0
 10
10.4162
 20
0.567817
 30
0.0
 40
0.0059055
 41
0.0059055
  0
VERTEX
  8
0
 10
10.4219
 20
0.564996
 30
0.0
 40
0.0059055
 41
0.0059055
  0
SEQEND
 8
0
  0
POLYLINE
  8
0
 62
     0
 66
     1
 10
0
 20
0
 30
0.0
 40
0.425196
 41
0.425196
  0
VERTEX
  8
0
 10
10.45
 20
0.534125
 30
0.0
 40
0.0059055
 41
0.0059055
  0
VERTEX
  8
0
 10
10.4528
 20
0.531304
 30
0.0
 40
0.0059055
 41
0.0059055
  0
VERTEX
  8
0
 10
10.45
 20
0.528537
 30
0.0
 40
0.0059055
 41
0.0059055
  0
VERTEX
  8
0
 10
10.4472
 20
0.531304
 30
0.0
 40
0.0059055
 41
0.0059055
  0
VERTEX
  8
0
 10
10.45
 20
0.534125
 30
0.0
 40
0.0059055
 41
0.0059055
  0
VERTEX
  8
0
 10
10.45
 20
0.528537
 30
0.0
 40
0.0059055
 41
0.0059055
  0
SEQEND
 8
0
  0
POLYLINE
  8
0
 62
     0
 66
     1
 10
0
 20
0
 30
0.0
 40
0.425196
 41
0.425196
  0
VERTEX
  8
0
 10
10.45
 20
0.564996
 30
0.0
 40
0.0059055
 41
0.0059055
  0
VERTEX
  8
0
 10
10.4528
 20
0.562229
 30
0.0
 40
0.0059055
 41
0.0059055
  0
VERTEX
  8
0
 10
10.45
 20
0.559353
 30
0.0
 40
0.0059055
 41
0.0059055
  0
VERTEX
  8
0
 10
10.4472
 20
0.562229
 30
0.0
 40
0.0059055
 41
0.0059055
  0
VERTEX
  8
0
 10
10.45
 20
0.564996
 30
0.0
 40
0.0059055
 41
0.0059055
  0
VERTEX
  8
0
 10
10.45
 20
0.559353
 30
0.0
 40
0.0059055
 41
0.0059055
  0
SEQEND
 8
0
  0
POLYLINE
  8
0
 62
     0
 66
     1
 10
0
 20
0
 30
0.0
 40
0.425196
 41
0.425196
  0
VERTEX
  8
0
 10
10.554
 20
0.528537
 30
0.0
 40
0.0059055
 41
0.0059055
  0
VERTEX
  8
0
 10
10.5203
 20
0.528537
 30
0.0
 40
0.0059055
 41
0.0059055
  0
SEQEND
 8
0
  0
POLYLINE
  8
0
 62
     0
 66
     1
 10
0
 20
0
 30
0.0
 40
0.425196
 41
0.425196
  0
VERTEX
  8
0
 10
10.5372
 20
0.528537
 30
0.0
 40
0.0059055
 41
0.0059055
  0
VERTEX
  8
0
 10
10.5372
 20
0.587511
 30
0.0
 40
0.0059055
 41
0.0059055
  0
VERTEX
  8
0
 10
10.5315
 20
0.579101
 30
0.0
 40
0.0059055
 41
0.0059055
  0
VERTEX
  8
0
 10
10.5259
 20
0.573406
 30
0.0
 40
0.0059055
 41
0.0059055
  0
VERTEX
  8
0
 10
10.5203
 20
0.570637
 30
0.0
 40
0.0059055
 41
0.0059055
  0
SEQEND
 8
0
  0
POLYLINE
  8
0
 62
     0
 66
     1
 10
0
 20
0
 30
0.0
 40
0.425196
 41
0.425196
  0
VERTEX
  8
0
 10
10.6215
 20
0.590332
 30
0.0
 40
0.0059055
 41
0.0059055
  0
VERTEX
  8
0
 10
10.5709
 20
0.514432
 30
0.0
 40
0.0059055
 41
0.0059055
  0
SEQEND
 8
0
  0
POLYLINE
  8
0
 62
     0
 66
     1
 10
0
 20
0
 30
0.0
 40
0.425196
 41
0.425196
  0
VERTEX
  8
0
 10
10.6721
 20
0.528537
 30
0.0
 40
0.0059055
 41
0.0059055
  0
VERTEX
  8
0
 10
10.6384
 20
0.528537
 30
0.0
 40
0.0059055
 41
0.0059055
  0
SEQEND
 8
0
  0
POLYLINE
  8
0
 62
     0
 66
     1
 10
0
 20
0
 30
0.0
 40
0.425196
 41
0.425196
  0
VERTEX
  8
0
 10
10.6553
 20
0.528537
 30
0.0
 40
0.0059055
 41
0.0059055
  0
VERTEX
  8
0
 10
10.6553
 20
0.587511
 30
0.0
 40
0.0059055
 41
0.0059055
  0
VERTEX
  8
0
 10
10.6496
 20
0.579101
 30
0.0
 40
0.0059055
 41
0.0059055
  0
VERTEX
  8
0
 10
10.644
 20
0.573406
 30
0.0
 40
0.0059055
 41
0.0059055
  0
VERTEX
  8
0
 10
10.6384
 20
0.570637
 30
0.0
 40
0.0059055
 41
0.0059055
  0
SEQEND
 8
0
  0
POLYLINE
  8
0
 62
     0
 66
     1
 10
0
 20
0
 30
0.0
 40
0.425196
 41
0.425196
  0
VERTEX
  8
0
 10
6.96847
 20
0.885906
 30
0.0
 40
0.0059055
 41
0.0059055
  0
VERTEX
  8
0
 10
11.2205
 20
0.885906
 30
0.0
 40
0.0059055
 41
0.0059055
  0
SEQEND
 8
0
  0
POLYLINE
  8
0
 62
     0
 66
     1
 10
0
 20
0
 30
0.0
 40
1.13385
 41
1.13385
  0
VERTEX
  8
0
 10
7.02572
 20
0.858128
 30
0.0
 40
0.0157479
 41
0.0157479
  0
VERTEX
  8
0
 10
7.07069
 20
0.858128
 30
0.0
 40
0.0157479
 41
0.0157479
  0
SEQEND
 8
0
  0
POLYLINE
  8
0
 62
     0
 66
     1
 10
0
 20
0
 30
0.0
 40
1.13385
 41
1.13385
  0
VERTEX
  8
0
 10
7.03842
 20
0.779406
 30
0.0
 40
0.0157479
 41
0.0157479
  0
VERTEX
  8
0
 10
7.04818
 20
0.858128
 30
0.0
 40
0.0157479
 41
0.0157479
  0
SEQEND
 8
0
  0
POLYLINE
  8
0
 62
     0
 66
     1
 10
0
 20
0
 30
0.0
 40
1.13385
 41
1.13385
  0
VERTEX
  8
0
 10
7.08708
 20
0.779406
 30
0.0
 40
0.0157479
 41
0.0157479
  0
VERTEX
  8
0
 10
7.09369
 20
0.831922
 30
0.0
 40
0.0157479
 41
0.0157479
  0
SEQEND
 8
0
  0
POLYLINE
  8
0
 62
     0
 66
     1
 10
0
 20
0
 30
0.0
 40
1.13385
 41
1.13385
  0
VERTEX
  8
0
 10
7.097
 20
0.858128
 30
0.0
 40
0.0157479
 41
0.0157479
  0
VERTEX
  8
0
 10
7.09272
 20
0.854438
 30
0.0
 40
0.0157479
 41
0.0157479
  0
VERTEX
  8
0
 10
7.09597
 20
0.85064
 30
0.0
 40
0.0157479
 41
0.0157479
  0
VERTEX
  8
0
 10
7.10021
 20
0.854438
 30
0.0
 40
0.0157479
 41
0.0157479
  0
VERTEX
  8
0
 10
7.097
 20
0.858128
 30
0.0
 40
0.0157479
 41
0.0157479
  0
VERTEX
  8
0
 10
7.09597
 20
0.85064
 30
0.0
 40
0.0157479
 41
0.0157479
  0
SEQEND
 8
0
  0
POLYLINE
  8
0
 62
     0
 66
     1
 10
0
 20
0
 30
0.0
 40
1.13385
 41
1.13385
  0
VERTEX
  8
0
 10
7.1199
 20
0.831922
 30
0.0
 40
0.0157479
 41
0.0157479
  0
VERTEX
  8
0
 10
7.1499
 20
0.831922
 30
0.0
 40
0.0157479
 41
0.0157479
  0
SEQEND
 8
0
  0
POLYLINE
  8
0
 62
     0
 66
     1
 10
0
 20
0
 30
0.0
 40
1.13385
 41
1.13385
  0
VERTEX
  8
0
 10
7.1345
 20
0.858128
 30
0.0
 40
0.0157479
 41
0.0157479
  0
VERTEX
  8
0
 10
7.12597
 20
0.790636
 30
0.0
 40
0.0157479
 41
0.0157479
  0
VERTEX
  8
0
 10
7.12879
 20
0.783094
 30
0.0
 40
0.0157479
 41
0.0157479
  0
VERTEX
  8
0
 10
7.1359
 20
0.779406
 30
0.0
 40
0.0157479
 41
0.0157479
  0
VERTEX
  8
0
 10
7.14339
 20
0.779406
 30
0.0
 40
0.0157479
 41
0.0157479
  0
SEQEND
 8
0
  0
POLYLINE
  8
0
 62
     0
 66
     1
 10
0
 20
0
 30
0.0
 40
1.13385
 41
1.13385
  0
VERTEX
  8
0
 10
7.18088
 20
0.779406
 30
0.0
 40
0.0157479
 41
0.0157479
  0
VERTEX
  8
0
 10
7.17378
 20
0.783094
 30
0.0
 40
0.0157479
 41
0.0157479
  0
VERTEX
  8
0
 10
7.17101
 20
0.790636
 30
0.0
 40
0.0157479
 41
0.0157479
  0
VERTEX
  8
0
 10
7.17947
 20
0.858128
 30
0.0
 40
0.0157479
 41
0.0157479
  0
SEQEND
 8
0
  0
POLYLINE
  8
0
 62
     0
 66
     1
 10
0
 20
0
 30
0.0
 40
1.13385
 41
1.13385
  0
VERTEX
  8
0
 10
7.24132
 20
0.783094
 30
0.0
 40
0.0157479
 41
0.0157479
  0
VERTEX
  8
0
 10
7.2334
 20
0.779406
 30
0.0
 40
0.0157479
 41
0.0157479
  0
VERTEX
  8
0
 10
7.21838
 20
0.779406
 30
0.0
 40
0.0157479
 41
0.0157479
  0
VERTEX
  8
0
 10
7.21132
 20
0.783094
 30
0.0
 40
0.0157479
 41
0.0157479
  0
VERTEX
  8
0
 10
7.2085
 20
0.790636
 30
0.0
 40
0.0157479
 41
0.0157479
  0
VERTEX
  8
0
 10
7.21229
 20
0.820637
 30
0.0
 40
0.0157479
 41
0.0157479
  0
VERTEX
  8
0
 10
7.2169
 20
0.828125
 30
0.0
 40
0.0157479
 41
0.0157479
  0
VERTEX
  8
0
 10
7.22487
 20
0.831922
 30
0.0
 40
0.0157479
 41
0.0157479
  0
VERTEX
  8
0
 10
7.2399
 20
0.831922
 30
0.0
 40
0.0157479
 41
0.0157479
  0
VERTEX
  8
0
 10
7.2469
 20
0.828125
 30
0.0
 40
0.0157479
 41
0.0157479
  0
VERTEX
  8
0
 10
7.24978
 20
0.820637
 30
0.0
 40
0.0157479
 41
0.0157479
  0
VERTEX
  8
0
 10
7.24881
 20
0.813097
 30
0.0
 40
0.0157479
 41
0.0157479
  0
VERTEX
  8
0
 10
7.21039
 20
0.80561
 30
0.0
 40
0.0157479
 41
0.0157479
  0
SEQEND
 8
0
  0
POLYLINE
  8
0
 62
     0
 66
     1
 10
0
 20
0
 30
0.0
 40
1.13385
 41
1.13385
  0
VERTEX
  8
0
 10
7.27929
 20
0.786893
 30
0.0
 40
0.0157479
 41
0.0157479
  0
VERTEX
  8
0
 10
7.28261
 20
0.783094
 30
0.0
 40
0.0157479
 41
0.0157479
  0
VERTEX
  8
0
 10
7.27832
 20
0.779406
 30
0.0
 40
0.0157479
 41
0.0157479
  0
VERTEX
  8
0
 10
7.27513
 20
0.783094
 30
0.0
 40
0.0157479
 41
0.0157479
  0
VERTEX
  8
0
 10
7.27929
 20
0.786893
 30
0.0
 40
0.0157479
 41
0.0157479
  0
VERTEX
  8
0
 10
7.27832
 20
0.779406
 30
0.0
 40
0.0157479
 41
0.0157479
  0
SEQEND
 8
0
  0
POLYLINE
  8
0
 62
     0
 66
     1
 10
0
 20
0
 30
0.0
 40
1.13385
 41
1.13385
  0
VERTEX
  8
0
 10
7.2844
 20
0.828125
 30
0.0
 40
0.0157479
 41
0.0157479
  0
VERTEX
  8
0
 10
7.28771
 20
0.824382
 30
0.0
 40
0.0157479
 41
0.0157479
  0
VERTEX
  8
0
 10
7.28347
 20
0.820637
 30
0.0
 40
0.0157479
 41
0.0157479
  0
VERTEX
  8
0
 10
7.28022
 20
0.824382
 30
0.0
 40
0.0157479
 41
0.0157479
  0
VERTEX
  8
0
 10
7.2844
 20
0.828125
 30
0.0
 40
0.0157479
 41
0.0157479
  0
VERTEX
  8
0
 10
7.28347
 20
0.820637
 30
0.0
 40
0.0157479
 41
0.0157479
  0
SEQEND
 8
0
  0
POLYLINE
  8
0
 62
     0
 66
     1
 10
0
 20
0
 30
0.0
 40
0.425196
 41
0.425196
  0
VERTEX
  8
0
 10
7.04172
 20
0.960992
 30
0.0
 40
0.0059055
 41
0.0059055
  0
VERTEX
  8
0
 10
7.02197
 20
0.960992
 30
0.0
 40
0.0059055
 41
0.0059055
  0
SEQEND
 8
0
  0
POLYLINE
  8
0
 62
     0
 66
     1
 10
0
 20
0
 30
0.0
 40
0.425196
 41
0.425196
  0
VERTEX
  8
0
 10
7.02197
 20
0.930012
 30
0.0
 40
0.0059055
 41
0.0059055
  0
VERTEX
  8
0
 10
7.02197
 20
0.989094
 30
0.0
 40
0.0059055
 41
0.0059055
  0
VERTEX
  8
0
 10
7.05007
 20
0.989094
 30
0.0
 40
0.0059055
 41
0.0059055
  0
SEQEND
 8
0
  0
POLYLINE
  8
0
 62
     0
 66
     1
 10
0
 20
0
 30
0.0
 40
0.425196
 41
0.425196
  0
VERTEX
  8
0
 10
7.0726
 20
0.930012
 30
0.0
 40
0.0059055
 41
0.0059055
  0
VERTEX
  8
0
 10
7.0726
 20
0.969401
 30
0.0
 40
0.0059055
 41
0.0059055
  0
SEQEND
 8
0
  0
POLYLINE
  8
0
 62
     0
 66
     1
 10
0
 20
0
 30
0.0
 40
0.425196
 41
0.425196
  0
VERTEX
  8
0
 10
7.0726
 20
0.989094
 30
0.0
 40
0.0059055
 41
0.0059055
  0
VERTEX
  8
0
 10
7.06976
 20
0.986328
 30
0.0
 40
0.0059055
 41
0.0059055
  0
VERTEX
  8
0
 10
7.0726
 20
0.983507
 30
0.0
 40
0.0059055
 41
0.0059055
  0
VERTEX
  8
0
 10
7.07542
 20
0.986328
 30
0.0
 40
0.0059055
 41
0.0059055
  0
VERTEX
  8
0
 10
7.0726
 20
0.989094
 30
0.0
 40
0.0059055
 41
0.0059055
  0
VERTEX
  8
0
 10
7.0726
 20
0.983507
 30
0.0
 40
0.0059055
 41
0.0059055
  0
SEQEND
 8
0
  0
POLYLINE
  8
0
 62
     0
 66
     1
 10
0
 20
0
 30
0.0
 40
0.425196
 41
0.425196
  0
VERTEX
  8
0
 10
7.1091
 20
0.930012
 30
0.0
 40
0.0059055
 41
0.0059055
  0
VERTEX
  8
0
 10
7.10351
 20
0.932835
 30
0.0
 40
0.0059055
 41
0.0059055
  0
VERTEX
  8
0
 10
7.10069
 20
0.938531
 30
0.0
 40
0.0059055
 41
0.0059055
  0
VERTEX
  8
0
 10
7.10069
 20
0.989094
 30
0.0
 40
0.0059055
 41
0.0059055
  0
SEQEND
 8
0
  0
POLYLINE
  8
0
 62
     0
 66
     1
 10
0
 20
0
 30
0.0
 40
0.425196
 41
0.425196
  0
VERTEX
  8
0
 10
7.15408
 20
0.932835
 30
0.0
 40
0.0059055
 41
0.0059055
  0
VERTEX
  8
0
 10
7.14849
 20
0.930012
 30
0.0
 40
0.0059055
 41
0.0059055
  0
VERTEX
  8
0
 10
7.13732
 20
0.930012
 30
0.0
 40
0.0059055
 41
0.0059055
  0
VERTEX
  8
0
 10
7.13162
 20
0.932835
 30
0.0
 40
0.0059055
 41
0.0059055
  0
VERTEX
  8
0
 10
7.12879
 20
0.938531
 30
0.0
 40
0.0059055
 41
0.0059055
  0
VERTEX
  8
0
 10
7.12879
 20
0.960992
 30
0.0
 40
0.0059055
 41
0.0059055
  0
VERTEX
  8
0
 10
7.13162
 20
0.966635
 30
0.0
 40
0.0059055
 41
0.0059055
  0
VERTEX
  8
0
 10
7.13732
 20
0.969401
 30
0.0
 40
0.0059055
 41
0.0059055
  0
VERTEX
  8
0
 10
7.14849
 20
0.969401
 30
0.0
 40
0.0059055
 41
0.0059055
  0
VERTEX
  8
0
 10
7.15408
 20
0.966635
 30
0.0
 40
0.0059055
 41
0.0059055
  0
VERTEX
  8
0
 10
7.15701
 20
0.960992
 30
0.0
 40
0.0059055
 41
0.0059055
  0
VERTEX
  8
0
 10
7.15701
 20
0.955296
 30
0.0
 40
0.0059055
 41
0.0059055
  0
VERTEX
  8
0
 10
7.12879
 20
0.949707
 30
0.0
 40
0.0059055
 41
0.0059055
  0
SEQEND
 8
0
  0
POLYLINE
  8
0
 62
     0
 66
     1
 10
0
 20
0
 30
0.0
 40
0.425196
 41
0.425196
  0
VERTEX
  8
0
 10
7.18229
 20
0.93571
 30
0.0
 40
0.0059055
 41
0.0059055
  0
VERTEX
  8
0
 10
7.18511
 20
0.932835
 30
0.0
 40
0.0059055
 41
0.0059055
  0
VERTEX
  8
0
 10
7.18229
 20
0.930012
 30
0.0
 40
0.0059055
 41
0.0059055
  0
VERTEX
  8
0
 10
7.17947
 20
0.932835
 30
0.0
 40
0.0059055
 41
0.0059055
  0
VERTEX
  8
0
 10
7.18229
 20
0.93571
 30
0.0
 40
0.0059055
 41
0.0059055
  0
VERTEX
  8
0
 10
7.18229
 20
0.930012
 30
0.0
 40
0.0059055
 41
0.0059055
  0
SEQEND
 8
0
  0
POLYLINE
  8
0
 62
     0
 66
     1
 10
0
 20
0
 30
0.0
 40
0.425196
 41
0.425196
  0
VERTEX
  8
0
 10
7.18229
 20
0.966635
 30
0.0
 40
0.0059055
 41
0.0059055
  0
VERTEX
  8
0
 10
7.18511
 20
0.963813
 30
0.0
 40
0.0059055
 41
0.0059055
  0
VERTEX
  8
0
 10
7.18229
 20
0.960992
 30
0.0
 40
0.0059055
 41
0.0059055
  0
VERTEX
  8
0
 10
7.17947
 20
0.963813
 30
0.0
 40
0.0059055
 41
0.0059055
  0
VERTEX
  8
0
 10
7.18229
 20
0.966635
 30
0.0
 40
0.0059055
 41
0.0059055
  0
VERTEX
  8
0
 10
7.18229
 20
0.960992
 30
0.0
 40
0.0059055
 41
0.0059055
  0
SEQEND
 8
0
  0
POLYLINE
  8
0
 62
     0
 66
     1
 10
0
 20
0
 30
0.0
 40
0.425196
 41
0.425196
  0
VERTEX
  8
0
 10
7.26378
 20
0.930012
 30
0.0
 40
0.0059055
 41
0.0059055
  0
VERTEX
  8
0
 10
7.25819
 20
0.932835
 30
0.0
 40
0.0059055
 41
0.0059055
  0
VERTEX
  8
0
 10
7.25538
 20
0.938531
 30
0.0
 40
0.0059055
 41
0.0059055
  0
VERTEX
  8
0
 10
7.25538
 20
0.989094
 30
0.0
 40
0.0059055
 41
0.0059055
  0
SEQEND
 8
0
  0
POLYLINE
  8
0
 62
     0
 66
     1
 10
0
 20
0
 30
0.0
 40
0.425196
 41
0.425196
  0
VERTEX
  8
0
 10
7.28629
 20
0.930012
 30
0.0
 40
0.0059055
 41
0.0059055
  0
VERTEX
  8
0
 10
7.28629
 20
0.969401
 30
0.0
 40
0.0059055
 41
0.0059055
  0
SEQEND
 8
0
  0
POLYLINE
  8
0
 62
     0
 66
     1
 10
0
 20
0
 30
0.0
 40
0.425196
 41
0.425196
  0
VERTEX
  8
0
 10
7.28629
 20
0.989094
 30
0.0
 40
0.0059055
 41
0.0059055
  0
VERTEX
  8
0
 10
7.28347
 20
0.986328
 30
0.0
 40
0.0059055
 41
0.0059055
  0
VERTEX
  8
0
 10
7.28629
 20
0.983507
 30
0.0
 40
0.0059055
 41
0.0059055
  0
VERTEX
  8
0
 10
7.28911
 20
0.986328
 30
0.0
 40
0.0059055
 41
0.0059055
  0
VERTEX
  8
0
 10
7.28629
 20
0.989094
 30
0.0
 40
0.0059055
 41
0.0059055
  0
VERTEX
  8
0
 10
7.28629
 20
0.983507
 30
0.0
 40
0.0059055
 41
0.0059055
  0
SEQEND
 8
0
  0
POLYLINE
  8
0
 62
     0
 66
     1
 10
0
 20
0
 30
0.0
 40
0.425196
 41
0.425196
  0
VERTEX
  8
0
 10
7.33968
 20
0.969401
 30
0.0
 40
0.0059055
 41
0.0059055
  0
VERTEX
  8
0
 10
7.33968
 20
0.921604
 30
0.0
 40
0.0059055
 41
0.0059055
  0
VERTEX
  8
0
 10
7.33692
 20
0.916015
 30
0.0
 40
0.0059055
 41
0.0059055
  0
VERTEX
  8
0
 10
7.3341
 20
0.913194
 30
0.0
 40
0.0059055
 41
0.0059055
  0
VERTEX
  8
0
 10
7.3285
 20
0.910319
 30
0.0
 40
0.0059055
 41
0.0059055
  0
VERTEX
  8
0
 10
7.3201
 20
0.910319
 30
0.0
 40
0.0059055
 41
0.0059055
  0
VERTEX
  8
0
 10
7.3144
 20
0.913194
 30
0.0
 40
0.0059055
 41
0.0059055
  0
SEQEND
 8
0
  0
POLYLINE
  8
0
 62
     0
 66
     1
 10
0
 20
0
 30
0.0
 40
0.425196
 41
0.425196
  0
VERTEX
  8
0
 10
7.33968
 20
0.932835
 30
0.0
 40
0.0059055
 41
0.0059055
  0
VERTEX
  8
0
 10
7.3341
 20
0.930012
 30
0.0
 40
0.0059055
 41
0.0059055
  0
VERTEX
  8
0
 10
7.32292
 20
0.930012
 30
0.0
 40
0.0059055
 41
0.0059055
  0
VERTEX
  8
0
 10
7.31722
 20
0.932835
 30
0.0
 40
0.0059055
 41
0.0059055
  0
VERTEX
  8
0
 10
7.3144
 20
0.93571
 30
0.0
 40
0.0059055
 41
0.0059055
  0
VERTEX
  8
0
 10
7.31158
 20
0.941297
 30
0.0
 40
0.0059055
 41
0.0059055
  0
VERTEX
  8
0
 10
7.31158
 20
0.958117
 30
0.0
 40
0.0059055
 41
0.0059055
  0
VERTEX
  8
0
 10
7.3144
 20
0.963813
 30
0.0
 40
0.0059055
 41
0.0059055
  0
VERTEX
  8
0
 10
7.31722
 20
0.966635
 30
0.0
 40
0.0059055
 41
0.0059055
  0
VERTEX
  8
0
 10
7.32292
 20
0.969401
 30
0.0
 40
0.0059055
 41
0.0059055
  0
VERTEX
  8
0
 10
7.3341
 20
0.969401
 30
0.0
 40
0.0059055
 41
0.0059055
  0
VERTEX
  8
0
 10
7.33968
 20
0.966635
 30
0.0
 40
0.0059055
 41
0.0059055
  0
SEQEND
 8
0
  0
POLYLINE
  8
0
 62
     0
 66
     1
 10
0
 20
0
 30
0.0
 40
0.425196
 41
0.425196
  0
VERTEX
  8
0
 10
7.36789
 20
0.930012
 30
0.0
 40
0.0059055
 41
0.0059055
  0
VERTEX
  8
0
 10
7.36789
 20
0.989094
 30
0.0
 40
0.0059055
 41
0.0059055
  0
SEQEND
 8
0
  0
POLYLINE
  8
0
 62
     0
 66
     1
 10
0
 20
0
 30
0.0
 40
0.425196
 41
0.425196
  0
VERTEX
  8
0
 10
7.39318
 20
0.930012
 30
0.0
 40
0.0059055
 41
0.0059055
  0
VERTEX
  8
0
 10
7.39318
 20
0.960992
 30
0.0
 40
0.0059055
 41
0.0059055
  0
VERTEX
  8
0
 10
7.3904
 20
0.966635
 30
0.0
 40
0.0059055
 41
0.0059055
  0
VERTEX
  8
0
 10
7.38471
 20
0.969401
 30
0.0
 40
0.0059055
 41
0.0059055
  0
VERTEX
  8
0
 10
7.37631
 20
0.969401
 30
0.0
 40
0.0059055
 41
0.0059055
  0
VERTEX
  8
0
 10
7.37071
 20
0.966635
 30
0.0
 40
0.0059055
 41
0.0059055
  0
VERTEX
  8
0
 10
7.36789
 20
0.963813
 30
0.0
 40
0.0059055
 41
0.0059055
  0
SEQEND
 8
0
  0
POLYLINE
  8
0
 62
     0
 66
     1
 10
0
 20
0
 30
0.0
 40
0.425196
 41
0.425196
  0
VERTEX
  8
0
 10
7.41287
 20
0.969401
 30
0.0
 40
0.0059055
 41
0.0059055
  0
VERTEX
  8
0
 10
7.43539
 20
0.969401
 30
0.0
 40
0.0059055
 41
0.0059055
  0
SEQEND
 8
0
  0
POLYLINE
  8
0
 62
     0
 66
     1
 10
0
 20
0
 30
0.0
 40
0.425196
 41
0.425196
  0
VERTEX
  8
0
 10
7.42128
 20
0.989094
 30
0.0
 40
0.0059055
 41
0.0059055
  0
VERTEX
  8
0
 10
7.42128
 20
0.938531
 30
0.0
 40
0.0059055
 41
0.0059055
  0
VERTEX
  8
0
 10
7.4241
 20
0.932835
 30
0.0
 40
0.0059055
 41
0.0059055
  0
VERTEX
  8
0
 10
7.42969
 20
0.930012
 30
0.0
 40
0.0059055
 41
0.0059055
  0
VERTEX
  8
0
 10
7.43539
 20
0.930012
 30
0.0
 40
0.0059055
 41
0.0059055
  0
SEQEND
 8
0
  0
POLYLINE
  8
0
 62
     0
 66
     1
 10
0
 20
0
 30
0.0
 40
0.425196
 41
0.425196
  0
VERTEX
  8
0
 10
7.44097
 20
0.924425
 30
0.0
 40
0.0059055
 41
0.0059055
  0
VERTEX
  8
0
 10
7.486
 20
0.924425
 30
0.0
 40
0.0059055
 41
0.0059055
  0
SEQEND
 8
0
  0
POLYLINE
  8
0
 62
     0
 66
     1
 10
0
 20
0
 30
0.0
 40
0.425196
 41
0.425196
  0
VERTEX
  8
0
 10
7.5
 20
0.930012
 30
0.0
 40
0.0059055
 41
0.0059055
  0
VERTEX
  8
0
 10
7.5
 20
0.989094
 30
0.0
 40
0.0059055
 41
0.0059055
  0
SEQEND
 8
0
  0
POLYLINE
  8
0
 62
     0
 66
     1
 10
0
 20
0
 30
0.0
 40
0.425196
 41
0.425196
  0
VERTEX
  8
0
 10
7.5
 20
0.966635
 30
0.0
 40
0.0059055
 41
0.0059055
  0
VERTEX
  8
0
 10
7.50569
 20
0.969401
 30
0.0
 40
0.0059055
 41
0.0059055
  0
VERTEX
  8
0
 10
7.51688
 20
0.969401
 30
0.0
 40
0.0059055
 41
0.0059055
  0
VERTEX
  8
0
 10
7.52251
 20
0.966635
 30
0.0
 40
0.0059055
 41
0.0059055
  0
VERTEX
  8
0
 10
7.52528
 20
0.963813
 30
0.0
 40
0.0059055
 41
0.0059055
  0
VERTEX
  8
0
 10
7.52821
 20
0.958117
 30
0.0
 40
0.0059055
 41
0.0059055
  0
VERTEX
  8
0
 10
7.52821
 20
0.941297
 30
0.0
 40
0.0059055
 41
0.0059055
  0
VERTEX
  8
0
 10
7.52528
 20
0.93571
 30
0.0
 40
0.0059055
 41
0.0059055
  0
VERTEX
  8
0
 10
7.52251
 20
0.932835
 30
0.0
 40
0.0059055
 41
0.0059055
  0
VERTEX
  8
0
 10
7.51688
 20
0.930012
 30
0.0
 40
0.0059055
 41
0.0059055
  0
VERTEX
  8
0
 10
7.50569
 20
0.930012
 30
0.0
 40
0.0059055
 41
0.0059055
  0
VERTEX
  8
0
 10
7.5
 20
0.932835
 30
0.0
 40
0.0059055
 41
0.0059055
  0
SEQEND
 8
0
  0
POLYLINE
  8
0
 62
     0
 66
     1
 10
0
 20
0
 30
0.0
 70
     1
 40
0.425196
 41
0.425196
  0
VERTEX
  8
0
 10
7.5619
 20
0.930012
 30
0.0
 40
0.0059055
 41
0.0059055
  0
VERTEX
  8
0
 10
7.55632
 20
0.932835
 30
0.0
 40
0.0059055
 41
0.0059055
  0
VERTEX
  8
0
 10
7.5535
 20
0.93571
 30
0.0
 40
0.0059055
 41
0.0059055
  0
VERTEX
  8
0
 10
7.55067
 20
0.941297
 30
0.0
 40
0.0059055
 41
0.0059055
  0
VERTEX
  8
0
 10
7.55067
 20
0.958117
 30
0.0
 40
0.0059055
 41
0.0059055
  0
VERTEX
  8
0
 10
7.5535
 20
0.963813
 30
0.0
 40
0.0059055
 41
0.0059055
  0
VERTEX
  8
0
 10
7.55632
 20
0.966635
 30
0.0
 40
0.0059055
 41
0.0059055
  0
VERTEX
  8
0
 10
7.5619
 20
0.969401
 30
0.0
 40
0.0059055
 41
0.0059055
  0
VERTEX
  8
0
 10
7.57032
 20
0.969401
 30
0.0
 40
0.0059055
 41
0.0059055
  0
VERTEX
  8
0
 10
7.57601
 20
0.966635
 30
0.0
 40
0.0059055
 41
0.0059055
  0
VERTEX
  8
0
 10
7.57878
 20
0.963813
 30
0.0
 40
0.0059055
 41
0.0059055
  0
VERTEX
  8
0
 10
7.5816
 20
0.958117
 30
0.0
 40
0.0059055
 41
0.0059055
  0
VERTEX
  8
0
 10
7.5816
 20
0.941297
 30
0.0
 40
0.0059055
 41
0.0059055
  0
VERTEX
  8
0
 10
7.57878
 20
0.93571
 30
0.0
 40
0.0059055
 41
0.0059055
  0
VERTEX
  8
0
 10
7.57601
 20
0.932835
 30
0.0
 40
0.0059055
 41
0.0059055
  0
VERTEX
  8
0
 10
7.57032
 20
0.930012
 30
0.0
 40
0.0059055
 41
0.0059055
  0
VERTEX
  8
0
 10
7.5619
 20
0.930012
 30
0.0
 40
0.0059055
 41
0.0059055
  0
SEQEND
 8
0
  0
POLYLINE
  8
0
 62
     0
 66
     1
 10
0
 20
0
 30
0.0
 40
0.425196
 41
0.425196
  0
VERTEX
  8
0
 10
7.63222
 20
0.930012
 30
0.0
 40
0.0059055
 41
0.0059055
  0
VERTEX
  8
0
 10
7.63222
 20
0.960992
 30
0.0
 40
0.0059055
 41
0.0059055
  0
VERTEX
  8
0
 10
7.62939
 20
0.966635
 30
0.0
 40
0.0059055
 41
0.0059055
  0
VERTEX
  8
0
 10
7.62381
 20
0.969401
 30
0.0
 40
0.0059055
 41
0.0059055
  0
VERTEX
  8
0
 10
7.61247
 20
0.969401
 30
0.0
 40
0.0059055
 41
0.0059055
  0
VERTEX
  8
0
 10
7.60688
 20
0.966635
 30
0.0
 40
0.0059055
 41
0.0059055
  0
SEQEND
 8
0
  0
POLYLINE
  8
0
 62
     0
 66
     1
 10
0
 20
0
 30
0.0
 40
0.425196
 41
0.425196
  0
VERTEX
  8
0
 10
7.63222
 20
0.932835
 30
0.0
 40
0.0059055
 41
0.0059055
  0
VERTEX
  8
0
 10
7.62657
 20
0.930012
 30
0.0
 40
0.0059055
 41
0.0059055
  0
VERTEX
  8
0
 10
7.61247
 20
0.930012
 30
0.0
 40
0.0059055
 41
0.0059055
  0
VERTEX
  8
0
 10
7.60688
 20
0.932835
 30
0.0
 40
0.0059055
 41
0.0059055
  0
VERTEX
  8
0
 10
7.60411
 20
0.938531
 30
0.0
 40
0.0059055
 41
0.0059055
  0
VERTEX
  8
0
 10
7.60411
 20
0.944119
 30
0.0
 40
0.0059055
 41
0.0059055
  0
VERTEX
  8
0
 10
7.60688
 20
0.949707
 30
0.0
 40
0.0059055
 41
0.0059055
  0
VERTEX
  8
0
 10
7.61247
 20
0.952528
 30
0.0
 40
0.0059055
 41
0.0059055
  0
VERTEX
  8
0
 10
7.62657
 20
0.952528
 30
0.0
 40
0.0059055
 41
0.0059055
  0
VERTEX
  8
0
 10
7.63222
 20
0.955296
 30
0.0
 40
0.0059055
 41
0.0059055
  0
SEQEND
 8
0
  0
POLYLINE
  8
0
 62
     0
 66
     1
 10
0
 20
0
 30
0.0
 40
0.425196
 41
0.425196
  0
VERTEX
  8
0
 10
7.66032
 20
0.930012
 30
0.0
 40
0.0059055
 41
0.0059055
  0
VERTEX
  8
0
 10
7.66032
 20
0.969401
 30
0.0
 40
0.0059055
 41
0.0059055
  0
SEQEND
 8
0
  0
POLYLINE
  8
0
 62
     0
 66
     1
 10
0
 20
0
 30
0.0
 40
0.425196
 41
0.425196
  0
VERTEX
  8
0
 10
7.66032
 20
0.958117
 30
0.0
 40
0.0059055
 41
0.0059055
  0
VERTEX
  8
0
 10
7.66308
 20
0.963813
 30
0.0
 40
0.0059055
 41
0.0059055
  0
VERTEX
  8
0
 10
7.66601
 20
0.966635
 30
0.0
 40
0.0059055
 41
0.0059055
  0
VERTEX
  8
0
 10
7.6716
 20
0.969401
 30
0.0
 40
0.0059055
 41
0.0059055
  0
VERTEX
  8
0
 10
7.67719
 20
0.969401
 30
0.0
 40
0.0059055
 41
0.0059055
  0
SEQEND
 8
0
  0
POLYLINE
  8
0
 62
     0
 66
     1
 10
0
 20
0
 30
0.0
 40
0.425196
 41
0.425196
  0
VERTEX
  8
0
 10
7.72217
 20
0.930012
 30
0.0
 40
0.0059055
 41
0.0059055
  0
VERTEX
  8
0
 10
7.72217
 20
0.989094
 30
0.0
 40
0.0059055
 41
0.0059055
  0
SEQEND
 8
0
  0
POLYLINE
  8
0
 62
     0
 66
     1
 10
0
 20
0
 30
0.0
 40
0.425196
 41
0.425196
  0
VERTEX
  8
0
 10
7.72217
 20
0.932835
 30
0.0
 40
0.0059055
 41
0.0059055
  0
VERTEX
  8
0
 10
7.71658
 20
0.930012
 30
0.0
 40
0.0059055
 41
0.0059055
  0
VERTEX
  8
0
 10
7.70529
 20
0.930012
 30
0.0
 40
0.0059055
 41
0.0059055
  0
VERTEX
  8
0
 10
7.69971
 20
0.932835
 30
0.0
 40
0.0059055
 41
0.0059055
  0
VERTEX
  8
0
 10
7.69689
 20
0.93571
 30
0.0
 40
0.0059055
 41
0.0059055
  0
VERTEX
  8
0
 10
7.69412
 20
0.941297
 30
0.0
 40
0.0059055
 41
0.0059055
  0
VERTEX
  8
0
 10
7.69412
 20
0.958117
 30
0.0
 40
0.0059055
 41
0.0059055
  0
VERTEX
  8
0
 10
7.69689
 20
0.963813
 30
0.0
 40
0.0059055
 41
0.0059055
  0
VERTEX
  8
0
 10
7.69971
 20
0.966635
 30
0.0
 40
0.0059055
 41
0.0059055
  0
VERTEX
  8
0
 10
7.70529
 20
0.969401
 30
0.0
 40
0.0059055
 41
0.0059055
  0
VERTEX
  8
0
 10
7.71658
 20
0.969401
 30
0.0
 40
0.0059055
 41
0.0059055
  0
VERTEX
  8
0
 10
7.72217
 20
0.966635
 30
0.0
 40
0.0059055
 41
0.0059055
  0
SEQEND
 8
0
  0
POLYLINE
  8
0
 62
     0
 66
     1
 10
0
 20
0
 30
0.0
 40
0.425196
 41
0.425196
  0
VERTEX
  8
0
 10
7.75028
 20
0.93571
 30
0.0
 40
0.0059055
 41
0.0059055
  0
VERTEX
  8
0
 10
7.7531
 20
0.932835
 30
0.0
 40
0.0059055
 41
0.0059055
  0
VERTEX
  8
0
 10
7.75028
 20
0.930012
 30
0.0
 40
0.0059055
 41
0.0059055
  0
VERTEX
  8
0
 10
7.7475
 20
0.932835
 30
0.0
 40
0.0059055
 41
0.0059055
  0
VERTEX
  8
0
 10
7.75028
 20
0.93571
 30
0.0
 40
0.0059055
 41
0.0059055
  0
VERTEX
  8
0
 10
7.75028
 20
0.930012
 30
0.0
 40
0.0059055
 41
0.0059055
  0
SEQEND
 8
0
  0
POLYLINE
  8
0
 62
     0
 66
     1
 10
0
 20
0
 30
0.0
 40
0.425196
 41
0.425196
  0
VERTEX
  8
0
 10
7.77838
 20
0.930012
 30
0.0
 40
0.0059055
 41
0.0059055
  0
VERTEX
  8
0
 10
7.77838
 20
0.989094
 30
0.0
 40
0.0059055
 41
0.0059055
  0
SEQEND
 8
0
  0
POLYLINE
  8
0
 62
     0
 66
     1
 10
0
 20
0
 30
0.0
 40
0.425196
 41
0.425196
  0
VERTEX
  8
0
 10
7.78407
 20
0.952528
 30
0.0
 40
0.0059055
 41
0.0059055
  0
VERTEX
  8
0
 10
7.80089
 20
0.930012
 30
0.0
 40
0.0059055
 41
0.0059055
  0
SEQEND
 8
0
  0
POLYLINE
  8
0
 62
     0
 66
     1
 10
0
 20
0
 30
0.0
 40
0.425196
 41
0.425196
  0
VERTEX
  8
0
 10
7.80089
 20
0.969401
 30
0.0
 40
0.0059055
 41
0.0059055
  0
VERTEX
  8
0
 10
7.77838
 20
0.94694
 30
0.0
 40
0.0059055
 41
0.0059055
  0
SEQEND
 8
0
  0
POLYLINE
  8
0
 62
     0
 66
     1
 10
0
 20
0
 30
0.0
 40
0.425196
 41
0.425196
  0
VERTEX
  8
0
 10
7.82617
 20
0.930012
 30
0.0
 40
0.0059055
 41
0.0059055
  0
VERTEX
  8
0
 10
7.82617
 20
0.969401
 30
0.0
 40
0.0059055
 41
0.0059055
  0
SEQEND
 8
0
  0
POLYLINE
  8
0
 62
     0
 66
     1
 10
0
 20
0
 30
0.0
 40
0.425196
 41
0.425196
  0
VERTEX
  8
0
 10
7.82617
 20
0.989094
 30
0.0
 40
0.0059055
 41
0.0059055
  0
VERTEX
  8
0
 10
7.8234
 20
0.986328
 30
0.0
 40
0.0059055
 41
0.0059055
  0
VERTEX
  8
0
 10
7.82617
 20
0.983507
 30
0.0
 40
0.0059055
 41
0.0059055
  0
VERTEX
  8
0
 10
7.8291
 20
0.986328
 30
0.0
 40
0.0059055
 41
0.0059055
  0
VERTEX
  8
0
 10
7.82617
 20
0.989094
 30
0.0
 40
0.0059055
 41
0.0059055
  0
VERTEX
  8
0
 10
7.82617
 20
0.983507
 30
0.0
 40
0.0059055
 41
0.0059055
  0
SEQEND
 8
0
  0
POLYLINE
  8
0
 62
     0
 66
     1
 10
0
 20
0
 30
0.0
 40
0.425196
 41
0.425196
  0
VERTEX
  8
0
 10
7.87972
 20
0.932835
 30
0.0
 40
0.0059055
 41
0.0059055
  0
VERTEX
  8
0
 10
7.87408
 20
0.930012
 30
0.0
 40
0.0059055
 41
0.0059055
  0
VERTEX
  8
0
 10
7.86279
 20
0.930012
 30
0.0
 40
0.0059055
 41
0.0059055
  0
VERTEX
  8
0
 10
7.85721
 20
0.932835
 30
0.0
 40
0.0059055
 41
0.0059055
  0
VERTEX
  8
0
 10
7.85439
 20
0.93571
 30
0.0
 40
0.0059055
 41
0.0059055
  0
VERTEX
  8
0
 10
7.85161
 20
0.941297
 30
0.0
 40
0.0059055
 41
0.0059055
  0
VERTEX
  8
0
 10
7.85161
 20
0.958117
 30
0.0
 40
0.0059055
 41
0.0059055
  0
VERTEX
  8
0
 10
7.85439
 20
0.963813
 30
0.0
 40
0.0059055
 41
0.0059055
  0
VERTEX
  8
0
 10
7.85721
 20
0.966635
 30
0.0
 40
0.0059055
 41
0.0059055
  0
VERTEX
  8
0
 10
7.86279
 20
0.969401
 30
0.0
 40
0.0059055
 41
0.0059055
  0
VERTEX
  8
0
 10
7.87408
 20
0.969401
 30
0.0
 40
0.0059055
 41
0.0059055
  0
VERTEX
  8
0
 10
7.87972
 20
0.966635
 30
0.0
 40
0.0059055
 41
0.0059055
  0
SEQEND
 8
0
  0
POLYLINE
  8
0
 62
     0
 66
     1
 10
0
 20
0
 30
0.0
 40
0.425196
 41
0.425196
  0
VERTEX
  8
0
 10
7.93028
 20
0.930012
 30
0.0
 40
0.0059055
 41
0.0059055
  0
VERTEX
  8
0
 10
7.93028
 20
0.960992
 30
0.0
 40
0.0059055
 41
0.0059055
  0
VERTEX
  8
0
 10
7.92751
 20
0.966635
 30
0.0
 40
0.0059055
 41
0.0059055
  0
VERTEX
  8
0
 10
7.92188
 20
0.969401
 30
0.0
 40
0.0059055
 41
0.0059055
  0
VERTEX
  8
0
 10
7.9106
 20
0.969401
 30
0.0
 40
0.0059055
 41
0.0059055
  0
VERTEX
  8
0
 10
7.905
 20
0.966635
 30
0.0
 40
0.0059055
 41
0.0059055
  0
SEQEND
 8
0
  0
POLYLINE
  8
0
 62
     0
 66
     1
 10
0
 20
0
 30
0.0
 40
0.425196
 41
0.425196
  0
VERTEX
  8
0
 10
7.93028
 20
0.932835
 30
0.0
 40
0.0059055
 41
0.0059055
  0
VERTEX
  8
0
 10
7.92469
 20
0.930012
 30
0.0
 40
0.0059055
 41
0.0059055
  0
VERTEX
  8
0
 10
7.9106
 20
0.930012
 30
0.0
 40
0.0059055
 41
0.0059055
  0
VERTEX
  8
0
 10
7.905
 20
0.932835
 30
0.0
 40
0.0059055
 41
0.0059055
  0
VERTEX
  8
0
 10
7.90218
 20
0.938531
 30
0.0
 40
0.0059055
 41
0.0059055
  0
VERTEX
  8
0
 10
7.90218
 20
0.944119
 30
0.0
 40
0.0059055
 41
0.0059055
  0
VERTEX
  8
0
 10
7.905
 20
0.949707
 30
0.0
 40
0.0059055
 41
0.0059055
  0
VERTEX
  8
0
 10
7.9106
 20
0.952528
 30
0.0
 40
0.0059055
 41
0.0059055
  0
VERTEX
  8
0
 10
7.92469
 20
0.952528
 30
0.0
 40
0.0059055
 41
0.0059055
  0
VERTEX
  8
0
 10
7.93028
 20
0.955296
 30
0.0
 40
0.0059055
 41
0.0059055
  0
SEQEND
 8
0
  0
POLYLINE
  8
0
 62
     0
 66
     1
 10
0
 20
0
 30
0.0
 40
0.425196
 41
0.425196
  0
VERTEX
  8
0
 10
7.98367
 20
0.930012
 30
0.0
 40
0.0059055
 41
0.0059055
  0
VERTEX
  8
0
 10
7.98367
 20
0.989094
 30
0.0
 40
0.0059055
 41
0.0059055
  0
SEQEND
 8
0
  0
POLYLINE
  8
0
 62
     0
 66
     1
 10
0
 20
0
 30
0.0
 40
0.425196
 41
0.425196
  0
VERTEX
  8
0
 10
7.98367
 20
0.932835
 30
0.0
 40
0.0059055
 41
0.0059055
  0
VERTEX
  8
0
 10
7.97808
 20
0.930012
 30
0.0
 40
0.0059055
 41
0.0059055
  0
VERTEX
  8
0
 10
7.9669
 20
0.930012
 30
0.0
 40
0.0059055
 41
0.0059055
  0
VERTEX
  8
0
 10
7.96121
 20
0.932835
 30
0.0
 40
0.0059055
 41
0.0059055
  0
VERTEX
  8
0
 10
7.95839
 20
0.93571
 30
0.0
 40
0.0059055
 41
0.0059055
  0
VERTEX
  8
0
 10
7.95557
 20
0.941297
 30
0.0
 40
0.0059055
 41
0.0059055
  0
VERTEX
  8
0
 10
7.95557
 20
0.958117
 30
0.0
 40
0.0059055
 41
0.0059055
  0
VERTEX
  8
0
 10
7.95839
 20
0.963813
 30
0.0
 40
0.0059055
 41
0.0059055
  0
VERTEX
  8
0
 10
7.96121
 20
0.966635
 30
0.0
 40
0.0059055
 41
0.0059055
  0
VERTEX
  8
0
 10
7.9669
 20
0.969401
 30
0.0
 40
0.0059055
 41
0.0059055
  0
VERTEX
  8
0
 10
7.97808
 20
0.969401
 30
0.0
 40
0.0059055
 41
0.0059055
  0
VERTEX
  8
0
 10
7.98367
 20
0.966635
 30
0.0
 40
0.0059055
 41
0.0059055
  0
SEQEND
 8
0
  0
POLYLINE
  8
0
 62
     0
 66
     1
 10
0
 20
0
 30
0.0
 40
0.425196
 41
0.425196
  0
VERTEX
  8
0
 10
7.99778
 20
0.924425
 30
0.0
 40
0.0059055
 41
0.0059055
  0
VERTEX
  8
0
 10
8.04281
 20
0.924425
 30
0.0
 40
0.0059055
 41
0.0059055
  0
SEQEND
 8
0
  0
POLYLINE
  8
0
 62
     0
 66
     1
 10
0
 20
0
 30
0.0
 40
0.425196
 41
0.425196
  0
VERTEX
  8
0
 10
8.05681
 20
0.969401
 30
0.0
 40
0.0059055
 41
0.0059055
  0
VERTEX
  8
0
 10
8.05681
 20
0.910319
 30
0.0
 40
0.0059055
 41
0.0059055
  0
SEQEND
 8
0
  0
POLYLINE
  8
0
 62
     0
 66
     1
 10
0
 20
0
 30
0.0
 40
0.425196
 41
0.425196
  0
VERTEX
  8
0
 10
8.05681
 20
0.966635
 30
0.0
 40
0.0059055
 41
0.0059055
  0
VERTEX
  8
0
 10
8.0625
 20
0.969401
 30
0.0
 40
0.0059055
 41
0.0059055
  0
VERTEX
  8
0
 10
8.07368
 20
0.969401
 30
0.0
 40
0.0059055
 41
0.0059055
  0
VERTEX
  8
0
 10
8.07932
 20
0.966635
 30
0.0
 40
0.0059055
 41
0.0059055
  0
VERTEX
  8
0
 10
8.08219
 20
0.963813
 30
0.0
 40
0.0059055
 41
0.0059055
  0
VERTEX
  8
0
 10
8.08501
 20
0.958117
 30
0.0
 40
0.0059055
 41
0.0059055
  0
VERTEX
  8
0
 10
8.08501
 20
0.941297
 30
0.0
 40
0.0059055
 41
0.0059055
  0
VERTEX
  8
0
 10
8.08219
 20
0.93571
 30
0.0
 40
0.0059055
 41
0.0059055
  0
VERTEX
  8
0
 10
8.07932
 20
0.932835
 30
0.0
 40
0.0059055
 41
0.0059055
  0
VERTEX
  8
0
 10
8.07368
 20
0.930012
 30
0.0
 40
0.0059055
 41
0.0059055
  0
VERTEX
  8
0
 10
8.0625
 20
0.930012
 30
0.0
 40
0.0059055
 41
0.0059055
  0
VERTEX
  8
0
 10
8.05681
 20
0.932835
 30
0.0
 40
0.0059055
 41
0.0059055
  0
SEQEND
 8
0
  0
POLYLINE
  8
0
 62
     0
 66
     1
 10
0
 20
0
 30
0.0
 40
0.425196
 41
0.425196
  0
VERTEX
  8
0
 10
8.13558
 20
0.932835
 30
0.0
 40
0.0059055
 41
0.0059055
  0
VERTEX
  8
0
 10
8.12999
 20
0.930012
 30
0.0
 40
0.0059055
 41
0.0059055
  0
VERTEX
  8
0
 10
8.11871
 20
0.930012
 30
0.0
 40
0.0059055
 41
0.0059055
  0
VERTEX
  8
0
 10
8.11313
 20
0.932835
 30
0.0
 40
0.0059055
 41
0.0059055
  0
VERTEX
  8
0
 10
8.11029
 20
0.93571
 30
0.0
 40
0.0059055
 41
0.0059055
  0
VERTEX
  8
0
 10
8.10747
 20
0.941297
 30
0.0
 40
0.0059055
 41
0.0059055
  0
VERTEX
  8
0
 10
8.10747
 20
0.958117
 30
0.0
 40
0.0059055
 41
0.0059055
  0
VERTEX
  8
0
 10
8.11029
 20
0.963813
 30
0.0
 40
0.0059055
 41
0.0059055
  0
VERTEX
  8
0
 10
8.11313
 20
0.966635
 30
0.0
 40
0.0059055
 41
0.0059055
  0
VERTEX
  8
0
 10
8.11871
 20
0.969401
 30
0.0
 40
0.0059055
 41
0.0059055
  0
VERTEX
  8
0
 10
8.12999
 20
0.969401
 30
0.0
 40
0.0059055
 41
0.0059055
  0
VERTEX
  8
0
 10
8.13558
 20
0.966635
 30
0.0
 40
0.0059055
 41
0.0059055
  0
SEQEND
 8
0
  0
POLYLINE
  8
0
 62
     0
 66
     1
 10
0
 20
0
 30
0.0
 40
0.425196
 41
0.425196
  0
VERTEX
  8
0
 10
8.16092
 20
0.930012
 30
0.0
 40
0.0059055
 41
0.0059055
  0
VERTEX
  8
0
 10
8.16092
 20
0.989094
 30
0.0
 40
0.0059055
 41
0.0059055
  0
SEQEND
 8
0
  0
POLYLINE
  8
0
 62
     0
 66
     1
 10
0
 20
0
 30
0.0
 40
0.425196
 41
0.425196
  0
VERTEX
  8
0
 10
8.16092
 20
0.966635
 30
0.0
 40
0.0059055
 41
0.0059055
  0
VERTEX
  8
0
 10
8.1665
 20
0.969401
 30
0.0
 40
0.0059055
 41
0.0059055
  0
VERTEX
  8
0
 10
8.17779
 20
0.969401
 30
0.0
 40
0.0059055
 41
0.0059055
  0
VERTEX
  8
0
 10
8.18338
 20
0.966635
 30
0.0
 40
0.0059055
 41
0.0059055
  0
VERTEX
  8
0
 10
8.18619
 20
0.963813
 30
0.0
 40
0.0059055
 41
0.0059055
  0
VERTEX
  8
0
 10
8.18901
 20
0.958117
 30
0.0
 40
0.0059055
 41
0.0059055
  0
VERTEX
  8
0
 10
8.18901
 20
0.941297
 30
0.0
 40
0.0059055
 41
0.0059055
  0
VERTEX
  8
0
 10
8.18619
 20
0.93571
 30
0.0
 40
0.0059055
 41
0.0059055
  0
VERTEX
  8
0
 10
8.18338
 20
0.932835
 30
0.0
 40
0.0059055
 41
0.0059055
  0
VERTEX
  8
0
 10
8.17779
 20
0.930012
 30
0.0
 40
0.0059055
 41
0.0059055
  0
VERTEX
  8
0
 10
8.1665
 20
0.930012
 30
0.0
 40
0.0059055
 41
0.0059055
  0
VERTEX
  8
0
 10
8.16092
 20
0.932835
 30
0.0
 40
0.0059055
 41
0.0059055
  0
SEQEND
 8
0
  0
POLYLINE
  8
0
 62
     0
 66
     1
 10
0
 20
0
 30
0.0
 40
0.425196
 41
0.425196
  0
VERTEX
  8
0
 10
6.96847
 20
1.12212
 30
0.0
 40
0.0059055
 41
0.0059055
  0
VERTEX
  8
0
 10
11.2205
 20
1.12212
 30
0.0
 40
0.0059055
 41
0.0059055
  0
SEQEND
 8
0
  0
POLYLINE
  8
0
 62
     0
 66
     1
 10
0
 20
0
 30
0.0
 40
0.425196
 41
0.425196
  0
VERTEX
  8
0
 10
7.01921
 20
1.03912
 30
0.0
 40
0.0059055
 41
0.0059055
  0
VERTEX
  8
0
 10
7.02761
 20
1.0363
 30
0.0
 40
0.0059055
 41
0.0059055
  0
VERTEX
  8
0
 10
7.04172
 20
1.0363
 30
0.0
 40
0.0059055
 41
0.0059055
  0
VERTEX
  8
0
 10
7.04731
 20
1.03912
 30
0.0
 40
0.0059055
 41
0.0059055
  0
VERTEX
  8
0
 10
7.05007
 20
1.04199
 30
0.0
 40
0.0059055
 41
0.0059055
  0
VERTEX
  8
0
 10
7.0529
 20
1.04763
 30
0.0
 40
0.0059055
 41
0.0059055
  0
VERTEX
  8
0
 10
7.0529
 20
1.05322
 30
0.0
 40
0.0059055
 41
0.0059055
  0
VERTEX
  8
0
 10
7.05007
 20
1.05881
 30
0.0
 40
0.0059055
 41
0.0059055
  0
VERTEX
  8
0
 10
7.04731
 20
1.06163
 30
0.0
 40
0.0059055
 41
0.0059055
  0
VERTEX
  8
0
 10
7.04172
 20
1.0644
 30
0.0
 40
0.0059055
 41
0.0059055
  0
VERTEX
  8
0
 10
7.03039
 20
1.06733
 30
0.0
 40
0.0059055
 41
0.0059055
  0
VERTEX
  8
0
 10
7.02479
 20
1.0701
 30
0.0
 40
0.0059055
 41
0.0059055
  0
VERTEX
  8
0
 10
7.02197
 20
1.07292
 30
0.0
 40
0.0059055
 41
0.0059055
  0
VERTEX
  8
0
 10
7.01921
 20
1.07845
 30
0.0
 40
0.0059055
 41
0.0059055
  0
VERTEX
  8
0
 10
7.01921
 20
1.08409
 30
0.0
 40
0.0059055
 41
0.0059055
  0
VERTEX
  8
0
 10
7.02197
 20
1.08984
 30
0.0
 40
0.0059055
 41
0.0059055
  0
VERTEX
  8
0
 10
7.02479
 20
1.09261
 30
0.0
 40
0.0059055
 41
0.0059055
  0
VERTEX
  8
0
 10
7.03039
 20
1.09543
 30
0.0
 40
0.0059055
 41
0.0059055
  0
VERTEX
  8
0
 10
7.04449
 20
1.09543
 30
0.0
 40
0.0059055
 41
0.0059055
  0
VERTEX
  8
0
 10
7.0529
 20
1.09261
 30
0.0
 40
0.0059055
 41
0.0059055
  0
SEQEND
 8
0
  0
POLYLINE
  8
0
 62
     0
 66
     1
 10
0
 20
0
 30
0.0
 40
0.425196
 41
0.425196
  0
VERTEX
  8
0
 10
7.07818
 20
1.0363
 30
0.0
 40
0.0059055
 41
0.0059055
  0
VERTEX
  8
0
 10
7.07818
 20
1.09543
 30
0.0
 40
0.0059055
 41
0.0059055
  0
SEQEND
 8
0
  0
POLYLINE
  8
0
 62
     0
 66
     1
 10
0
 20
0
 30
0.0
 40
0.425196
 41
0.425196
  0
VERTEX
  8
0
 10
7.10351
 20
1.0363
 30
0.0
 40
0.0059055
 41
0.0059055
  0
VERTEX
  8
0
 10
7.10351
 20
1.06733
 30
0.0
 40
0.0059055
 41
0.0059055
  0
VERTEX
  8
0
 10
7.10069
 20
1.07292
 30
0.0
 40
0.0059055
 41
0.0059055
  0
VERTEX
  8
0
 10
7.09511
 20
1.07574
 30
0.0
 40
0.0059055
 41
0.0059055
  0
VERTEX
  8
0
 10
7.08669
 20
1.07574
 30
0.0
 40
0.0059055
 41
0.0059055
  0
VERTEX
  8
0
 10
7.081
 20
1.07292
 30
0.0
 40
0.0059055
 41
0.0059055
  0
VERTEX
  8
0
 10
7.07818
 20
1.0701
 30
0.0
 40
0.0059055
 41
0.0059055
  0
SEQEND
 8
0
  0
POLYLINE
  8
0
 62
     0
 66
     1
 10
0
 20
0
 30
0.0
 40
0.425196
 41
0.425196
  0
VERTEX
  8
0
 10
7.15408
 20
1.03912
 30
0.0
 40
0.0059055
 41
0.0059055
  0
VERTEX
  8
0
 10
7.14849
 20
1.0363
 30
0.0
 40
0.0059055
 41
0.0059055
  0
VERTEX
  8
0
 10
7.13732
 20
1.0363
 30
0.0
 40
0.0059055
 41
0.0059055
  0
VERTEX
  8
0
 10
7.13162
 20
1.03912
 30
0.0
 40
0.0059055
 41
0.0059055
  0
VERTEX
  8
0
 10
7.12879
 20
1.04481
 30
0.0
 40
0.0059055
 41
0.0059055
  0
VERTEX
  8
0
 10
7.12879
 20
1.06733
 30
0.0
 40
0.0059055
 41
0.0059055
  0
VERTEX
  8
0
 10
7.13162
 20
1.07292
 30
0.0
 40
0.0059055
 41
0.0059055
  0
VERTEX
  8
0
 10
7.13732
 20
1.07574
 30
0.0
 40
0.0059055
 41
0.0059055
  0
VERTEX
  8
0
 10
7.14849
 20
1.07574
 30
0.0
 40
0.0059055
 41
0.0059055
  0
VERTEX
  8
0
 10
7.15408
 20
1.07292
 30
0.0
 40
0.0059055
 41
0.0059055
  0
VERTEX
  8
0
 10
7.15701
 20
1.06733
 30
0.0
 40
0.0059055
 41
0.0059055
  0
VERTEX
  8
0
 10
7.15701
 20
1.06163
 30
0.0
 40
0.0059055
 41
0.0059055
  0
VERTEX
  8
0
 10
7.12879
 20
1.05604
 30
0.0
 40
0.0059055
 41
0.0059055
  0
SEQEND
 8
0
  0
POLYLINE
  8
0
 62
     0
 66
     1
 10
0
 20
0
 30
0.0
 40
0.425196
 41
0.425196
  0
VERTEX
  8
0
 10
7.20481
 20
1.03912
 30
0.0
 40
0.0059055
 41
0.0059055
  0
VERTEX
  8
0
 10
7.19911
 20
1.0363
 30
0.0
 40
0.0059055
 41
0.0059055
  0
VERTEX
  8
0
 10
7.18787
 20
1.0363
 30
0.0
 40
0.0059055
 41
0.0059055
  0
VERTEX
  8
0
 10
7.18229
 20
1.03912
 30
0.0
 40
0.0059055
 41
0.0059055
  0
VERTEX
  8
0
 10
7.17947
 20
1.04481
 30
0.0
 40
0.0059055
 41
0.0059055
  0
VERTEX
  8
0
 10
7.17947
 20
1.06733
 30
0.0
 40
0.0059055
 41
0.0059055
  0
VERTEX
  8
0
 10
7.18229
 20
1.07292
 30
0.0
 40
0.0059055
 41
0.0059055
  0
VERTEX
  8
0
 10
7.18787
 20
1.07574
 30
0.0
 40
0.0059055
 41
0.0059055
  0
VERTEX
  8
0
 10
7.19911
 20
1.07574
 30
0.0
 40
0.0059055
 41
0.0059055
  0
VERTEX
  8
0
 10
7.20481
 20
1.07292
 30
0.0
 40
0.0059055
 41
0.0059055
  0
VERTEX
  8
0
 10
7.20757
 20
1.06733
 30
0.0
 40
0.0059055
 41
0.0059055
  0
VERTEX
  8
0
 10
7.20757
 20
1.06163
 30
0.0
 40
0.0059055
 41
0.0059055
  0
VERTEX
  8
0
 10
7.17947
 20
1.05604
 30
0.0
 40
0.0059055
 41
0.0059055
  0
SEQEND
 8
0
  0
POLYLINE
  8
0
 62
     0
 66
     1
 10
0
 20
0
 30
0.0
 40
0.425196
 41
0.425196
  0
VERTEX
  8
0
 10
7.22439
 20
1.07574
 30
0.0
 40
0.0059055
 41
0.0059055
  0
VERTEX
  8
0
 10
7.2469
 20
1.07574
 30
0.0
 40
0.0059055
 41
0.0059055
  0
SEQEND
 8
0
  0
POLYLINE
  8
0
 62
     0
 66
     1
 10
0
 20
0
 30
0.0
 40
0.425196
 41
0.425196
  0
VERTEX
  8
0
 10
7.23292
 20
1.09543
 30
0.0
 40
0.0059055
 41
0.0059055
  0
VERTEX
  8
0
 10
7.23292
 20
1.04481
 30
0.0
 40
0.0059055
 41
0.0059055
  0
VERTEX
  8
0
 10
7.23568
 20
1.03912
 30
0.0
 40
0.0059055
 41
0.0059055
  0
VERTEX
  8
0
 10
7.24132
 20
1.0363
 30
0.0
 40
0.0059055
 41
0.0059055
  0
VERTEX
  8
0
 10
7.2469
 20
1.0363
 30
0.0
 40
0.0059055
 41
0.0059055
  0
SEQEND
 8
0
  0
POLYLINE
  8
0
 62
     0
 66
     1
 10
0
 20
0
 30
0.0
 40
0.425196
 41
0.425196
  0
VERTEX
  8
0
 10
7.2666
 20
1.04199
 30
0.0
 40
0.0059055
 41
0.0059055
  0
VERTEX
  8
0
 10
7.26938
 20
1.03912
 30
0.0
 40
0.0059055
 41
0.0059055
  0
VERTEX
  8
0
 10
7.2666
 20
1.0363
 30
0.0
 40
0.0059055
 41
0.0059055
  0
VERTEX
  8
0
 10
7.26378
 20
1.03912
 30
0.0
 40
0.0059055
 41
0.0059055
  0
VERTEX
  8
0
 10
7.2666
 20
1.04199
 30
0.0
 40
0.0059055
 41
0.0059055
  0
VERTEX
  8
0
 10
7.2666
 20
1.0363
 30
0.0
 40
0.0059055
 41
0.0059055
  0
SEQEND
 8
0
  0
POLYLINE
  8
0
 62
     0
 66
     1
 10
0
 20
0
 30
0.0
 40
0.425196
 41
0.425196
  0
VERTEX
  8
0
 10
7.2666
 20
1.07292
 30
0.0
 40
0.0059055
 41
0.0059055
  0
VERTEX
  8
0
 10
7.26938
 20
1.0701
 30
0.0
 40
0.0059055
 41
0.0059055
  0
VERTEX
  8
0
 10
7.2666
 20
1.06733
 30
0.0
 40
0.0059055
 41
0.0059055
  0
VERTEX
  8
0
 10
7.26378
 20
1.0701
 30
0.0
 40
0.0059055
 41
0.0059055
  0
VERTEX
  8
0
 10
7.2666
 20
1.07292
 30
0.0
 40
0.0059055
 41
0.0059055
  0
VERTEX
  8
0
 10
7.2666
 20
1.06733
 30
0.0
 40
0.0059055
 41
0.0059055
  0
SEQEND
 8
0
  0
POLYLINE
  8
0
 62
     0
 66
     1
 10
0
 20
0
 30
0.0
 40
0.425196
 41
0.425196
  0
VERTEX
  8
0
 10
7.75592
 20
0.728407
 30
0.0
 40
0.0059055
 41
0.0059055
  0
VERTEX
  8
0
 10
7.75592
 20
0.610297
 30
0.0
 40
0.0059055
 41
0.0059055
  0
SEQEND
 8
0
  0
POLYLINE
  8
0
 62
     0
 66
     1
 10
0
 20
0
 30
0.0
 40
0.425196
 41
0.425196
  0
VERTEX
  8
0
 10
10.2756
 20
0.728407
 30
0.0
 40
0.0059055
 41
0.0059055
  0
VERTEX
  8
0
 10
10.2756
 20
0.472493
 30
0.0
 40
0.0059055
 41
0.0059055
  0
SEQEND
 8
0
  0
POLYLINE
  8
0
 62
     52
 66
     1
 10
0
 20
0
 30
0.0
 40
0.425196
 41
0.425196
  0
VERTEX
  8
0
 10
5.51178
 20
2.75624
 30
0.0
 40
0.0059055
 41
0.0059055
  0
VERTEX
  8
0
 10
5.51178
 20
4.13422
 30
0.0
 40
0.0059055
 41
0.0059055
  0
SEQEND
 8
0
  0
POLYLINE
  8
0
 62
     52
 66
     1
 10
0
 20
0
 30
0.0
 40
0.425196
 41
0.425196
  0
VERTEX
  8
0
 10
6.98812
 20
2.75624
 30
0.0
 40
0.0059055
 41
0.0059055
  0
VERTEX
  8
0
 10
5.51178
 20
2.75624
 30
0.0
 40
0.0059055
 41
0.0059055
  0
SEQEND
 8
0
  0
POLYLINE
  8
0
 62
     52
 66
     1
 10
0
 20
0
 30
0.0
 40
0.425196
 41
0.425196
  0
VERTEX
  8
0
 10
6.98812
 20
4.13422
 30
0.0
 40
0.0059055
 41
0.0059055
  0
VERTEX
  8
0
 10
6.98812
 20
2.75624
 30
0.0
 40
0.0059055
 41
0.0059055
  0
SEQEND
 8
0
  0
POLYLINE
  8
0
 62
     52
 66
     1
 10
0
 20
0
 30
0.0
 40
0.425196
 41
0.425196
  0
VERTEX
  8
0
 10
5.51178
 20
4.13422
 30
0.0
 40
0.0059055
 41
0.0059055
  0
VERTEX
  8
0
 10
6.98812
 20
4.13422
 30
0.0
 40
0.0059055
 41
0.0059055
  0
SEQEND
 8
0
  0
POLYLINE
  8
0
 62
     14
 66
     1
 10
0
 20
0
 30
0.0
 70
     1
 40
0
 41
0
  0
VERTEX
  8
0
 10
5.84147
 20
3.45719
 30
0.0
 40
0
 41
0
  0
VERTEX
  8
0
 10
5.8986
 20
3.45719
 30
0.0
 40
0
 41
0
  0
VERTEX
  8
0
 10
5.8986
 20
3.41189
 30
0.0
 40
0
 41
0
  0
VERTEX
  8
0
 10
5.84147
 20
3.41189
 30
0.0
 40
0
 41
0
  0
VERTEX
  8
0
 10
5.84147
 20
3.45719
 30
0.0
 40
0
 41
0
  0
SEQEND
 8
0
  0
POLYLINE
  8
0
 62
     14
 66
     1
 10
0
 20
0
 30
0.0
 70
     1
 40
0
 41
0
  0
VERTEX
  8
0
 10
5.84147
 20
3.38639
 30
0.0
 40
0
 41
0
  0
VERTEX
  8
0
 10
5.8986
 20
3.38639
 30
0.0
 40
0
 41
0
  0
VERTEX
  8
0
 10
5.8986
 20
3.3411
 30
0.0
 40
0
 41
0
  0
VERTEX
  8
0
 10
5.84147
 20
3.3411
 30
0.0
 40
0
 41
0
  0
VERTEX
  8
0
 10
5.84147
 20
3.38639
 30
0.0
 40
0
 41
0
  0
SEQEND
 8
0
  0
POLYLINE
  8
0
 62
     14
 66
     1
 10
0
 20
0
 30
0.0
 70
     1
 40
0
 41
0
  0
VERTEX
  8
0
 10
6.3214
 20
3.20053
 30
0.0
 40
0
 41
0
  0
VERTEX
  8
0
 10
6.36669
 20
3.20053
 30
0.0
 40
0
 41
0
  0
VERTEX
  8
0
 10
6.36669
 20
3.14339
 30
0.0
 40
0
 41
0
  0
VERTEX
  8
0
 10
6.3214
 20
3.14339
 30
0.0
 40
0
 41
0
  0
VERTEX
  8
0
 10
6.3214
 20
3.20053
 30
0.0
 40
0
 41
0
  0
SEQEND
 8
0
  0
POLYLINE
  8
0
 62
     14
 66
     1
 10
0
 20
0
 30
0.0
 70
     1
 40
0
 41
0
  0
VERTEX
  8
0
 10
6.39231
 20
3.20053
 30
0.0
 40
0
 41
0
  0
VERTEX
  8
0
 10
6.4375
 20
3.20053
 30
0.0
 40
0
 41
0
  0
VERTEX
  8
0
 10
6.4375
 20
3.14339
 30
0.0
 40
0
 41
0
  0
VERTEX
  8
0
 10
6.39231
 20
3.14339
 30
0.0
 40
0
 41
0
  0
VERTEX
  8
0
 10
6.39231
 20
3.20053
 30
0.0
 40
0
 41
0
  0
SEQEND
 8
0
  0
POLYLINE
  8
0
 62
     14
 66
     1
 10
0
 20
0
 30
0.0
 70
     1
 40
0
 41
0
  0
VERTEX
  8
0
 10
6.11897
 20
3.60292
 30
0.0
 40
0
 41
0
  0
VERTEX
  8
0
 10
6.17611
 20
3.60292
 30
0.0
 40
0
 41
0
  0
VERTEX
  8
0
 10
6.17611
 20
3.55761
 30
0.0
 40
0
 41
0
  0
VERTEX
  8
0
 10
6.11897
 20
3.55761
 30
0.0
 40
0
 41
0
  0
VERTEX
  8
0
 10
6.11897
 20
3.60292
 30
0.0
 40
0
 41
0
  0
SEQEND
 8
0
  0
POLYLINE
  8
0
 62
     14
 66
     1
 10
0
 20
0
 30
0.0
 70
     1
 40
0
 41
0
  0
VERTEX
  8
0
 10
6.11897
 20
3.67383
 30
0.0
 40
0
 41
0
  0
VERTEX
  8
0
 10
6.17611
 20
3.67383
 30
0.0
 40
0
 41
0
  0
VERTEX
  8
0
 10
6.17611
 20
3.62853
 30
0.0
 40
0
 41
0
  0
VERTEX
  8
0
 10
6.11897
 20
3.62853
 30
0.0
 40
0
 41
0
  0
VERTEX
  8
0
 10
6.11897
 20
3.67383
 30
0.0
 40
0
 41
0
  0
SEQEND
 8
0
  0
POLYLINE
  8
0
 62
     14
 66
     1
 10
0
 20
0
 30
0.0
 70
     1
 40
0
 41
0
  0
VERTEX
  8
0
 10
6.0076
 20
3.59663
 30
0.0
 40
0
 41
0
  0
VERTEX
  8
0
 10
6.06467
 20
3.59663
 30
0.0
 40
0
 41
0
  0
VERTEX
  8
0
 10
6.06467
 20
3.55132
 30
0.0
 40
0
 41
0
  0
VERTEX
  8
0
 10
6.0076
 20
3.55132
 30
0.0
 40
0
 41
0
  0
VERTEX
  8
0
 10
6.0076
 20
3.59663
 30
0.0
 40
0
 41
0
  0
SEQEND
 8
0
  0
POLYLINE
  8
0
 62
     14
 66
     1
 10
0
 20
0
 30
0.0
 70
     1
 40
0
 41
0
  0
VERTEX
  8
0
 10
6.0076
 20
3.52572
 30
0.0
 40
0
 41
0
  0
VERTEX
  8
0
 10
6.06467
 20
3.52572
 30
0.0
 40
0
 41
0
  0
VERTEX
  8
0
 10
6.06467
 20
3.48053
 30
0.0
 40
0
 41
0
  0
VERTEX
  8
0
 10
6.0076
 20
3.48053
 30
0.0
 40
0
 41
0
  0
VERTEX
  8
0
 10
6.0076
 20
3.52572
 30
0.0
 40
0
 41
0
  0
SEQEND
 8
0
  0
POLYLINE
  8
0
 62
     14
 66
     1
 10
0
 20
0
 30
0.0
 70
     1
 40
0
 41
0
  0
VERTEX
  8
0
 10
6.03749
 20
3.2029
 30
0.0
 40
0
 41
0
  0
VERTEX
  8
0
 10
6.08279
 20
3.2029
 30
0.0
 40
0
 41
0
  0
VERTEX
  8
0
 10
6.08279
 20
3.14583
 30
0.0
 40
0
 41
0
  0
VERTEX
  8
0
 10
6.03749
 20
3.14583
 30
0.0
 40
0
 41
0
  0
VERTEX
  8
0
 10
6.03749
 20
3.2029
 30
0.0
 40
0
 41
0
  0
SEQEND
 8
0
  0
POLYLINE
  8
0
 62
     14
 66
     1
 10
0
 20
0
 30
0.0
 70
     1
 40
0
 41
0
  0
VERTEX
  8
0
 10
6.1084
 20
3.2029
 30
0.0
 40
0
 41
0
  0
VERTEX
  8
0
 10
6.15369
 20
3.2029
 30
0.0
 40
0
 41
0
  0
VERTEX
  8
0
 10
6.15369
 20
3.14583
 30
0.0
 40
0
 41
0
  0
VERTEX
  8
0
 10
6.1084
 20
3.14583
 30
0.0
 40
0
 41
0
  0
VERTEX
  8
0
 10
6.1084
 20
3.2029
 30
0.0
 40
0
 41
0
  0
SEQEND
 8
0
  0
POLYLINE
  8
0
 62
     14
 66
     1
 10
0
 20
0
 30
0.0
 70
     1
 40
0
 41
0
  0
VERTEX
  8
0
 10
6.27647
 20
3.58561
 30
0.0
 40
0
 41
0
  0
VERTEX
  8
0
 10
6.33361
 20
3.58561
 30
0.0
 40
0
 41
0
  0
VERTEX
  8
0
 10
6.33361
 20
3.54031
 30
0.0
 40
0
 41
0
  0
VERTEX
  8
0
 10
6.27647
 20
3.54031
 30
0.0
 40
0
 41
0
  0
VERTEX
  8
0
 10
6.27647
 20
3.58561
 30
0.0
 40
0
 41
0
  0
SEQEND
 8
0
  0
POLYLINE
  8
0
 62
     14
 66
     1
 10
0
 20
0
 30
0.0
 70
     1
 40
0
 41
0
  0
VERTEX
  8
0
 10
6.27647
 20
3.65642
 30
0.0
 40
0
 41
0
  0
VERTEX
  8
0
 10
6.33361
 20
3.65642
 30
0.0
 40
0
 41
0
  0
VERTEX
  8
0
 10
6.33361
 20
3.61122
 30
0.0
 40
0
 41
0
  0
VERTEX
  8
0
 10
6.27647
 20
3.61122
 30
0.0
 40
0
 41
0
  0
VERTEX
  8
0
 10
6.27647
 20
3.65642
 30
0.0
 40
0
 41
0
  0
SEQEND
 8
0
  0
POLYLINE
  8
0
 62
     14
 66
     1
 10
0
 20
0
 30
0.0
 70
     1
 40
0
 41
0
  0
VERTEX
  8
0
 10
6.48828
 20
3.54454
 30
0.0
 40
0
 41
0
  0
VERTEX
  8
0
 10
6.54542
 20
3.54454
 30
0.0
 40
0
 41
0
  0
VERTEX
  8
0
 10
6.54542
 20
3.49924
 30
0.0
 40
0
 41
0
  0
VERTEX
  8
0
 10
6.48828
 20
3.49924
 30
0.0
 40
0
 41
0
  0
VERTEX
  8
0
 10
6.48828
 20
3.54454
 30
0.0
 40
0
 41
0
  0
SEQEND
 8
0
  0
POLYLINE
  8
0
 62
     14
 66
     1
 10
0
 20
0
 30
0.0
 70
     1
 40
0
 41
0
  0
VERTEX
  8
0
 10
6.48828
 20
3.6155
 30
0.0
 40
0
 41
0
  0
VERTEX
  8
0
 10
6.54542
 20
3.6155
 30
0.0
 40
0
 41
0
  0
VERTEX
  8
0
 10
6.54542
 20
3.57021
 30
0.0
 40
0
 41
0
  0
VERTEX
  8
0
 10
6.48828
 20
3.57021
 30
0.0
 40
0
 41
0
  0
VERTEX
  8
0
 10
6.48828
 20
3.6155
 30
0.0
 40
0
 41
0
  0
SEQEND
 8
0
  0
POLYLINE
  8
0
 62
     14
 66
     1
 10
0
 20
0
 30
0.0
 70
     1
 40
0
 41
0
  0
VERTEX
  8
0
 10
5.685
 20
3.46468
 30
0.0
 40
0
 41
0
  0
VERTEX
  8
0
 10
5.70861
 20
3.46468
 30
0.0
 40
0
 41
0
  0
VERTEX
  8
0
 10
5.70861
 20
3.40956
 30
0.0
 40
0
 41
0
  0
VERTEX
  8
0
 10
5.685
 20
3.40956
 30
0.0
 40
0
 41
0
  0
VERTEX
  8
0
 10
5.685
 20
3.46468
 30
0.0
 40
0
 41
0
  0
SEQEND
 8
0
  0
POLYLINE
  8
0
 62
     14
 66
     1
 10
0
 20
0
 30
0.0
 70
     1
 40
0
 41
0
  0
VERTEX
  8
0
 10
5.64757
 20
3.46468
 30
0.0
 40
0
 41
0
  0
VERTEX
  8
0
 10
5.67117
 20
3.46468
 30
0.0
 40
0
 41
0
  0
VERTEX
  8
0
 10
5.67117
 20
3.40956
 30
0.0
 40
0
 41
0
  0
VERTEX
  8
0
 10
5.64757
 20
3.40956
 30
0.0
 40
0
 41
0
  0
VERTEX
  8
0
 10
5.64757
 20
3.46468
 30
0.0
 40
0
 41
0
  0
SEQEND
 8
0
  0
POLYLINE
  8
0
 62
     14
 66
     1
 10
0
 20
0
 30
0.0
 70
     1
 40
0
 41
0
  0
VERTEX
  8
0
 10
5.61019
 20
3.46468
 30
0.0
 40
0
 41
0
  0
VERTEX
  8
0
 10
5.63379
 20
3.46468
 30
0.0
 40
0
 41
0
  0
VERTEX
  8
0
 10
5.63379
 20
3.40956
 30
0.0
 40
0
 41
0
  0
VERTEX
  8
0
 10
5.61019
 20
3.40956
 30
0.0
 40
0
 41
0
  0
VERTEX
  8
0
 10
5.61019
 20
3.46468
 30
0.0
 40
0
 41
0
  0
SEQEND
 8
0
  0
POLYLINE
  8
0
 62
     14
 66
     1
 10
0
 20
0
 30
0.0
 70
     1
 40
0
 41
0
  0
VERTEX
  8
0
 10
5.685
 20
3.37299
 30
0.0
 40
0
 41
0
  0
VERTEX
  8
0
 10
5.70861
 20
3.37299
 30
0.0
 40
0
 41
0
  0
VERTEX
  8
0
 10
5.70861
 20
3.31793
 30
0.0
 40
0
 41
0
  0
VERTEX
  8
0
 10
5.685
 20
3.31793
 30
0.0
 40
0
 41
0
  0
VERTEX
  8
0
 10
5.685
 20
3.37299
 30
0.0
 40
0
 41
0
  0
SEQEND
 8
0
  0
POLYLINE
  8
0
 62
     14
 66
     1
 10
0
 20
0
 30
0.0
 70
     1
 40
0
 41
0
  0
VERTEX
  8
0
 10
5.64757
 20
3.37299
 30
0.0
 40
0
 41
0
  0
VERTEX
  8
0
 10
5.67117
 20
3.37299
 30
0.0
 40
0
 41
0
  0
VERTEX
  8
0
 10
5.67117
 20
3.31793
 30
0.0
 40
0
 41
0
  0
VERTEX
  8
0
 10
5.64757
 20
3.31793
 30
0.0
 40
0
 41
0
  0
VERTEX
  8
0
 10
5.64757
 20
3.37299
 30
0.0
 40
0
 41
0
  0
SEQEND
 8
0
  0
POLYLINE
  8
0
 62
     14
 66
     1
 10
0
 20
0
 30
0.0
 70
     1
 40
0
 41
0
  0
VERTEX
  8
0
 10
5.61019
 20
3.37299
 30
0.0
 40
0
 41
0
  0
VERTEX
  8
0
 10
5.63379
 20
3.37299
 30
0.0
 40
0
 41
0
  0
VERTEX
  8
0
 10
5.63379
 20
3.31793
 30
0.0
 40
0
 41
0
  0
VERTEX
  8
0
 10
5.61019
 20
3.31793
 30
0.0
 40
0
 41
0
  0
VERTEX
  8
0
 10
5.61019
 20
3.37299
 30
0.0
 40
0
 41
0
  0
SEQEND
 8
0
  0
POLYLINE
  8
0
 62
     14
 66
     1
 10
0
 20
0
 30
0.0
 70
     1
 40
0
 41
0
  0
VERTEX
  8
0
 10
6.15072
 20
3.31044
 30
0.0
 40
0
 41
0
  0
VERTEX
  8
0
 10
6.20469
 20
3.31044
 30
0.0
 40
0
 41
0
  0
VERTEX
  8
0
 10
6.20469
 20
3.29736
 30
0.0
 40
0
 41
0
  0
VERTEX
  8
0
 10
6.15072
 20
3.29736
 30
0.0
 40
0
 41
0
  0
VERTEX
  8
0
 10
6.15072
 20
3.31044
 30
0.0
 40
0
 41
0
  0
SEQEND
 8
0
  0
POLYLINE
  8
0
 62
     14
 66
     1
 10
0
 20
0
 30
0.0
 70
     1
 40
0
 41
0
  0
VERTEX
  8
0
 10
6.15072
 20
3.32943
 30
0.0
 40
0
 41
0
  0
VERTEX
  8
0
 10
6.20469
 20
3.32943
 30
0.0
 40
0
 41
0
  0
VERTEX
  8
0
 10
6.20469
 20
3.31635
 30
0.0
 40
0
 41
0
  0
VERTEX
  8
0
 10
6.15072
 20
3.31635
 30
0.0
 40
0
 41
0
  0
VERTEX
  8
0
 10
6.15072
 20
3.32943
 30
0.0
 40
0
 41
0
  0
SEQEND
 8
0
  0
POLYLINE
  8
0
 62
     14
 66
     1
 10
0
 20
0
 30
0.0
 70
     1
 40
0
 41
0
  0
VERTEX
  8
0
 10
6.15072
 20
3.34939
 30
0.0
 40
0
 41
0
  0
VERTEX
  8
0
 10
6.20469
 20
3.34939
 30
0.0
 40
0
 41
0
  0
VERTEX
  8
0
 10
6.20469
 20
3.33643
 30
0.0
 40
0
 41
0
  0
VERTEX
  8
0
 10
6.15072
 20
3.33643
 30
0.0
 40
0
 41
0
  0
VERTEX
  8
0
 10
6.15072
 20
3.34939
 30
0.0
 40
0
 41
0
  0
SEQEND
 8
0
  0
POLYLINE
  8
0
 62
     14
 66
     1
 10
0
 20
0
 30
0.0
 70
     1
 40
0
 41
0
  0
VERTEX
  8
0
 10
6.15072
 20
3.36942
 30
0.0
 40
0
 41
0
  0
VERTEX
  8
0
 10
6.20469
 20
3.36942
 30
0.0
 40
0
 41
0
  0
VERTEX
  8
0
 10
6.20469
 20
3.35633
 30
0.0
 40
0
 41
0
  0
VERTEX
  8
0
 10
6.15072
 20
3.35633
 30
0.0
 40
0
 41
0
  0
VERTEX
  8
0
 10
6.15072
 20
3.36942
 30
0.0
 40
0
 41
0
  0
SEQEND
 8
0
  0
POLYLINE
  8
0
 62
     14
 66
     1
 10
0
 20
0
 30
0.0
 70
     1
 40
0
 41
0
  0
VERTEX
  8
0
 10
6.15072
 20
3.3884
 30
0.0
 40
0
 41
0
  0
VERTEX
  8
0
 10
6.20469
 20
3.3884
 30
0.0
 40
0
 41
0
  0
VERTEX
  8
0
 10
6.20469
 20
3.37537
 30
0.0
 40
0
 41
0
  0
VERTEX
  8
0
 10
6.15072
 20
3.37537
 30
0.0
 40
0
 41
0
  0
VERTEX
  8
0
 10
6.15072
 20
3.3884
 30
0.0
 40
0
 41
0
  0
SEQEND
 8
0
  0
POLYLINE
  8
0
 62
     14
 66
     1
 10
0
 20
0
 30
0.0
 70
     1
 40
0
 41
0
  0
VERTEX
  8
0
 10
5.97868
 20
3.3884
 30
0.0
 40
0
 41
0
  0
VERTEX
  8
0
 10
6.03271
 20
3.3884
 30
0.0
 40
0
 41
0
  0
VERTEX
  8
0
 10
6.03271
 20
3.37537
 30
0.0
 40
0
 41
0
  0
VERTEX
  8
0
 10
5.97868
 20
3.37537
 30
0.0
 40
0
 41
0
  0
VERTEX
  8
0
 10
5.97868
 20
3.3884
 30
0.0
 40
0
 41
0
  0
SEQEND
 8
0
  0
POLYLINE
  8
0
 62
     14
 66
     1
 10
0
 20
0
 30
0.0
 70
     1
 40
0
 41
0
  0
VERTEX
  8
0
 10
5.97868
 20
3.36942
 30
0.0
 40
0
 41
0
  0
VERTEX
  8
0
 10
6.03271
 20
3.36942
 30
0.0
 40
0
 41
0
  0
VERTEX
  8
0
 10
6.03271
 20
3.35633
 30
0.0
 40
0
 41
0
  0
VERTEX
  8
0
 10
5.97868
 20
3.35633
 30
0.0
 40
0
 41
0
  0
VERTEX
  8
0
 10
5.97868
 20
3.36942
 30
0.0
 40
0
 41
0
  0
SEQEND
 8
0
  0
POLYLINE
  8
0
 62
     14
 66
     1
 10
0
 20
0
 30
0.0
 70
     1
 40
0
 41
0
  0
VERTEX
  8
0
 10
5.97868
 20
3.34939
 30
0.0
 40
0
 41
0
  0
VERTEX
  8
0
 10
6.03271
 20
3.34939
 30
0.0
 40
0
 41
0
  0
VERTEX
  8
0
 10
6.03271
 20
3.33643
 30
0.0
 40
0
 41
0
  0
VERTEX
  8
0
 10
5.97868
 20
3.33643
 30
0.0
 40
0
 41
0
  0
VERTEX
  8
0
 10
5.97868
 20
3.34939
 30
0.0
 40
0
 41
0
  0
SEQEND
 8
0
  0
POLYLINE
  8
0
 62
     14
 66
     1
 10
0
 20
0
 30
0.0
 70
     1
 40
0
 41
0
  0
VERTEX
  8
0
 10
5.97868
 20
3.32943
 30
0.0
 40
0
 41
0
  0
VERTEX
  8
0
 10
6.03271
 20
3.32943
 30
0.0
 40
0
 41
0
  0
VERTEX
  8
0
 10
6.03271
 20
3.31635
 30
0.0
 40
0
 41
0
  0
VERTEX
  8
0
 10
5.97868
 20
3.31635
 30
0.0
 40
0
 41
0
  0
VERTEX
  8
0
 10
5.97868
 20
3.32943
 30
0.0
 40
0
 41
0
  0
SEQEND
 8
0
  0
POLYLINE
  8
0
 62
     14
 66
     1
 10
0
 20
0
 30
0.0
 70
     1
 40
0
 41
0
  0
VERTEX
  8
0
 10
5.97868
 20
3.31044
 30
0.0
 40
0
 41
0
  0
VERTEX
  8
0
 10
6.03271
 20
3.31044
 30
0.0
 40
0
 41
0
  0
VERTEX
  8
0
 10
6.03271
 20
3.29736
 30
0.0
 40
0
 41
0
  0
VERTEX
  8
0
 10
5.97868
 20
3.29736
 30
0.0
 40
0
 41
0
  0
VERTEX
  8
0
 10
5.97868
 20
3.31044
 30
0.0
 40
0
 41
0
  0
SEQEND
 8
0
  0
POLYLINE
  8
0
 62
     14
 66
     1
 10
0
 20
0
 30
0.0
 70
     1
 40
0
 41
0
  0
VERTEX
  8
0
 10
6.05767
 20
3.38043
 30
0.0
 40
0
 41
0
  0
VERTEX
  8
0
 10
6.12571
 20
3.38043
 30
0.0
 40
0
 41
0
  0
VERTEX
  8
0
 10
6.12571
 20
3.30539
 30
0.0
 40
0
 41
0
  0
VERTEX
  8
0
 10
6.05767
 20
3.30539
 30
0.0
 40
0
 41
0
  0
VERTEX
  8
0
 10
6.05767
 20
3.38043
 30
0.0
 40
0
 41
0
  0
SEQEND
 8
0
  0
ENDSEC
  0
EOF
