G04 #@! TF.FileFunction,Legend,Top*
%FSLAX46Y46*%
G04 Gerber Fmt 4.6, Leading zero omitted, Abs format (unit mm)*
G04 Created by KiCad (PCBNEW 4.0.6) date 2017 July 13, Thursday 09:44:44*
%MOMM*%
%LPD*%
G01*
G04 APERTURE LIST*
%ADD10C,0.100000*%
%ADD11C,0.250000*%
%ADD12C,0.200000*%
%ADD13C,0.300000*%
%ADD14C,0.150000*%
%ADD15C,0.120000*%
%ADD16C,0.127000*%
%ADD17C,0.152400*%
%ADD18C,0.050000*%
G04 APERTURE END LIST*
D10*
D11*
X171738096Y-121500000D02*
X171642858Y-121452381D01*
X171500001Y-121452381D01*
X171357143Y-121500000D01*
X171261905Y-121595238D01*
X171214286Y-121690476D01*
X171166667Y-121880952D01*
X171166667Y-122023810D01*
X171214286Y-122214286D01*
X171261905Y-122309524D01*
X171357143Y-122404762D01*
X171500001Y-122452381D01*
X171595239Y-122452381D01*
X171738096Y-122404762D01*
X171785715Y-122357143D01*
X171785715Y-122023810D01*
X171595239Y-122023810D01*
X172214286Y-122452381D02*
X172214286Y-121452381D01*
X172785715Y-122452381D01*
X172785715Y-121452381D01*
X173261905Y-122452381D02*
X173261905Y-121452381D01*
X173500000Y-121452381D01*
X173642858Y-121500000D01*
X173738096Y-121595238D01*
X173785715Y-121690476D01*
X173833334Y-121880952D01*
X173833334Y-122023810D01*
X173785715Y-122214286D01*
X173738096Y-122309524D01*
X173642858Y-122404762D01*
X173500000Y-122452381D01*
X173261905Y-122452381D01*
D12*
X171738096Y-131452381D02*
X171261905Y-131452381D01*
X171261905Y-130452381D01*
X172071429Y-130928571D02*
X172404763Y-130928571D01*
X172547620Y-131452381D02*
X172071429Y-131452381D01*
X172071429Y-130452381D01*
X172547620Y-130452381D01*
X172976191Y-131452381D02*
X172976191Y-130452381D01*
X173214286Y-130452381D01*
X173357144Y-130500000D01*
X173452382Y-130595238D01*
X173500001Y-130690476D01*
X173547620Y-130880952D01*
X173547620Y-131023810D01*
X173500001Y-131214286D01*
X173452382Y-131309524D01*
X173357144Y-131404762D01*
X173214286Y-131452381D01*
X172976191Y-131452381D01*
X173976191Y-131071429D02*
X174738096Y-131071429D01*
X174357144Y-131452381D02*
X174357144Y-130690476D01*
X169666667Y-107952381D02*
X170000000Y-108952381D01*
X170333334Y-107952381D01*
X170666667Y-108952381D02*
X170666667Y-107952381D01*
X170904762Y-107952381D01*
X171047620Y-108000000D01*
X171142858Y-108095238D01*
X171190477Y-108190476D01*
X171238096Y-108380952D01*
X171238096Y-108523810D01*
X171190477Y-108714286D01*
X171142858Y-108809524D01*
X171047620Y-108904762D01*
X170904762Y-108952381D01*
X170666667Y-108952381D01*
X171666667Y-108952381D02*
X171666667Y-107952381D01*
X171904762Y-107952381D01*
X172047620Y-108000000D01*
X172142858Y-108095238D01*
X172190477Y-108190476D01*
X172238096Y-108380952D01*
X172238096Y-108523810D01*
X172190477Y-108714286D01*
X172142858Y-108809524D01*
X172047620Y-108904762D01*
X171904762Y-108952381D01*
X171666667Y-108952381D01*
D13*
X169857143Y-116250000D02*
X169714286Y-116178571D01*
X169500000Y-116178571D01*
X169285715Y-116250000D01*
X169142857Y-116392857D01*
X169071429Y-116535714D01*
X169000000Y-116821429D01*
X169000000Y-117035714D01*
X169071429Y-117321429D01*
X169142857Y-117464286D01*
X169285715Y-117607143D01*
X169500000Y-117678571D01*
X169642857Y-117678571D01*
X169857143Y-117607143D01*
X169928572Y-117535714D01*
X169928572Y-117035714D01*
X169642857Y-117035714D01*
X170571429Y-117678571D02*
X170571429Y-116178571D01*
X171428572Y-117678571D01*
X171428572Y-116178571D01*
X172142858Y-117678571D02*
X172142858Y-116178571D01*
X172500001Y-116178571D01*
X172714286Y-116250000D01*
X172857144Y-116392857D01*
X172928572Y-116535714D01*
X173000001Y-116821429D01*
X173000001Y-117035714D01*
X172928572Y-117321429D01*
X172857144Y-117464286D01*
X172714286Y-117607143D01*
X172500001Y-117678571D01*
X172142858Y-117678571D01*
D14*
X173410960Y-123420920D02*
X173410960Y-129019080D01*
X173908800Y-128820960D02*
X173410960Y-128820960D01*
X173410960Y-123619040D02*
X173908800Y-123619040D01*
X173908800Y-126220000D02*
X173410960Y-126220000D01*
X168109980Y-129019080D02*
X168109980Y-123420920D01*
X173908800Y-129019080D02*
X173908800Y-123420920D01*
X173908800Y-123420920D02*
X167711200Y-123420920D01*
X167711200Y-123420920D02*
X167711200Y-129019080D01*
X167711200Y-129019080D02*
X173908800Y-129019080D01*
X173560960Y-109950920D02*
X173560960Y-115549080D01*
X174058800Y-115350960D02*
X173560960Y-115350960D01*
X173560960Y-110149040D02*
X174058800Y-110149040D01*
X174058800Y-112750000D02*
X173560960Y-112750000D01*
X168259980Y-115549080D02*
X168259980Y-109950920D01*
X174058800Y-115549080D02*
X174058800Y-109950920D01*
X174058800Y-109950920D02*
X167861200Y-109950920D01*
X167861200Y-109950920D02*
X167861200Y-115549080D01*
X167861200Y-115549080D02*
X174058800Y-115549080D01*
X149650000Y-123545000D02*
X149650000Y-123795000D01*
X149650000Y-123795000D02*
X148550000Y-123795000D01*
X148550000Y-123795000D02*
X148550000Y-123545000D01*
X148550000Y-123545000D02*
X149650000Y-123545000D01*
X161915000Y-128890000D02*
X162165000Y-128890000D01*
X162165000Y-128890000D02*
X162165000Y-129990000D01*
X162165000Y-129990000D02*
X161915000Y-129990000D01*
X161915000Y-129990000D02*
X161915000Y-128890000D01*
D15*
X148610000Y-116040000D02*
X146010000Y-116040000D01*
X146010000Y-116040000D02*
X146010000Y-118700000D01*
X146010000Y-118700000D02*
X148610000Y-118700000D01*
X148610000Y-118700000D02*
X148610000Y-116040000D01*
X149880000Y-116040000D02*
X151210000Y-116040000D01*
X151210000Y-116040000D02*
X151210000Y-117370000D01*
X148240000Y-131190000D02*
X148240000Y-137610000D01*
X148240000Y-137610000D02*
X164360000Y-137610000D01*
X164360000Y-137610000D02*
X164360000Y-131190000D01*
X164360000Y-131190000D02*
X148240000Y-131190000D01*
X144880000Y-134400000D02*
X148240000Y-134400000D01*
X167720000Y-134400000D02*
X164360000Y-134400000D01*
D14*
X155600000Y-118295000D02*
X155600000Y-118045000D01*
X155600000Y-118045000D02*
X156700000Y-118045000D01*
X156700000Y-118045000D02*
X156700000Y-118295000D01*
X156700000Y-118295000D02*
X155600000Y-118295000D01*
X153870000Y-120005000D02*
X153870000Y-120255000D01*
X153870000Y-120255000D02*
X152770000Y-120255000D01*
X152770000Y-120255000D02*
X152770000Y-120005000D01*
X152770000Y-120005000D02*
X153870000Y-120005000D01*
X154705000Y-128830000D02*
X154955000Y-128830000D01*
X154955000Y-128830000D02*
X154955000Y-129930000D01*
X154955000Y-129930000D02*
X154705000Y-129930000D01*
X154705000Y-129930000D02*
X154705000Y-128830000D01*
X159600000Y-118735000D02*
X159600000Y-118485000D01*
X159600000Y-118485000D02*
X160700000Y-118485000D01*
X160700000Y-118485000D02*
X160700000Y-118735000D01*
X160700000Y-118735000D02*
X159600000Y-118735000D01*
X164980000Y-119775000D02*
X164980000Y-119525000D01*
X164980000Y-119525000D02*
X166080000Y-119525000D01*
X166080000Y-119525000D02*
X166080000Y-119775000D01*
X166080000Y-119775000D02*
X164980000Y-119775000D01*
D16*
X145200000Y-123070000D02*
X145200000Y-124670000D01*
X142300000Y-124670000D02*
X142300000Y-123070000D01*
D10*
X145400000Y-121770000D02*
G75*
G03X145400000Y-121770000I-50000J0D01*
G01*
D17*
X156279400Y-123550600D02*
X153180600Y-123550600D01*
X153180600Y-126649400D02*
X154425200Y-126649400D01*
X154425200Y-126649400D02*
X155034800Y-126649400D01*
X155034800Y-126649400D02*
X156279400Y-126649400D01*
D10*
X154425202Y-126649398D02*
G75*
G02X154577600Y-126395400I296168J-4982D01*
G01*
X154882402Y-126395399D02*
G75*
G02X155034800Y-126649400I-143772J-258981D01*
G01*
D17*
X151326400Y-126293800D02*
X151326400Y-125912800D01*
X151326400Y-125912800D02*
X151580400Y-125912800D01*
X151580400Y-125912800D02*
X151580400Y-126293800D01*
D15*
X163961400Y-127516863D02*
G75*
G03X163960000Y-122722564I-981400J2396863D01*
G01*
X161998600Y-127516863D02*
G75*
G02X162000000Y-122722564I981400J2396863D01*
G01*
X161998600Y-127516863D02*
G75*
G03X163960000Y-127517436I981400J2396863D01*
G01*
X162980000Y-121670000D02*
X162980000Y-122870000D01*
X163630000Y-122270000D02*
X162330000Y-122270000D01*
X166486863Y-111528600D02*
G75*
G03X161692564Y-111530000I-2396863J-981400D01*
G01*
X166486863Y-113491400D02*
G75*
G02X161692564Y-113490000I-2396863J981400D01*
G01*
X166486863Y-113491400D02*
G75*
G03X166487436Y-111530000I-2396863J981400D01*
G01*
X160640000Y-112510000D02*
X161840000Y-112510000D01*
X161240000Y-111860000D02*
X161240000Y-113160000D01*
X144690000Y-127030000D02*
X144690000Y-126850000D01*
X144690000Y-126850000D02*
X148010000Y-126850000D01*
X148010000Y-126850000D02*
X148010000Y-127030000D01*
X144690000Y-129390000D02*
X144690000Y-129570000D01*
X144690000Y-129570000D02*
X148010000Y-129570000D01*
X148010000Y-129570000D02*
X148010000Y-129390000D01*
X145230000Y-126850000D02*
X145230000Y-129570000D01*
X158460000Y-112580000D02*
X158460000Y-113910000D01*
X158460000Y-113910000D02*
X144040000Y-113910000D01*
X144040000Y-113910000D02*
X144040000Y-112580000D01*
X158460000Y-109420000D02*
X158460000Y-108090000D01*
X158460000Y-108090000D02*
X144040000Y-108090000D01*
X144040000Y-108090000D02*
X144040000Y-109420000D01*
D14*
X165761501Y-126553333D02*
X166475787Y-126553333D01*
X166618644Y-126600953D01*
X166713882Y-126696191D01*
X166761501Y-126839048D01*
X166761501Y-126934286D01*
X165856739Y-126124762D02*
X165809120Y-126077143D01*
X165761501Y-125981905D01*
X165761501Y-125743809D01*
X165809120Y-125648571D01*
X165856739Y-125600952D01*
X165951977Y-125553333D01*
X166047215Y-125553333D01*
X166190072Y-125600952D01*
X166761501Y-126172381D01*
X166761501Y-125553333D01*
X165911501Y-113083333D02*
X166625787Y-113083333D01*
X166768644Y-113130953D01*
X166863882Y-113226191D01*
X166911501Y-113369048D01*
X166911501Y-113464286D01*
X165911501Y-112702381D02*
X165911501Y-112083333D01*
X166292453Y-112416667D01*
X166292453Y-112273809D01*
X166340072Y-112178571D01*
X166387691Y-112130952D01*
X166482930Y-112083333D01*
X166721025Y-112083333D01*
X166816263Y-112130952D01*
X166863882Y-112178571D01*
X166911501Y-112273809D01*
X166911501Y-112559524D01*
X166863882Y-112654762D01*
X166816263Y-112702381D01*
X151662381Y-117703333D02*
X152376667Y-117703333D01*
X152519524Y-117750953D01*
X152614762Y-117846191D01*
X152662381Y-117989048D01*
X152662381Y-118084286D01*
X152662381Y-116703333D02*
X152662381Y-117274762D01*
X152662381Y-116989048D02*
X151662381Y-116989048D01*
X151805238Y-117084286D01*
X151900476Y-117179524D01*
X151948095Y-117274762D01*
X156133334Y-130642381D02*
X155657143Y-130642381D01*
X155657143Y-129642381D01*
X156990477Y-130642381D02*
X156419048Y-130642381D01*
X156704762Y-130642381D02*
X156704762Y-129642381D01*
X156609524Y-129785238D01*
X156514286Y-129880476D01*
X156419048Y-129928095D01*
D18*
X146496095Y-123678190D02*
X146458000Y-123754381D01*
X146381810Y-123830571D01*
X146267524Y-123944857D01*
X146229429Y-124021048D01*
X146229429Y-124097238D01*
X146419905Y-124059143D02*
X146381810Y-124135333D01*
X146305619Y-124211524D01*
X146153238Y-124249619D01*
X145886571Y-124249619D01*
X145734190Y-124211524D01*
X145658000Y-124135333D01*
X145619905Y-124059143D01*
X145619905Y-123906762D01*
X145658000Y-123830571D01*
X145734190Y-123754381D01*
X145886571Y-123716286D01*
X146153238Y-123716286D01*
X146305619Y-123754381D01*
X146381810Y-123830571D01*
X146419905Y-123906762D01*
X146419905Y-124059143D01*
X146419905Y-122954381D02*
X146419905Y-123411524D01*
X146419905Y-123182953D02*
X145619905Y-123182953D01*
X145734190Y-123259143D01*
X145810381Y-123335334D01*
X145848476Y-123411524D01*
X141400857Y-126681428D02*
X141400857Y-126948095D01*
X141819905Y-126948095D02*
X141019905Y-126948095D01*
X141019905Y-126567142D01*
X141819905Y-126262381D02*
X141019905Y-126262381D01*
X141019905Y-126071905D01*
X141058000Y-125957619D01*
X141134190Y-125881428D01*
X141210381Y-125843333D01*
X141362762Y-125805238D01*
X141477048Y-125805238D01*
X141629429Y-125843333D01*
X141705619Y-125881428D01*
X141781810Y-125957619D01*
X141819905Y-126071905D01*
X141819905Y-126262381D01*
X141743714Y-125005238D02*
X141781810Y-125043333D01*
X141819905Y-125157619D01*
X141819905Y-125233809D01*
X141781810Y-125348095D01*
X141705619Y-125424286D01*
X141629429Y-125462381D01*
X141477048Y-125500476D01*
X141362762Y-125500476D01*
X141210381Y-125462381D01*
X141134190Y-125424286D01*
X141058000Y-125348095D01*
X141019905Y-125233809D01*
X141019905Y-125157619D01*
X141058000Y-125043333D01*
X141096095Y-125005238D01*
X141019905Y-124319524D02*
X141019905Y-124471905D01*
X141058000Y-124548095D01*
X141096095Y-124586190D01*
X141210381Y-124662381D01*
X141362762Y-124700476D01*
X141667524Y-124700476D01*
X141743714Y-124662381D01*
X141781810Y-124624286D01*
X141819905Y-124548095D01*
X141819905Y-124395714D01*
X141781810Y-124319524D01*
X141743714Y-124281428D01*
X141667524Y-124243333D01*
X141477048Y-124243333D01*
X141400857Y-124281428D01*
X141362762Y-124319524D01*
X141324667Y-124395714D01*
X141324667Y-124548095D01*
X141362762Y-124624286D01*
X141400857Y-124662381D01*
X141477048Y-124700476D01*
X141019905Y-123519523D02*
X141019905Y-123900476D01*
X141400857Y-123938571D01*
X141362762Y-123900476D01*
X141324667Y-123824285D01*
X141324667Y-123633809D01*
X141362762Y-123557619D01*
X141400857Y-123519523D01*
X141477048Y-123481428D01*
X141667524Y-123481428D01*
X141743714Y-123519523D01*
X141781810Y-123557619D01*
X141819905Y-123633809D01*
X141819905Y-123824285D01*
X141781810Y-123900476D01*
X141743714Y-123938571D01*
X141362762Y-123024285D02*
X141324667Y-123100476D01*
X141286571Y-123138571D01*
X141210381Y-123176666D01*
X141172286Y-123176666D01*
X141096095Y-123138571D01*
X141058000Y-123100476D01*
X141019905Y-123024285D01*
X141019905Y-122871904D01*
X141058000Y-122795714D01*
X141096095Y-122757618D01*
X141172286Y-122719523D01*
X141210381Y-122719523D01*
X141286571Y-122757618D01*
X141324667Y-122795714D01*
X141362762Y-122871904D01*
X141362762Y-123024285D01*
X141400857Y-123100476D01*
X141438952Y-123138571D01*
X141515143Y-123176666D01*
X141667524Y-123176666D01*
X141743714Y-123138571D01*
X141781810Y-123100476D01*
X141819905Y-123024285D01*
X141819905Y-122871904D01*
X141781810Y-122795714D01*
X141743714Y-122757618D01*
X141667524Y-122719523D01*
X141515143Y-122719523D01*
X141438952Y-122757618D01*
X141400857Y-122795714D01*
X141362762Y-122871904D01*
X141591333Y-122414761D02*
X141591333Y-122033809D01*
X141819905Y-122490952D02*
X141019905Y-122224285D01*
X141819905Y-121957618D01*
X141819905Y-121690952D02*
X141019905Y-121690952D01*
X141019905Y-121386190D01*
X141058000Y-121309999D01*
X141096095Y-121271904D01*
X141172286Y-121233809D01*
X141286571Y-121233809D01*
X141362762Y-121271904D01*
X141400857Y-121309999D01*
X141438952Y-121386190D01*
X141438952Y-121690952D01*
X154166276Y-127249905D02*
X154166276Y-128577524D01*
X154244371Y-128733714D01*
X154322467Y-128811810D01*
X154478657Y-128889905D01*
X154791038Y-128889905D01*
X154947229Y-128811810D01*
X155025324Y-128733714D01*
X155103419Y-128577524D01*
X155103419Y-127249905D01*
X156743419Y-128889905D02*
X155806276Y-128889905D01*
X156274847Y-128889905D02*
X156274847Y-127249905D01*
X156118657Y-127484190D01*
X155962466Y-127640381D01*
X155806276Y-127718476D01*
X149993867Y-122946305D02*
X149212914Y-122946305D01*
X149212914Y-121306305D01*
X150540533Y-122946305D02*
X150540533Y-121306305D01*
X151087200Y-122477733D01*
X151633867Y-121306305D01*
X151633867Y-122946305D01*
X152258629Y-121306305D02*
X153273867Y-121306305D01*
X152727200Y-121931067D01*
X152961486Y-121931067D01*
X153117676Y-122009162D01*
X153195772Y-122087257D01*
X153273867Y-122243448D01*
X153273867Y-122633924D01*
X153195772Y-122790114D01*
X153117676Y-122868210D01*
X152961486Y-122946305D01*
X152492914Y-122946305D01*
X152336724Y-122868210D01*
X152258629Y-122790114D01*
X154679581Y-121852971D02*
X154679581Y-122946305D01*
X154289105Y-121228210D02*
X153898629Y-122399638D01*
X154913867Y-122399638D01*
X155851010Y-121306305D02*
X156007201Y-121306305D01*
X156163391Y-121384400D01*
X156241486Y-121462495D01*
X156319582Y-121618686D01*
X156397677Y-121931067D01*
X156397677Y-122321543D01*
X156319582Y-122633924D01*
X156241486Y-122790114D01*
X156163391Y-122868210D01*
X156007201Y-122946305D01*
X155851010Y-122946305D01*
X155694820Y-122868210D01*
X155616724Y-122790114D01*
X155538629Y-122633924D01*
X155460534Y-122321543D01*
X155460534Y-121931067D01*
X155538629Y-121618686D01*
X155616724Y-121462495D01*
X155694820Y-121384400D01*
X155851010Y-121306305D01*
X157178629Y-122946305D02*
X157491010Y-122946305D01*
X157647201Y-122868210D01*
X157725296Y-122790114D01*
X157881487Y-122555829D01*
X157959582Y-122243448D01*
X157959582Y-121618686D01*
X157881487Y-121462495D01*
X157803391Y-121384400D01*
X157647201Y-121306305D01*
X157334820Y-121306305D01*
X157178629Y-121384400D01*
X157100534Y-121462495D01*
X157022439Y-121618686D01*
X157022439Y-122009162D01*
X157100534Y-122165352D01*
X157178629Y-122243448D01*
X157334820Y-122321543D01*
X157647201Y-122321543D01*
X157803391Y-122243448D01*
X157881487Y-122165352D01*
X157959582Y-122009162D01*
X158662439Y-122946305D02*
X158662439Y-121306305D01*
X159209106Y-122477733D01*
X159755773Y-121306305D01*
X159755773Y-122946305D01*
X160849106Y-122165352D02*
X160849106Y-122946305D01*
X160302439Y-121306305D02*
X160849106Y-122165352D01*
X161395773Y-121306305D01*
D14*
X166897143Y-125286666D02*
X166944762Y-125334285D01*
X166992381Y-125477142D01*
X166992381Y-125572380D01*
X166944762Y-125715238D01*
X166849524Y-125810476D01*
X166754286Y-125858095D01*
X166563810Y-125905714D01*
X166420952Y-125905714D01*
X166230476Y-125858095D01*
X166135238Y-125810476D01*
X166040000Y-125715238D01*
X165992381Y-125572380D01*
X165992381Y-125477142D01*
X166040000Y-125334285D01*
X166087619Y-125286666D01*
X166992381Y-124334285D02*
X166992381Y-124905714D01*
X166992381Y-124620000D02*
X165992381Y-124620000D01*
X166135238Y-124715238D01*
X166230476Y-124810476D01*
X166278095Y-124905714D01*
X163923334Y-109307143D02*
X163875715Y-109354762D01*
X163732858Y-109402381D01*
X163637620Y-109402381D01*
X163494762Y-109354762D01*
X163399524Y-109259524D01*
X163351905Y-109164286D01*
X163304286Y-108973810D01*
X163304286Y-108830952D01*
X163351905Y-108640476D01*
X163399524Y-108545238D01*
X163494762Y-108450000D01*
X163637620Y-108402381D01*
X163732858Y-108402381D01*
X163875715Y-108450000D01*
X163923334Y-108497619D01*
X164780477Y-108735714D02*
X164780477Y-109402381D01*
X164542381Y-108354762D02*
X164304286Y-109069048D01*
X164923334Y-109069048D01*
X145611905Y-126302381D02*
X145611905Y-125302381D01*
X145850000Y-125302381D01*
X145992858Y-125350000D01*
X146088096Y-125445238D01*
X146135715Y-125540476D01*
X146183334Y-125730952D01*
X146183334Y-125873810D01*
X146135715Y-126064286D01*
X146088096Y-126159524D01*
X145992858Y-126254762D01*
X145850000Y-126302381D01*
X145611905Y-126302381D01*
X147135715Y-126302381D02*
X146564286Y-126302381D01*
X146850000Y-126302381D02*
X146850000Y-125302381D01*
X146754762Y-125445238D01*
X146659524Y-125540476D01*
X146564286Y-125588095D01*
X151083334Y-115362381D02*
X150750000Y-114886190D01*
X150511905Y-115362381D02*
X150511905Y-114362381D01*
X150892858Y-114362381D01*
X150988096Y-114410000D01*
X151035715Y-114457619D01*
X151083334Y-114552857D01*
X151083334Y-114695714D01*
X151035715Y-114790952D01*
X150988096Y-114838571D01*
X150892858Y-114886190D01*
X150511905Y-114886190D01*
X151940477Y-114362381D02*
X151750000Y-114362381D01*
X151654762Y-114410000D01*
X151607143Y-114457619D01*
X151511905Y-114600476D01*
X151464286Y-114790952D01*
X151464286Y-115171905D01*
X151511905Y-115267143D01*
X151559524Y-115314762D01*
X151654762Y-115362381D01*
X151845239Y-115362381D01*
X151940477Y-115314762D01*
X151988096Y-115267143D01*
X152035715Y-115171905D01*
X152035715Y-114933810D01*
X151988096Y-114838571D01*
X151940477Y-114790952D01*
X151845239Y-114743333D01*
X151654762Y-114743333D01*
X151559524Y-114790952D01*
X151511905Y-114838571D01*
X151464286Y-114933810D01*
M02*
