M48
INCH,TZ
T1C0.016
T2C0.031
T3C0.039
T4C0.043
T5C0.043
T6C0.055
%
G90
G05
T1
X5.6055Y-4.777
X5.748Y-4.8931
X5.9476Y-4.8744
X6.0012Y-4.8496
X6.0063Y-4.9972
X6.1346Y-4.835
X6.248Y-4.9906
X6.2673Y-4.8913
X6.365Y-4.6475
X6.478Y-5.1071
X6.5965Y-4.7163
T2
X6.411Y-4.4295
X6.4165Y-4.8768
X6.4165Y-4.9752
X6.5094Y-4.4295
T3
X5.6618Y-5.0476
X5.8008Y-4.6209
X5.8618Y-5.0476
X5.9008Y-4.6209
T4
X6.7248Y-4.9193
X6.7248Y-5.0193
X6.7307Y-4.389
X6.7307Y-4.489
T5
X5.6535Y-5.2913
X6.6535Y-5.2913
T6
X5.6547Y-4.3701
X6.2547Y-4.3701
T0
M30
