M48
;DRILL file {KiCad 4.0.5} date Tuesday, 21 March 2017 'PMt' 18:00:40
;FORMAT={-:-/ absolute / metric / decimal}
FMAT,2
METRIC,TZ
T1C0.400
T2C1.000
%
G90
G05
M71
T1
X182.5Y-111.
X187.5Y-108.5
X187.5Y-114.
X187.5Y-115.5
X191.Y-115.5
X194.23Y-103.63
X194.25Y-107.35
X199.908Y-113.226
X200.275Y-107.9
X202.5Y-121.9
T2
X179.5Y-102.38
X179.5Y-104.92
X179.5Y-107.46
X179.5Y-110.
X179.5Y-112.54
X179.5Y-115.08
X179.5Y-117.62
X187.23Y-100.
X189.77Y-100.
X194.23Y-100.
X196.77Y-100.
X210.Y-100.73
X210.Y-103.27
X210.Y-111.73
X210.Y-114.27
T0
M30
