G04 #@! TF.FileFunction,Copper,L1,Top,Signal*
%FSLAX46Y46*%
G04 Gerber Fmt 4.6, Leading zero omitted, Abs format (unit mm)*
G04 Created by KiCad (PCBNEW 4.0.5) date Tuesday, 21 March 2017 'PMt' 17:51:32*
%MOMM*%
%LPD*%
G01*
G04 APERTURE LIST*
%ADD10C,0.100000*%
%ADD11R,1.900000X1.900000*%
%ADD12C,1.900000*%
%ADD13R,1.150000X1.450000*%
%ADD14R,1.450000X1.150000*%
%ADD15R,2.000001X0.399999*%
%ADD16C,0.600000*%
%ADD17C,0.250000*%
%ADD18C,0.400000*%
%ADD19C,1.500000*%
%ADD20C,2.000000*%
G04 APERTURE END LIST*
D10*
D11*
X210000000Y-114270000D03*
D12*
X210000000Y-111730000D03*
D13*
X203600000Y-110000000D03*
X205400000Y-110000000D03*
X203600000Y-117000000D03*
X205400000Y-117000000D03*
D14*
X207000000Y-107900000D03*
X207000000Y-106100000D03*
X199500000Y-120100000D03*
X199500000Y-121900000D03*
X210500000Y-119700000D03*
X210500000Y-121500000D03*
X205500000Y-120100000D03*
X205500000Y-121900000D03*
X194000000Y-121100000D03*
X194000000Y-122900000D03*
X182500000Y-122900000D03*
X182500000Y-121100000D03*
X188000000Y-121100000D03*
X188000000Y-122900000D03*
D11*
X179500000Y-102380000D03*
D12*
X179500000Y-104920000D03*
X179500000Y-107460000D03*
X179500000Y-110000000D03*
X179500000Y-112540000D03*
X179500000Y-115080000D03*
X179500000Y-117620000D03*
D11*
X210000000Y-103270000D03*
D12*
X210000000Y-100730000D03*
D11*
X196770000Y-100000000D03*
D12*
X194230000Y-100000000D03*
D11*
X187230000Y-100000000D03*
D12*
X189770000Y-100000000D03*
D13*
X201600000Y-100500000D03*
X203400000Y-100500000D03*
D15*
X185500000Y-104975000D03*
X198700000Y-104975000D03*
X185500000Y-105625000D03*
X198700000Y-105625000D03*
X185500000Y-106275000D03*
X198700000Y-106275000D03*
X185500000Y-106925000D03*
X198700000Y-106925000D03*
X185500000Y-107575000D03*
X198700000Y-107575000D03*
X185500000Y-108225000D03*
X198700000Y-108225000D03*
X185500000Y-108875000D03*
X198700000Y-108875000D03*
X185500000Y-109525000D03*
X198700000Y-109525000D03*
X185500000Y-110175000D03*
X198700000Y-110175000D03*
X185500000Y-110825000D03*
X198700000Y-110825000D03*
X185500000Y-111475000D03*
X198700000Y-111475000D03*
X185500000Y-112125000D03*
X198700000Y-112125000D03*
X185500000Y-112775000D03*
X198700000Y-112775000D03*
X185500000Y-113425000D03*
X198700000Y-113425000D03*
X185500000Y-114075000D03*
X198700000Y-114075000D03*
X185500000Y-114725000D03*
X198700000Y-114725000D03*
X185500000Y-115375000D03*
X198700000Y-115375000D03*
X185500000Y-116025000D03*
X198700000Y-116025000D03*
D16*
X191000000Y-115500000D03*
X187500000Y-115500000D03*
X200275000Y-107900000D03*
X199907548Y-113226415D03*
X202500000Y-121900000D03*
X182500000Y-111000000D03*
X187500000Y-114000000D03*
X187500000Y-108500000D03*
X194250000Y-107350000D03*
X194230000Y-103629990D03*
D17*
X207000000Y-107900000D02*
X205350000Y-107900000D01*
X205350000Y-107900000D02*
X204300001Y-108949999D01*
X204300001Y-108949999D02*
X202764999Y-108949999D01*
X202764999Y-108949999D02*
X202638590Y-109076408D01*
X202638590Y-109076408D02*
X202638590Y-109500000D01*
X201963591Y-110174999D02*
X198500000Y-110174999D01*
X202638590Y-109500000D02*
X201963591Y-110174999D01*
D18*
X198500000Y-108874999D02*
X201058078Y-108966924D01*
X201058078Y-108966924D02*
X200966152Y-108874999D01*
D19*
X202216162Y-107624989D02*
X202175011Y-107624989D01*
X202175011Y-107624989D02*
X201525001Y-108274999D01*
X201525001Y-108274999D02*
X201525001Y-108500001D01*
X201525001Y-108500001D02*
X201058078Y-108966924D01*
D20*
X207000000Y-106100000D02*
X205500000Y-106100000D01*
X204801164Y-106574990D02*
X203751165Y-107624989D01*
X203751165Y-107624989D02*
X202216162Y-107624989D01*
X205500000Y-106100000D02*
X205500000Y-106149989D01*
X205500000Y-106149989D02*
X205074999Y-106574990D01*
X205074999Y-106574990D02*
X204801164Y-106574990D01*
D18*
X200966152Y-108874999D02*
X200991162Y-108849989D01*
D20*
X210000000Y-103270000D02*
X208330000Y-103270000D01*
X208330000Y-103270000D02*
X205500000Y-106100000D01*
D17*
X201949999Y-110825001D02*
X202775000Y-110000000D01*
X202775000Y-110000000D02*
X203600000Y-110000000D01*
X198500000Y-110825001D02*
X201949999Y-110825001D01*
D18*
X198500000Y-112125001D02*
X201345003Y-112125001D01*
X201345003Y-112125001D02*
X201370013Y-112150011D01*
D20*
X201370013Y-112150011D02*
X201051146Y-112150011D01*
X202498836Y-112150011D02*
X201370013Y-112150011D01*
X207130000Y-111730000D02*
X205330002Y-111730000D01*
X205330002Y-111730000D02*
X204909991Y-112150011D01*
X204909991Y-112150011D02*
X202498836Y-112150011D01*
X210000000Y-111730000D02*
X207130000Y-111730000D01*
X207130000Y-111730000D02*
X205400000Y-110000000D01*
D17*
X205400000Y-110150000D02*
X205400000Y-110000000D01*
X198700000Y-115375000D02*
X200201154Y-115375000D01*
X200201154Y-115375000D02*
X201260002Y-116433848D01*
X201260002Y-116433848D02*
X201260002Y-117000000D01*
X198500000Y-115374999D02*
X199635001Y-115374999D01*
X202775000Y-117000000D02*
X203600000Y-117000000D01*
X201260002Y-117000000D02*
X202775000Y-117000000D01*
D18*
X198500000Y-114074999D02*
X200774999Y-114074999D01*
X200774999Y-114074999D02*
X201300000Y-114600000D01*
D20*
X201300000Y-114600000D02*
X201400000Y-114500000D01*
X205900000Y-114500000D02*
X201400000Y-114500000D01*
X206900000Y-115500000D02*
X205400000Y-117000000D01*
X208130000Y-114270000D02*
X206900000Y-115500000D01*
X206900000Y-115500000D02*
X205900000Y-114500000D01*
X210000000Y-114270000D02*
X208130000Y-114270000D01*
D18*
X209770000Y-114500000D02*
X210000000Y-114270000D01*
D17*
X193800000Y-116025000D02*
X198700000Y-116025000D01*
X198700000Y-117225000D02*
X198700000Y-116025000D01*
X199500000Y-118025000D02*
X198700000Y-117225000D01*
X205500000Y-120100000D02*
X209500000Y-120100000D01*
X199500000Y-120100000D02*
X205500000Y-120100000D01*
X192000000Y-115500000D02*
X193275000Y-115500000D01*
X191000000Y-115500000D02*
X192000000Y-115500000D01*
X187230000Y-101200000D02*
X191000000Y-104970000D01*
X191000000Y-104970000D02*
X191005000Y-104975000D01*
X192000000Y-115500000D02*
X192000000Y-105970000D01*
X192000000Y-105970000D02*
X191000000Y-104970000D01*
X209500000Y-120100000D02*
X209500000Y-119725000D01*
X209500000Y-119725000D02*
X209525000Y-119700000D01*
X209525000Y-119700000D02*
X210500000Y-119700000D01*
X193800000Y-116025000D02*
X193275000Y-115500000D01*
X191005000Y-104975000D02*
X193500000Y-104975000D01*
X193500000Y-104975000D02*
X195000000Y-104975000D01*
X195000000Y-104975000D02*
X197250000Y-104975000D01*
X197250000Y-104975000D02*
X198500000Y-104975000D01*
X194000000Y-121100000D02*
X198350000Y-121100000D01*
X198350000Y-121100000D02*
X198525000Y-120925000D01*
X198525000Y-121075000D02*
X198525000Y-120925000D01*
X198500000Y-121100000D02*
X198525000Y-121075000D01*
X198525000Y-120925000D02*
X199350000Y-120100000D01*
X199350000Y-120100000D02*
X199500000Y-120100000D01*
X199500000Y-120100000D02*
X199500000Y-118025000D01*
X185500000Y-116025000D02*
X186975000Y-116025000D01*
X186975000Y-116025000D02*
X187500000Y-115500000D01*
X185500000Y-115374999D02*
X187374999Y-115374999D01*
X187374999Y-115374999D02*
X187500000Y-115500000D01*
X185500000Y-104975000D02*
X191005000Y-104975000D01*
X187230000Y-100000000D02*
X187230000Y-101200000D01*
X185500000Y-116025000D02*
X186300001Y-116025000D01*
X186300001Y-104975000D02*
X185500000Y-104975000D01*
X197699999Y-116025000D02*
X198500000Y-116025000D01*
X198700000Y-107575000D02*
X199950000Y-107575000D01*
X199950000Y-107575000D02*
X200275000Y-107900000D01*
X198700000Y-107575000D02*
X199995859Y-107675000D01*
X200125000Y-107675000D02*
X199995859Y-107675000D01*
X198500000Y-108225001D02*
X198500000Y-107575000D01*
X199500000Y-113425000D02*
X198500000Y-113425000D01*
X199907548Y-113226415D02*
X199607549Y-113526414D01*
X199607549Y-113526414D02*
X199601414Y-113526414D01*
X199601414Y-113526414D02*
X199500000Y-113425000D01*
X198500000Y-112774999D02*
X198500000Y-113425000D01*
X202500000Y-121900000D02*
X204500000Y-121900000D01*
X199500000Y-121900000D02*
X202500000Y-121900000D01*
X188000000Y-122900000D02*
X182500000Y-122900000D01*
X205500000Y-121900000D02*
X210100000Y-121900000D01*
X210100000Y-121900000D02*
X210500000Y-121500000D01*
X183424999Y-111000000D02*
X182500000Y-111000000D01*
X185500000Y-110174999D02*
X184250000Y-110174999D01*
X184250000Y-110174999D02*
X183424999Y-111000000D01*
X185500000Y-111474999D02*
X182525001Y-111474999D01*
X182525001Y-111474999D02*
X182500000Y-111500000D01*
X185500000Y-112125001D02*
X183125001Y-112125001D01*
X183125001Y-112125001D02*
X182500000Y-111500000D01*
X182500000Y-111500000D02*
X183774999Y-112774999D01*
X183774999Y-112774999D02*
X185500000Y-112774999D01*
X182500000Y-111000000D02*
X182500000Y-111500000D01*
X184000000Y-109500000D02*
X182500000Y-111000000D01*
X184674998Y-109500000D02*
X184000000Y-109500000D01*
X185500000Y-109525001D02*
X184699999Y-109525001D01*
X184699999Y-109525001D02*
X184674998Y-109500000D01*
X194000000Y-122900000D02*
X199325000Y-122900000D01*
X199325000Y-122900000D02*
X199500000Y-122725000D01*
X199500000Y-122725000D02*
X199500000Y-121900000D01*
X188000000Y-122900000D02*
X194000000Y-122900000D01*
X204500000Y-121900000D02*
X205475000Y-121900000D01*
X198500000Y-113425000D02*
X198500000Y-113374998D01*
X198500000Y-112774999D02*
X198500000Y-112825003D01*
X198500000Y-108225001D02*
X198500000Y-108174998D01*
X198500000Y-107575000D02*
X198500000Y-107625003D01*
X185500000Y-110174999D02*
X185500000Y-110125000D01*
X185500000Y-109525001D02*
X185500000Y-109575001D01*
X185500000Y-111474999D02*
X185500000Y-111525003D01*
X185500000Y-112774999D02*
X185500000Y-112724999D01*
X188500000Y-116075000D02*
X188500000Y-112500000D01*
X182500000Y-121100000D02*
X183475000Y-121100000D01*
X183475000Y-121100000D02*
X188500000Y-116075000D01*
X188500000Y-112575001D02*
X186750000Y-110825001D01*
X186750000Y-110825001D02*
X185500000Y-110825001D01*
X188000000Y-121100000D02*
X188000000Y-120275000D01*
X188000000Y-120275000D02*
X190000000Y-118275000D01*
X190000000Y-118275000D02*
X190000000Y-112124999D01*
X190000000Y-112124999D02*
X186750000Y-108874999D01*
X186750000Y-108874999D02*
X185500000Y-108874999D01*
X179500000Y-102380000D02*
X180700000Y-102380000D01*
X180700000Y-102380000D02*
X183945001Y-105625001D01*
X183945001Y-105625001D02*
X184250000Y-105625001D01*
X184250000Y-105625001D02*
X185500000Y-105625001D01*
X179500000Y-104920000D02*
X180855000Y-106275000D01*
X180855000Y-106275000D02*
X185500000Y-106275000D01*
X179500000Y-107460000D02*
X180843502Y-107460000D01*
X180843502Y-107460000D02*
X181378501Y-106925001D01*
X181378501Y-106925001D02*
X184250000Y-106925001D01*
X184250000Y-106925001D02*
X185500000Y-106925001D01*
X179500000Y-110000000D02*
X181274999Y-108225001D01*
X181274999Y-108225001D02*
X185500000Y-108225001D01*
X179500000Y-112540000D02*
X180449999Y-113489999D01*
X180449999Y-113489999D02*
X185435001Y-113489999D01*
X185435001Y-113489999D02*
X185500000Y-113425000D01*
X187500000Y-114000000D02*
X185574999Y-114000000D01*
X185574999Y-114000000D02*
X185500000Y-114074999D01*
X185500000Y-107575000D02*
X186575000Y-107575000D01*
X186575000Y-107575000D02*
X187500000Y-108500000D01*
X179500000Y-115080000D02*
X180505001Y-114074999D01*
X180505001Y-114074999D02*
X185500000Y-114074999D01*
X179500000Y-117620000D02*
X182395000Y-114725000D01*
X182395000Y-114725000D02*
X185500000Y-114725000D01*
D20*
X203400000Y-100500000D02*
X203400000Y-101600000D01*
X203400000Y-101600000D02*
X203375001Y-101624999D01*
X203375001Y-101624999D02*
X203375001Y-103624999D01*
X203375001Y-103624999D02*
X201575021Y-105424979D01*
D18*
X200650002Y-106349998D02*
X200025000Y-106975000D01*
X200025000Y-106975000D02*
X198750000Y-106975000D01*
X198750000Y-106975000D02*
X198700000Y-106925000D01*
X200650002Y-106349998D02*
X200131792Y-106868208D01*
D19*
X201575021Y-105424979D02*
X200650002Y-106349998D01*
D20*
X210000000Y-100730000D02*
X203630000Y-100730000D01*
X203630000Y-100730000D02*
X203400000Y-100500000D01*
D18*
X198500000Y-106275000D02*
X196810001Y-106275000D01*
X196810001Y-106275000D02*
X196299999Y-106785002D01*
D20*
X196299999Y-107700001D02*
X196299999Y-114200001D01*
X196299999Y-114200001D02*
X196000000Y-114500000D01*
D18*
X198500000Y-109525001D02*
X196000737Y-109525001D01*
X196000737Y-109525001D02*
X196000000Y-109524264D01*
D20*
X196000000Y-114500000D02*
X196000000Y-111500000D01*
X196000000Y-111500000D02*
X196000000Y-109524264D01*
D18*
X198500000Y-111474999D02*
X196025001Y-111474999D01*
X196025001Y-111474999D02*
X196000000Y-111500000D01*
X198500000Y-114725000D02*
X196225000Y-114725000D01*
X196225000Y-114725000D02*
X196000000Y-114500000D01*
X196589998Y-106785002D02*
X196299999Y-106785002D01*
D20*
X196000000Y-109524264D02*
X196000000Y-108000000D01*
X196000000Y-108000000D02*
X196299999Y-107700001D01*
X196299999Y-107700001D02*
X196299999Y-106785002D01*
X194250000Y-107350000D02*
X194250000Y-107774264D01*
X194250000Y-107774264D02*
X196000000Y-109524264D01*
X194230000Y-100000000D02*
X194230000Y-103629990D01*
D17*
X200075000Y-103000000D02*
X201600000Y-101475000D01*
X199750000Y-105625001D02*
X200025002Y-105349999D01*
X200025002Y-105349999D02*
X200025002Y-103049998D01*
X200025002Y-103049998D02*
X200075000Y-103000000D01*
X198500000Y-105625001D02*
X199750000Y-105625001D01*
X199750000Y-105625001D02*
X199825002Y-105549999D01*
X201600000Y-101475000D02*
X201600000Y-100500000D01*
M02*
