G04 #@! TF.FileFunction,Copper,L2,Bot,Signal*
%FSLAX46Y46*%
G04 Gerber Fmt 4.6, Leading zero omitted, Abs format (unit mm)*
G04 Created by KiCad (PCBNEW 4.0.5) date Tuesday, 21 March 2017 'PMt' 17:51:32*
%MOMM*%
%LPD*%
G01*
G04 APERTURE LIST*
%ADD10C,0.100000*%
%ADD11R,1.900000X1.900000*%
%ADD12C,1.900000*%
%ADD13C,0.600000*%
%ADD14C,0.250000*%
%ADD15C,2.000000*%
%ADD16C,0.254000*%
G04 APERTURE END LIST*
D10*
D11*
X210000000Y-114270000D03*
D12*
X210000000Y-111730000D03*
D11*
X179500000Y-102380000D03*
D12*
X179500000Y-104920000D03*
X179500000Y-107460000D03*
X179500000Y-110000000D03*
X179500000Y-112540000D03*
X179500000Y-115080000D03*
X179500000Y-117620000D03*
D11*
X210000000Y-103270000D03*
D12*
X210000000Y-100730000D03*
D11*
X196770000Y-100000000D03*
D12*
X194230000Y-100000000D03*
D11*
X187230000Y-100000000D03*
D12*
X189770000Y-100000000D03*
D13*
X191000000Y-115500000D03*
X187500000Y-115500000D03*
X200275000Y-107900000D03*
X199907548Y-113226415D03*
X202500000Y-121900000D03*
X182500000Y-111000000D03*
X187500000Y-114000000D03*
X187500000Y-108500000D03*
X194250000Y-107350000D03*
X194230000Y-103629990D03*
D14*
X187500000Y-115500000D02*
X191000000Y-115500000D01*
X187500000Y-108500000D02*
X187500000Y-114000000D01*
D15*
X194230000Y-105480000D02*
X194230000Y-107330000D01*
X194230000Y-107330000D02*
X194250000Y-107350000D01*
X194230000Y-103629990D02*
X194230000Y-105480000D01*
D16*
G36*
X212315000Y-124315000D02*
X177185000Y-124315000D01*
X177185000Y-101430000D01*
X177902560Y-101430000D01*
X177902560Y-103330000D01*
X177946838Y-103565317D01*
X178085910Y-103781441D01*
X178270628Y-103907653D01*
X178157086Y-104020997D01*
X177915276Y-104603341D01*
X177914725Y-105233893D01*
X178155519Y-105816657D01*
X178528471Y-106190261D01*
X178157086Y-106560997D01*
X177915276Y-107143341D01*
X177914725Y-107773893D01*
X178155519Y-108356657D01*
X178528471Y-108730261D01*
X178157086Y-109100997D01*
X177915276Y-109683341D01*
X177914725Y-110313893D01*
X178155519Y-110896657D01*
X178528471Y-111270261D01*
X178157086Y-111640997D01*
X177915276Y-112223341D01*
X177914725Y-112853893D01*
X178155519Y-113436657D01*
X178528471Y-113810261D01*
X178157086Y-114180997D01*
X177915276Y-114763341D01*
X177914725Y-115393893D01*
X178155519Y-115976657D01*
X178528471Y-116350261D01*
X178157086Y-116720997D01*
X177915276Y-117303341D01*
X177914725Y-117933893D01*
X178155519Y-118516657D01*
X178600997Y-118962914D01*
X179183341Y-119204724D01*
X179813893Y-119205275D01*
X180396657Y-118964481D01*
X180842914Y-118519003D01*
X181084724Y-117936659D01*
X181085275Y-117306107D01*
X180844481Y-116723343D01*
X180471529Y-116349739D01*
X180842914Y-115979003D01*
X181084724Y-115396659D01*
X181085275Y-114766107D01*
X180844481Y-114183343D01*
X180471529Y-113809739D01*
X180842914Y-113439003D01*
X181084724Y-112856659D01*
X181085275Y-112226107D01*
X180844481Y-111643343D01*
X180471529Y-111269739D01*
X180842914Y-110899003D01*
X181084724Y-110316659D01*
X181085275Y-109686107D01*
X180844481Y-109103343D01*
X180471529Y-108729739D01*
X180516179Y-108685167D01*
X186564838Y-108685167D01*
X186706883Y-109028943D01*
X186740000Y-109062118D01*
X186740000Y-113437537D01*
X186707808Y-113469673D01*
X186565162Y-113813201D01*
X186564838Y-114185167D01*
X186706883Y-114528943D01*
X186927709Y-114750155D01*
X186707808Y-114969673D01*
X186565162Y-115313201D01*
X186564838Y-115685167D01*
X186706883Y-116028943D01*
X186969673Y-116292192D01*
X187313201Y-116434838D01*
X187685167Y-116435162D01*
X188028943Y-116293117D01*
X188062118Y-116260000D01*
X190437537Y-116260000D01*
X190469673Y-116292192D01*
X190813201Y-116434838D01*
X191185167Y-116435162D01*
X191528943Y-116293117D01*
X191792192Y-116030327D01*
X191934838Y-115686799D01*
X191935162Y-115314833D01*
X191793117Y-114971057D01*
X191530327Y-114707808D01*
X191186799Y-114565162D01*
X190814833Y-114564838D01*
X190471057Y-114706883D01*
X190437882Y-114740000D01*
X188082153Y-114740000D01*
X188292192Y-114530327D01*
X188434838Y-114186799D01*
X188435162Y-113814833D01*
X188293117Y-113471057D01*
X188260000Y-113437882D01*
X188260000Y-113320000D01*
X208402560Y-113320000D01*
X208402560Y-115220000D01*
X208446838Y-115455317D01*
X208585910Y-115671441D01*
X208798110Y-115816431D01*
X209050000Y-115867440D01*
X210950000Y-115867440D01*
X211185317Y-115823162D01*
X211401441Y-115684090D01*
X211546431Y-115471890D01*
X211597440Y-115220000D01*
X211597440Y-113320000D01*
X211553162Y-113084683D01*
X211414090Y-112868559D01*
X211229372Y-112742347D01*
X211342914Y-112629003D01*
X211584724Y-112046659D01*
X211585275Y-111416107D01*
X211344481Y-110833343D01*
X210899003Y-110387086D01*
X210316659Y-110145276D01*
X209686107Y-110144725D01*
X209103343Y-110385519D01*
X208657086Y-110830997D01*
X208415276Y-111413341D01*
X208414725Y-112043893D01*
X208655519Y-112626657D01*
X208772585Y-112743927D01*
X208598559Y-112855910D01*
X208453569Y-113068110D01*
X208402560Y-113320000D01*
X188260000Y-113320000D01*
X188260000Y-109062463D01*
X188292192Y-109030327D01*
X188434838Y-108686799D01*
X188435162Y-108314833D01*
X188293117Y-107971057D01*
X188030327Y-107707808D01*
X187686799Y-107565162D01*
X187314833Y-107564838D01*
X186971057Y-107706883D01*
X186707808Y-107969673D01*
X186565162Y-108313201D01*
X186564838Y-108685167D01*
X180516179Y-108685167D01*
X180842914Y-108359003D01*
X181084724Y-107776659D01*
X181085114Y-107330000D01*
X192594999Y-107330000D01*
X192719457Y-107955688D01*
X193073880Y-108486120D01*
X193093880Y-108506119D01*
X193624312Y-108860543D01*
X194250000Y-108985000D01*
X194875687Y-108860543D01*
X195406119Y-108506119D01*
X195760543Y-107975687D01*
X195885000Y-107350000D01*
X195865000Y-107249453D01*
X195865000Y-103629990D01*
X195740543Y-103004303D01*
X195386120Y-102473870D01*
X195155837Y-102320000D01*
X208402560Y-102320000D01*
X208402560Y-104220000D01*
X208446838Y-104455317D01*
X208585910Y-104671441D01*
X208798110Y-104816431D01*
X209050000Y-104867440D01*
X210950000Y-104867440D01*
X211185317Y-104823162D01*
X211401441Y-104684090D01*
X211546431Y-104471890D01*
X211597440Y-104220000D01*
X211597440Y-102320000D01*
X211553162Y-102084683D01*
X211414090Y-101868559D01*
X211229372Y-101742347D01*
X211342914Y-101629003D01*
X211584724Y-101046659D01*
X211585275Y-100416107D01*
X211344481Y-99833343D01*
X210899003Y-99387086D01*
X210316659Y-99145276D01*
X209686107Y-99144725D01*
X209103343Y-99385519D01*
X208657086Y-99830997D01*
X208415276Y-100413341D01*
X208414725Y-101043893D01*
X208655519Y-101626657D01*
X208772585Y-101743927D01*
X208598559Y-101855910D01*
X208453569Y-102068110D01*
X208402560Y-102320000D01*
X195155837Y-102320000D01*
X194855687Y-102119447D01*
X194230000Y-101994990D01*
X193604313Y-102119447D01*
X193073880Y-102473870D01*
X192719457Y-103004303D01*
X192595000Y-103629990D01*
X192595000Y-107329995D01*
X192594999Y-107330000D01*
X181085114Y-107330000D01*
X181085275Y-107146107D01*
X180844481Y-106563343D01*
X180471529Y-106189739D01*
X180842914Y-105819003D01*
X181084724Y-105236659D01*
X181085275Y-104606107D01*
X180844481Y-104023343D01*
X180727415Y-103906073D01*
X180901441Y-103794090D01*
X181046431Y-103581890D01*
X181097440Y-103330000D01*
X181097440Y-101430000D01*
X181053162Y-101194683D01*
X180914090Y-100978559D01*
X180701890Y-100833569D01*
X180450000Y-100782560D01*
X178550000Y-100782560D01*
X178314683Y-100826838D01*
X178098559Y-100965910D01*
X177953569Y-101178110D01*
X177902560Y-101430000D01*
X177185000Y-101430000D01*
X177185000Y-99050000D01*
X185632560Y-99050000D01*
X185632560Y-100950000D01*
X185676838Y-101185317D01*
X185815910Y-101401441D01*
X186028110Y-101546431D01*
X186280000Y-101597440D01*
X188180000Y-101597440D01*
X188415317Y-101553162D01*
X188631441Y-101414090D01*
X188776431Y-101201890D01*
X188783722Y-101165886D01*
X188833256Y-101116352D01*
X188925792Y-101378019D01*
X189517398Y-101596188D01*
X190147461Y-101571352D01*
X190614208Y-101378019D01*
X190706745Y-101116350D01*
X189770000Y-100179605D01*
X189755858Y-100193748D01*
X189576253Y-100014143D01*
X189590395Y-100000000D01*
X189949605Y-100000000D01*
X190886350Y-100936745D01*
X191148019Y-100844208D01*
X191343585Y-100313893D01*
X192644725Y-100313893D01*
X192885519Y-100896657D01*
X193330997Y-101342914D01*
X193913341Y-101584724D01*
X194543893Y-101585275D01*
X195126657Y-101344481D01*
X195246519Y-101224829D01*
X195281673Y-101309699D01*
X195460302Y-101488327D01*
X195693691Y-101585000D01*
X196484250Y-101585000D01*
X196643000Y-101426250D01*
X196643000Y-100127000D01*
X196897000Y-100127000D01*
X196897000Y-101426250D01*
X197055750Y-101585000D01*
X197846309Y-101585000D01*
X198079698Y-101488327D01*
X198258327Y-101309699D01*
X198355000Y-101076310D01*
X198355000Y-100285750D01*
X198196250Y-100127000D01*
X196897000Y-100127000D01*
X196643000Y-100127000D01*
X196623000Y-100127000D01*
X196623000Y-99873000D01*
X196643000Y-99873000D01*
X196643000Y-98573750D01*
X196897000Y-98573750D01*
X196897000Y-99873000D01*
X198196250Y-99873000D01*
X198355000Y-99714250D01*
X198355000Y-98923690D01*
X198258327Y-98690301D01*
X198079698Y-98511673D01*
X197846309Y-98415000D01*
X197055750Y-98415000D01*
X196897000Y-98573750D01*
X196643000Y-98573750D01*
X196484250Y-98415000D01*
X195693691Y-98415000D01*
X195460302Y-98511673D01*
X195281673Y-98690301D01*
X195246625Y-98774914D01*
X195129003Y-98657086D01*
X194546659Y-98415276D01*
X193916107Y-98414725D01*
X193333343Y-98655519D01*
X192887086Y-99100997D01*
X192645276Y-99683341D01*
X192644725Y-100313893D01*
X191343585Y-100313893D01*
X191366188Y-100252602D01*
X191341352Y-99622539D01*
X191148019Y-99155792D01*
X190886350Y-99063255D01*
X189949605Y-100000000D01*
X189590395Y-100000000D01*
X189576253Y-99985858D01*
X189755858Y-99806253D01*
X189770000Y-99820395D01*
X190706745Y-98883650D01*
X190614208Y-98621981D01*
X190022602Y-98403812D01*
X189392539Y-98428648D01*
X188925792Y-98621981D01*
X188833256Y-98883648D01*
X188787536Y-98837928D01*
X188783162Y-98814683D01*
X188644090Y-98598559D01*
X188431890Y-98453569D01*
X188180000Y-98402560D01*
X186280000Y-98402560D01*
X186044683Y-98446838D01*
X185828559Y-98585910D01*
X185683569Y-98798110D01*
X185632560Y-99050000D01*
X177185000Y-99050000D01*
X177185000Y-96685000D01*
X212315000Y-96685000D01*
X212315000Y-124315000D01*
X212315000Y-124315000D01*
G37*
X212315000Y-124315000D02*
X177185000Y-124315000D01*
X177185000Y-101430000D01*
X177902560Y-101430000D01*
X177902560Y-103330000D01*
X177946838Y-103565317D01*
X178085910Y-103781441D01*
X178270628Y-103907653D01*
X178157086Y-104020997D01*
X177915276Y-104603341D01*
X177914725Y-105233893D01*
X178155519Y-105816657D01*
X178528471Y-106190261D01*
X178157086Y-106560997D01*
X177915276Y-107143341D01*
X177914725Y-107773893D01*
X178155519Y-108356657D01*
X178528471Y-108730261D01*
X178157086Y-109100997D01*
X177915276Y-109683341D01*
X177914725Y-110313893D01*
X178155519Y-110896657D01*
X178528471Y-111270261D01*
X178157086Y-111640997D01*
X177915276Y-112223341D01*
X177914725Y-112853893D01*
X178155519Y-113436657D01*
X178528471Y-113810261D01*
X178157086Y-114180997D01*
X177915276Y-114763341D01*
X177914725Y-115393893D01*
X178155519Y-115976657D01*
X178528471Y-116350261D01*
X178157086Y-116720997D01*
X177915276Y-117303341D01*
X177914725Y-117933893D01*
X178155519Y-118516657D01*
X178600997Y-118962914D01*
X179183341Y-119204724D01*
X179813893Y-119205275D01*
X180396657Y-118964481D01*
X180842914Y-118519003D01*
X181084724Y-117936659D01*
X181085275Y-117306107D01*
X180844481Y-116723343D01*
X180471529Y-116349739D01*
X180842914Y-115979003D01*
X181084724Y-115396659D01*
X181085275Y-114766107D01*
X180844481Y-114183343D01*
X180471529Y-113809739D01*
X180842914Y-113439003D01*
X181084724Y-112856659D01*
X181085275Y-112226107D01*
X180844481Y-111643343D01*
X180471529Y-111269739D01*
X180842914Y-110899003D01*
X181084724Y-110316659D01*
X181085275Y-109686107D01*
X180844481Y-109103343D01*
X180471529Y-108729739D01*
X180516179Y-108685167D01*
X186564838Y-108685167D01*
X186706883Y-109028943D01*
X186740000Y-109062118D01*
X186740000Y-113437537D01*
X186707808Y-113469673D01*
X186565162Y-113813201D01*
X186564838Y-114185167D01*
X186706883Y-114528943D01*
X186927709Y-114750155D01*
X186707808Y-114969673D01*
X186565162Y-115313201D01*
X186564838Y-115685167D01*
X186706883Y-116028943D01*
X186969673Y-116292192D01*
X187313201Y-116434838D01*
X187685167Y-116435162D01*
X188028943Y-116293117D01*
X188062118Y-116260000D01*
X190437537Y-116260000D01*
X190469673Y-116292192D01*
X190813201Y-116434838D01*
X191185167Y-116435162D01*
X191528943Y-116293117D01*
X191792192Y-116030327D01*
X191934838Y-115686799D01*
X191935162Y-115314833D01*
X191793117Y-114971057D01*
X191530327Y-114707808D01*
X191186799Y-114565162D01*
X190814833Y-114564838D01*
X190471057Y-114706883D01*
X190437882Y-114740000D01*
X188082153Y-114740000D01*
X188292192Y-114530327D01*
X188434838Y-114186799D01*
X188435162Y-113814833D01*
X188293117Y-113471057D01*
X188260000Y-113437882D01*
X188260000Y-113320000D01*
X208402560Y-113320000D01*
X208402560Y-115220000D01*
X208446838Y-115455317D01*
X208585910Y-115671441D01*
X208798110Y-115816431D01*
X209050000Y-115867440D01*
X210950000Y-115867440D01*
X211185317Y-115823162D01*
X211401441Y-115684090D01*
X211546431Y-115471890D01*
X211597440Y-115220000D01*
X211597440Y-113320000D01*
X211553162Y-113084683D01*
X211414090Y-112868559D01*
X211229372Y-112742347D01*
X211342914Y-112629003D01*
X211584724Y-112046659D01*
X211585275Y-111416107D01*
X211344481Y-110833343D01*
X210899003Y-110387086D01*
X210316659Y-110145276D01*
X209686107Y-110144725D01*
X209103343Y-110385519D01*
X208657086Y-110830997D01*
X208415276Y-111413341D01*
X208414725Y-112043893D01*
X208655519Y-112626657D01*
X208772585Y-112743927D01*
X208598559Y-112855910D01*
X208453569Y-113068110D01*
X208402560Y-113320000D01*
X188260000Y-113320000D01*
X188260000Y-109062463D01*
X188292192Y-109030327D01*
X188434838Y-108686799D01*
X188435162Y-108314833D01*
X188293117Y-107971057D01*
X188030327Y-107707808D01*
X187686799Y-107565162D01*
X187314833Y-107564838D01*
X186971057Y-107706883D01*
X186707808Y-107969673D01*
X186565162Y-108313201D01*
X186564838Y-108685167D01*
X180516179Y-108685167D01*
X180842914Y-108359003D01*
X181084724Y-107776659D01*
X181085114Y-107330000D01*
X192594999Y-107330000D01*
X192719457Y-107955688D01*
X193073880Y-108486120D01*
X193093880Y-108506119D01*
X193624312Y-108860543D01*
X194250000Y-108985000D01*
X194875687Y-108860543D01*
X195406119Y-108506119D01*
X195760543Y-107975687D01*
X195885000Y-107350000D01*
X195865000Y-107249453D01*
X195865000Y-103629990D01*
X195740543Y-103004303D01*
X195386120Y-102473870D01*
X195155837Y-102320000D01*
X208402560Y-102320000D01*
X208402560Y-104220000D01*
X208446838Y-104455317D01*
X208585910Y-104671441D01*
X208798110Y-104816431D01*
X209050000Y-104867440D01*
X210950000Y-104867440D01*
X211185317Y-104823162D01*
X211401441Y-104684090D01*
X211546431Y-104471890D01*
X211597440Y-104220000D01*
X211597440Y-102320000D01*
X211553162Y-102084683D01*
X211414090Y-101868559D01*
X211229372Y-101742347D01*
X211342914Y-101629003D01*
X211584724Y-101046659D01*
X211585275Y-100416107D01*
X211344481Y-99833343D01*
X210899003Y-99387086D01*
X210316659Y-99145276D01*
X209686107Y-99144725D01*
X209103343Y-99385519D01*
X208657086Y-99830997D01*
X208415276Y-100413341D01*
X208414725Y-101043893D01*
X208655519Y-101626657D01*
X208772585Y-101743927D01*
X208598559Y-101855910D01*
X208453569Y-102068110D01*
X208402560Y-102320000D01*
X195155837Y-102320000D01*
X194855687Y-102119447D01*
X194230000Y-101994990D01*
X193604313Y-102119447D01*
X193073880Y-102473870D01*
X192719457Y-103004303D01*
X192595000Y-103629990D01*
X192595000Y-107329995D01*
X192594999Y-107330000D01*
X181085114Y-107330000D01*
X181085275Y-107146107D01*
X180844481Y-106563343D01*
X180471529Y-106189739D01*
X180842914Y-105819003D01*
X181084724Y-105236659D01*
X181085275Y-104606107D01*
X180844481Y-104023343D01*
X180727415Y-103906073D01*
X180901441Y-103794090D01*
X181046431Y-103581890D01*
X181097440Y-103330000D01*
X181097440Y-101430000D01*
X181053162Y-101194683D01*
X180914090Y-100978559D01*
X180701890Y-100833569D01*
X180450000Y-100782560D01*
X178550000Y-100782560D01*
X178314683Y-100826838D01*
X178098559Y-100965910D01*
X177953569Y-101178110D01*
X177902560Y-101430000D01*
X177185000Y-101430000D01*
X177185000Y-99050000D01*
X185632560Y-99050000D01*
X185632560Y-100950000D01*
X185676838Y-101185317D01*
X185815910Y-101401441D01*
X186028110Y-101546431D01*
X186280000Y-101597440D01*
X188180000Y-101597440D01*
X188415317Y-101553162D01*
X188631441Y-101414090D01*
X188776431Y-101201890D01*
X188783722Y-101165886D01*
X188833256Y-101116352D01*
X188925792Y-101378019D01*
X189517398Y-101596188D01*
X190147461Y-101571352D01*
X190614208Y-101378019D01*
X190706745Y-101116350D01*
X189770000Y-100179605D01*
X189755858Y-100193748D01*
X189576253Y-100014143D01*
X189590395Y-100000000D01*
X189949605Y-100000000D01*
X190886350Y-100936745D01*
X191148019Y-100844208D01*
X191343585Y-100313893D01*
X192644725Y-100313893D01*
X192885519Y-100896657D01*
X193330997Y-101342914D01*
X193913341Y-101584724D01*
X194543893Y-101585275D01*
X195126657Y-101344481D01*
X195246519Y-101224829D01*
X195281673Y-101309699D01*
X195460302Y-101488327D01*
X195693691Y-101585000D01*
X196484250Y-101585000D01*
X196643000Y-101426250D01*
X196643000Y-100127000D01*
X196897000Y-100127000D01*
X196897000Y-101426250D01*
X197055750Y-101585000D01*
X197846309Y-101585000D01*
X198079698Y-101488327D01*
X198258327Y-101309699D01*
X198355000Y-101076310D01*
X198355000Y-100285750D01*
X198196250Y-100127000D01*
X196897000Y-100127000D01*
X196643000Y-100127000D01*
X196623000Y-100127000D01*
X196623000Y-99873000D01*
X196643000Y-99873000D01*
X196643000Y-98573750D01*
X196897000Y-98573750D01*
X196897000Y-99873000D01*
X198196250Y-99873000D01*
X198355000Y-99714250D01*
X198355000Y-98923690D01*
X198258327Y-98690301D01*
X198079698Y-98511673D01*
X197846309Y-98415000D01*
X197055750Y-98415000D01*
X196897000Y-98573750D01*
X196643000Y-98573750D01*
X196484250Y-98415000D01*
X195693691Y-98415000D01*
X195460302Y-98511673D01*
X195281673Y-98690301D01*
X195246625Y-98774914D01*
X195129003Y-98657086D01*
X194546659Y-98415276D01*
X193916107Y-98414725D01*
X193333343Y-98655519D01*
X192887086Y-99100997D01*
X192645276Y-99683341D01*
X192644725Y-100313893D01*
X191343585Y-100313893D01*
X191366188Y-100252602D01*
X191341352Y-99622539D01*
X191148019Y-99155792D01*
X190886350Y-99063255D01*
X189949605Y-100000000D01*
X189590395Y-100000000D01*
X189576253Y-99985858D01*
X189755858Y-99806253D01*
X189770000Y-99820395D01*
X190706745Y-98883650D01*
X190614208Y-98621981D01*
X190022602Y-98403812D01*
X189392539Y-98428648D01*
X188925792Y-98621981D01*
X188833256Y-98883648D01*
X188787536Y-98837928D01*
X188783162Y-98814683D01*
X188644090Y-98598559D01*
X188431890Y-98453569D01*
X188180000Y-98402560D01*
X186280000Y-98402560D01*
X186044683Y-98446838D01*
X185828559Y-98585910D01*
X185683569Y-98798110D01*
X185632560Y-99050000D01*
X177185000Y-99050000D01*
X177185000Y-96685000D01*
X212315000Y-96685000D01*
X212315000Y-124315000D01*
M02*
