G04 #@! TF.FileFunction,Copper,L2,Bot,Signal*
%FSLAX46Y46*%
G04 Gerber Fmt 4.6, Leading zero omitted, Abs format (unit mm)*
G04 Created by KiCad (PCBNEW 4.0.6) date 2017 July 13, Thursday 09:48:37*
%MOMM*%
%LPD*%
G01*
G04 APERTURE LIST*
%ADD10C,0.100000*%
%ADD11R,1.900000X1.900000*%
%ADD12C,1.900000*%
%ADD13R,1.200000X1.200000*%
%ADD14C,1.200000*%
%ADD15C,2.400000*%
%ADD16R,2.400000X2.400000*%
%ADD17C,1.400000*%
%ADD18O,1.400000X1.400000*%
%ADD19C,0.600000*%
%ADD20C,0.500000*%
%ADD21C,0.250000*%
%ADD22C,0.254000*%
G04 APERTURE END LIST*
D10*
D11*
X120396000Y-96774000D03*
D12*
X117856000Y-96774000D03*
X120396000Y-94234000D03*
X117856000Y-94234000D03*
X120396000Y-91694000D03*
X117856000Y-91694000D03*
D13*
X139700000Y-87884000D03*
D14*
X141200000Y-87884000D03*
D13*
X128000000Y-104000000D03*
D14*
X129500000Y-104000000D03*
D15*
X120000000Y-107500000D03*
D16*
X120000000Y-104000000D03*
D15*
X146000000Y-104500000D03*
D16*
X146000000Y-108000000D03*
D17*
X135000000Y-112000000D03*
D18*
X140080000Y-112000000D03*
D17*
X131000000Y-112000000D03*
D18*
X125920000Y-112000000D03*
D11*
X117000000Y-113000000D03*
X149000000Y-87000000D03*
X149000000Y-113000000D03*
X117000000Y-87000000D03*
D19*
X121158000Y-89154000D03*
X129540000Y-91440000D03*
X125984000Y-93980000D03*
X125984000Y-90932000D03*
X137160000Y-100965000D03*
X133985000Y-91440000D03*
X136652000Y-105918000D03*
X128016000Y-90424000D03*
D20*
X128270000Y-89154000D02*
X121158000Y-89154000D01*
X129540000Y-90424000D02*
X128270000Y-89154000D01*
X129540000Y-91440000D02*
X129540000Y-90424000D01*
D21*
X125984000Y-90932000D02*
X125984000Y-93980000D01*
X133985000Y-97790000D02*
X137160000Y-100965000D01*
X133985000Y-91440000D02*
X133985000Y-97790000D01*
X136652000Y-102362000D02*
X136652000Y-105918000D01*
X134874000Y-100584000D02*
X136652000Y-102362000D01*
X129794000Y-100584000D02*
X134874000Y-100584000D01*
X128016000Y-98806000D02*
X129794000Y-100584000D01*
X128016000Y-90424000D02*
X128016000Y-98806000D01*
D22*
G36*
X147453569Y-85798110D02*
X147402560Y-86050000D01*
X147402560Y-87950000D01*
X147446838Y-88185317D01*
X147585910Y-88401441D01*
X147798110Y-88546431D01*
X148050000Y-88597440D01*
X149950000Y-88597440D01*
X150185317Y-88553162D01*
X150290000Y-88485800D01*
X150290000Y-111513772D01*
X150201890Y-111453569D01*
X149950000Y-111402560D01*
X148050000Y-111402560D01*
X147814683Y-111446838D01*
X147598559Y-111585910D01*
X147453569Y-111798110D01*
X147402560Y-112050000D01*
X147402560Y-113950000D01*
X147446838Y-114185317D01*
X147514200Y-114290000D01*
X118486228Y-114290000D01*
X118546431Y-114201890D01*
X118597440Y-113950000D01*
X118597440Y-112333329D01*
X124627284Y-112333329D01*
X124770203Y-112678396D01*
X125117337Y-113066764D01*
X125586669Y-113292727D01*
X125793000Y-113170206D01*
X125793000Y-112127000D01*
X126047000Y-112127000D01*
X126047000Y-113170206D01*
X126253331Y-113292727D01*
X126722663Y-113066764D01*
X127069797Y-112678396D01*
X127212716Y-112333329D01*
X127171501Y-112264383D01*
X129664769Y-112264383D01*
X129867582Y-112755229D01*
X130242796Y-113131098D01*
X130733287Y-113334768D01*
X131264383Y-113335231D01*
X131755229Y-113132418D01*
X132131098Y-112757204D01*
X132334768Y-112266713D01*
X132334770Y-112264383D01*
X133664769Y-112264383D01*
X133867582Y-112755229D01*
X134242796Y-113131098D01*
X134733287Y-113334768D01*
X135264383Y-113335231D01*
X135755229Y-113132418D01*
X136131098Y-112757204D01*
X136334768Y-112266713D01*
X136335000Y-112000000D01*
X138718846Y-112000000D01*
X138820467Y-112510882D01*
X139109858Y-112943988D01*
X139542964Y-113233379D01*
X140053846Y-113335000D01*
X140106154Y-113335000D01*
X140617036Y-113233379D01*
X141050142Y-112943988D01*
X141339533Y-112510882D01*
X141441154Y-112000000D01*
X141339533Y-111489118D01*
X141050142Y-111056012D01*
X140617036Y-110766621D01*
X140106154Y-110665000D01*
X140053846Y-110665000D01*
X139542964Y-110766621D01*
X139109858Y-111056012D01*
X138820467Y-111489118D01*
X138718846Y-112000000D01*
X136335000Y-112000000D01*
X136335231Y-111735617D01*
X136132418Y-111244771D01*
X135757204Y-110868902D01*
X135266713Y-110665232D01*
X134735617Y-110664769D01*
X134244771Y-110867582D01*
X133868902Y-111242796D01*
X133665232Y-111733287D01*
X133664769Y-112264383D01*
X132334770Y-112264383D01*
X132335231Y-111735617D01*
X132132418Y-111244771D01*
X131757204Y-110868902D01*
X131266713Y-110665232D01*
X130735617Y-110664769D01*
X130244771Y-110867582D01*
X129868902Y-111242796D01*
X129665232Y-111733287D01*
X129664769Y-112264383D01*
X127171501Y-112264383D01*
X127089374Y-112127000D01*
X126047000Y-112127000D01*
X125793000Y-112127000D01*
X124750626Y-112127000D01*
X124627284Y-112333329D01*
X118597440Y-112333329D01*
X118597440Y-112050000D01*
X118553162Y-111814683D01*
X118457919Y-111666671D01*
X124627284Y-111666671D01*
X124750626Y-111873000D01*
X125793000Y-111873000D01*
X125793000Y-110829794D01*
X126047000Y-110829794D01*
X126047000Y-111873000D01*
X127089374Y-111873000D01*
X127212716Y-111666671D01*
X127069797Y-111321604D01*
X126722663Y-110933236D01*
X126253331Y-110707273D01*
X126047000Y-110829794D01*
X125793000Y-110829794D01*
X125586669Y-110707273D01*
X125117337Y-110933236D01*
X124770203Y-111321604D01*
X124627284Y-111666671D01*
X118457919Y-111666671D01*
X118414090Y-111598559D01*
X118201890Y-111453569D01*
X117950000Y-111402560D01*
X116050000Y-111402560D01*
X115814683Y-111446838D01*
X115710000Y-111514200D01*
X115710000Y-108797175D01*
X118882430Y-108797175D01*
X119005565Y-109084788D01*
X119687734Y-109344707D01*
X120417443Y-109323786D01*
X120994435Y-109084788D01*
X121117570Y-108797175D01*
X120000000Y-107679605D01*
X118882430Y-108797175D01*
X115710000Y-108797175D01*
X115710000Y-107187734D01*
X118155293Y-107187734D01*
X118176214Y-107917443D01*
X118415212Y-108494435D01*
X118702825Y-108617570D01*
X119820395Y-107500000D01*
X120179605Y-107500000D01*
X121297175Y-108617570D01*
X121584788Y-108494435D01*
X121844707Y-107812266D01*
X121823786Y-107082557D01*
X121584788Y-106505565D01*
X121297175Y-106382430D01*
X120179605Y-107500000D01*
X119820395Y-107500000D01*
X118702825Y-106382430D01*
X118415212Y-106505565D01*
X118155293Y-107187734D01*
X115710000Y-107187734D01*
X115710000Y-102800000D01*
X118152560Y-102800000D01*
X118152560Y-105200000D01*
X118196838Y-105435317D01*
X118335910Y-105651441D01*
X118548110Y-105796431D01*
X118800000Y-105847440D01*
X119169181Y-105847440D01*
X119005565Y-105915212D01*
X118882430Y-106202825D01*
X120000000Y-107320395D01*
X121117570Y-106202825D01*
X120994435Y-105915212D01*
X120816564Y-105847440D01*
X121200000Y-105847440D01*
X121435317Y-105803162D01*
X121651441Y-105664090D01*
X121796431Y-105451890D01*
X121847440Y-105200000D01*
X121847440Y-103400000D01*
X126752560Y-103400000D01*
X126752560Y-104600000D01*
X126796838Y-104835317D01*
X126935910Y-105051441D01*
X127148110Y-105196431D01*
X127400000Y-105247440D01*
X128600000Y-105247440D01*
X128835317Y-105203162D01*
X128962636Y-105121234D01*
X129331036Y-105247807D01*
X129821413Y-105217482D01*
X130133617Y-105088164D01*
X130183130Y-104862735D01*
X129500000Y-104179605D01*
X129485858Y-104193748D01*
X129306253Y-104014143D01*
X129320395Y-104000000D01*
X129679605Y-104000000D01*
X130362735Y-104683130D01*
X130588164Y-104633617D01*
X130747807Y-104168964D01*
X130717482Y-103678587D01*
X130588164Y-103366383D01*
X130362735Y-103316870D01*
X129679605Y-104000000D01*
X129320395Y-104000000D01*
X129306253Y-103985858D01*
X129485858Y-103806253D01*
X129500000Y-103820395D01*
X130183130Y-103137265D01*
X130133617Y-102911836D01*
X129668964Y-102752193D01*
X129178587Y-102782518D01*
X128956010Y-102874711D01*
X128851890Y-102803569D01*
X128600000Y-102752560D01*
X127400000Y-102752560D01*
X127164683Y-102796838D01*
X126948559Y-102935910D01*
X126803569Y-103148110D01*
X126752560Y-103400000D01*
X121847440Y-103400000D01*
X121847440Y-102800000D01*
X121803162Y-102564683D01*
X121664090Y-102348559D01*
X121451890Y-102203569D01*
X121200000Y-102152560D01*
X118800000Y-102152560D01*
X118564683Y-102196838D01*
X118348559Y-102335910D01*
X118203569Y-102548110D01*
X118152560Y-102800000D01*
X115710000Y-102800000D01*
X115710000Y-92007893D01*
X116270725Y-92007893D01*
X116511519Y-92590657D01*
X116884471Y-92964261D01*
X116513086Y-93334997D01*
X116271276Y-93917341D01*
X116270725Y-94547893D01*
X116511519Y-95130657D01*
X116884471Y-95504261D01*
X116513086Y-95874997D01*
X116271276Y-96457341D01*
X116270725Y-97087893D01*
X116511519Y-97670657D01*
X116956997Y-98116914D01*
X117539341Y-98358724D01*
X118169893Y-98359275D01*
X118752657Y-98118481D01*
X118869927Y-98001415D01*
X118981910Y-98175441D01*
X119194110Y-98320431D01*
X119446000Y-98371440D01*
X121346000Y-98371440D01*
X121581317Y-98327162D01*
X121797441Y-98188090D01*
X121942431Y-97975890D01*
X121993440Y-97724000D01*
X121993440Y-95824000D01*
X121949162Y-95588683D01*
X121810090Y-95372559D01*
X121625372Y-95246347D01*
X121738914Y-95133003D01*
X121980724Y-94550659D01*
X121981275Y-93920107D01*
X121740481Y-93337343D01*
X121301789Y-92897884D01*
X121332745Y-92810350D01*
X120396000Y-91873605D01*
X119459255Y-92810350D01*
X119490407Y-92898439D01*
X119125739Y-93262471D01*
X118827529Y-92963739D01*
X119192116Y-92599789D01*
X119279650Y-92630745D01*
X120216395Y-91694000D01*
X120575605Y-91694000D01*
X121512350Y-92630745D01*
X121774019Y-92538208D01*
X121992188Y-91946602D01*
X121967352Y-91316539D01*
X121774019Y-90849792D01*
X121512350Y-90757255D01*
X120575605Y-91694000D01*
X120216395Y-91694000D01*
X119279650Y-90757255D01*
X119191561Y-90788407D01*
X118981172Y-90577650D01*
X119459255Y-90577650D01*
X120396000Y-91514395D01*
X121332745Y-90577650D01*
X121240208Y-90315981D01*
X120648602Y-90097812D01*
X120018539Y-90122648D01*
X119551792Y-90315981D01*
X119459255Y-90577650D01*
X118981172Y-90577650D01*
X118755003Y-90351086D01*
X118172659Y-90109276D01*
X117542107Y-90108725D01*
X116959343Y-90349519D01*
X116513086Y-90794997D01*
X116271276Y-91377341D01*
X116270725Y-92007893D01*
X115710000Y-92007893D01*
X115710000Y-89339167D01*
X120222838Y-89339167D01*
X120364883Y-89682943D01*
X120627673Y-89946192D01*
X120971201Y-90088838D01*
X121343167Y-90089162D01*
X121464569Y-90039000D01*
X127163463Y-90039000D01*
X127081162Y-90237201D01*
X127080838Y-90609167D01*
X127222883Y-90952943D01*
X127256000Y-90986118D01*
X127256000Y-98806000D01*
X127313852Y-99096839D01*
X127478599Y-99343401D01*
X129256599Y-101121401D01*
X129503161Y-101286148D01*
X129794000Y-101344000D01*
X134559198Y-101344000D01*
X135892000Y-102676802D01*
X135892000Y-105355537D01*
X135859808Y-105387673D01*
X135717162Y-105731201D01*
X135716838Y-106103167D01*
X135858883Y-106446943D01*
X136121673Y-106710192D01*
X136465201Y-106852838D01*
X136837167Y-106853162D01*
X136965829Y-106800000D01*
X144152560Y-106800000D01*
X144152560Y-109200000D01*
X144196838Y-109435317D01*
X144335910Y-109651441D01*
X144548110Y-109796431D01*
X144800000Y-109847440D01*
X147200000Y-109847440D01*
X147435317Y-109803162D01*
X147651441Y-109664090D01*
X147796431Y-109451890D01*
X147847440Y-109200000D01*
X147847440Y-106800000D01*
X147803162Y-106564683D01*
X147664090Y-106348559D01*
X147451890Y-106203569D01*
X147200000Y-106152560D01*
X146805712Y-106152560D01*
X147038086Y-106056545D01*
X147554730Y-105540801D01*
X147834681Y-104866605D01*
X147835318Y-104136597D01*
X147556545Y-103461914D01*
X147040801Y-102945270D01*
X146366605Y-102665319D01*
X145636597Y-102664682D01*
X144961914Y-102943455D01*
X144445270Y-103459199D01*
X144165319Y-104133395D01*
X144164682Y-104863403D01*
X144443455Y-105538086D01*
X144959199Y-106054730D01*
X145194799Y-106152560D01*
X144800000Y-106152560D01*
X144564683Y-106196838D01*
X144348559Y-106335910D01*
X144203569Y-106548110D01*
X144152560Y-106800000D01*
X136965829Y-106800000D01*
X137180943Y-106711117D01*
X137444192Y-106448327D01*
X137586838Y-106104799D01*
X137587162Y-105732833D01*
X137445117Y-105389057D01*
X137412000Y-105355882D01*
X137412000Y-102362000D01*
X137354148Y-102071161D01*
X137239829Y-101900070D01*
X137345167Y-101900162D01*
X137688943Y-101758117D01*
X137952192Y-101495327D01*
X138094838Y-101151799D01*
X138095162Y-100779833D01*
X137953117Y-100436057D01*
X137690327Y-100172808D01*
X137346799Y-100030162D01*
X137299923Y-100030121D01*
X134745000Y-97475198D01*
X134745000Y-92002463D01*
X134777192Y-91970327D01*
X134919838Y-91626799D01*
X134920162Y-91254833D01*
X134778117Y-90911057D01*
X134515327Y-90647808D01*
X134171799Y-90505162D01*
X133799833Y-90504838D01*
X133456057Y-90646883D01*
X133192808Y-90909673D01*
X133050162Y-91253201D01*
X133049838Y-91625167D01*
X133191883Y-91968943D01*
X133225000Y-92002118D01*
X133225000Y-97790000D01*
X133282852Y-98080839D01*
X133447599Y-98327401D01*
X134961629Y-99841431D01*
X134874000Y-99824000D01*
X130108802Y-99824000D01*
X128776000Y-98491198D01*
X128776000Y-91998111D01*
X129009673Y-92232192D01*
X129353201Y-92374838D01*
X129725167Y-92375162D01*
X130068943Y-92233117D01*
X130332192Y-91970327D01*
X130474838Y-91626799D01*
X130475162Y-91254833D01*
X130425000Y-91133431D01*
X130425000Y-90424005D01*
X130425001Y-90424000D01*
X130357633Y-90085325D01*
X130326680Y-90039000D01*
X130165790Y-89798210D01*
X130165787Y-89798208D01*
X128895790Y-88528210D01*
X128879936Y-88517617D01*
X128608675Y-88336367D01*
X128552484Y-88325190D01*
X128270000Y-88268999D01*
X128269995Y-88269000D01*
X121464822Y-88269000D01*
X121344799Y-88219162D01*
X120972833Y-88218838D01*
X120629057Y-88360883D01*
X120365808Y-88623673D01*
X120223162Y-88967201D01*
X120222838Y-89339167D01*
X115710000Y-89339167D01*
X115710000Y-88486228D01*
X115798110Y-88546431D01*
X116050000Y-88597440D01*
X117950000Y-88597440D01*
X118185317Y-88553162D01*
X118401441Y-88414090D01*
X118546431Y-88201890D01*
X118597440Y-87950000D01*
X118597440Y-87284000D01*
X138452560Y-87284000D01*
X138452560Y-88484000D01*
X138496838Y-88719317D01*
X138635910Y-88935441D01*
X138848110Y-89080431D01*
X139100000Y-89131440D01*
X140300000Y-89131440D01*
X140535317Y-89087162D01*
X140662636Y-89005234D01*
X141031036Y-89131807D01*
X141521413Y-89101482D01*
X141833617Y-88972164D01*
X141883130Y-88746735D01*
X141200000Y-88063605D01*
X141185858Y-88077748D01*
X141006253Y-87898143D01*
X141020395Y-87884000D01*
X141379605Y-87884000D01*
X142062735Y-88567130D01*
X142288164Y-88517617D01*
X142447807Y-88052964D01*
X142417482Y-87562587D01*
X142288164Y-87250383D01*
X142062735Y-87200870D01*
X141379605Y-87884000D01*
X141020395Y-87884000D01*
X141006253Y-87869858D01*
X141185858Y-87690253D01*
X141200000Y-87704395D01*
X141883130Y-87021265D01*
X141833617Y-86795836D01*
X141368964Y-86636193D01*
X140878587Y-86666518D01*
X140656010Y-86758711D01*
X140551890Y-86687569D01*
X140300000Y-86636560D01*
X139100000Y-86636560D01*
X138864683Y-86680838D01*
X138648559Y-86819910D01*
X138503569Y-87032110D01*
X138452560Y-87284000D01*
X118597440Y-87284000D01*
X118597440Y-86050000D01*
X118553162Y-85814683D01*
X118485800Y-85710000D01*
X147513772Y-85710000D01*
X147453569Y-85798110D01*
X147453569Y-85798110D01*
G37*
X147453569Y-85798110D02*
X147402560Y-86050000D01*
X147402560Y-87950000D01*
X147446838Y-88185317D01*
X147585910Y-88401441D01*
X147798110Y-88546431D01*
X148050000Y-88597440D01*
X149950000Y-88597440D01*
X150185317Y-88553162D01*
X150290000Y-88485800D01*
X150290000Y-111513772D01*
X150201890Y-111453569D01*
X149950000Y-111402560D01*
X148050000Y-111402560D01*
X147814683Y-111446838D01*
X147598559Y-111585910D01*
X147453569Y-111798110D01*
X147402560Y-112050000D01*
X147402560Y-113950000D01*
X147446838Y-114185317D01*
X147514200Y-114290000D01*
X118486228Y-114290000D01*
X118546431Y-114201890D01*
X118597440Y-113950000D01*
X118597440Y-112333329D01*
X124627284Y-112333329D01*
X124770203Y-112678396D01*
X125117337Y-113066764D01*
X125586669Y-113292727D01*
X125793000Y-113170206D01*
X125793000Y-112127000D01*
X126047000Y-112127000D01*
X126047000Y-113170206D01*
X126253331Y-113292727D01*
X126722663Y-113066764D01*
X127069797Y-112678396D01*
X127212716Y-112333329D01*
X127171501Y-112264383D01*
X129664769Y-112264383D01*
X129867582Y-112755229D01*
X130242796Y-113131098D01*
X130733287Y-113334768D01*
X131264383Y-113335231D01*
X131755229Y-113132418D01*
X132131098Y-112757204D01*
X132334768Y-112266713D01*
X132334770Y-112264383D01*
X133664769Y-112264383D01*
X133867582Y-112755229D01*
X134242796Y-113131098D01*
X134733287Y-113334768D01*
X135264383Y-113335231D01*
X135755229Y-113132418D01*
X136131098Y-112757204D01*
X136334768Y-112266713D01*
X136335000Y-112000000D01*
X138718846Y-112000000D01*
X138820467Y-112510882D01*
X139109858Y-112943988D01*
X139542964Y-113233379D01*
X140053846Y-113335000D01*
X140106154Y-113335000D01*
X140617036Y-113233379D01*
X141050142Y-112943988D01*
X141339533Y-112510882D01*
X141441154Y-112000000D01*
X141339533Y-111489118D01*
X141050142Y-111056012D01*
X140617036Y-110766621D01*
X140106154Y-110665000D01*
X140053846Y-110665000D01*
X139542964Y-110766621D01*
X139109858Y-111056012D01*
X138820467Y-111489118D01*
X138718846Y-112000000D01*
X136335000Y-112000000D01*
X136335231Y-111735617D01*
X136132418Y-111244771D01*
X135757204Y-110868902D01*
X135266713Y-110665232D01*
X134735617Y-110664769D01*
X134244771Y-110867582D01*
X133868902Y-111242796D01*
X133665232Y-111733287D01*
X133664769Y-112264383D01*
X132334770Y-112264383D01*
X132335231Y-111735617D01*
X132132418Y-111244771D01*
X131757204Y-110868902D01*
X131266713Y-110665232D01*
X130735617Y-110664769D01*
X130244771Y-110867582D01*
X129868902Y-111242796D01*
X129665232Y-111733287D01*
X129664769Y-112264383D01*
X127171501Y-112264383D01*
X127089374Y-112127000D01*
X126047000Y-112127000D01*
X125793000Y-112127000D01*
X124750626Y-112127000D01*
X124627284Y-112333329D01*
X118597440Y-112333329D01*
X118597440Y-112050000D01*
X118553162Y-111814683D01*
X118457919Y-111666671D01*
X124627284Y-111666671D01*
X124750626Y-111873000D01*
X125793000Y-111873000D01*
X125793000Y-110829794D01*
X126047000Y-110829794D01*
X126047000Y-111873000D01*
X127089374Y-111873000D01*
X127212716Y-111666671D01*
X127069797Y-111321604D01*
X126722663Y-110933236D01*
X126253331Y-110707273D01*
X126047000Y-110829794D01*
X125793000Y-110829794D01*
X125586669Y-110707273D01*
X125117337Y-110933236D01*
X124770203Y-111321604D01*
X124627284Y-111666671D01*
X118457919Y-111666671D01*
X118414090Y-111598559D01*
X118201890Y-111453569D01*
X117950000Y-111402560D01*
X116050000Y-111402560D01*
X115814683Y-111446838D01*
X115710000Y-111514200D01*
X115710000Y-108797175D01*
X118882430Y-108797175D01*
X119005565Y-109084788D01*
X119687734Y-109344707D01*
X120417443Y-109323786D01*
X120994435Y-109084788D01*
X121117570Y-108797175D01*
X120000000Y-107679605D01*
X118882430Y-108797175D01*
X115710000Y-108797175D01*
X115710000Y-107187734D01*
X118155293Y-107187734D01*
X118176214Y-107917443D01*
X118415212Y-108494435D01*
X118702825Y-108617570D01*
X119820395Y-107500000D01*
X120179605Y-107500000D01*
X121297175Y-108617570D01*
X121584788Y-108494435D01*
X121844707Y-107812266D01*
X121823786Y-107082557D01*
X121584788Y-106505565D01*
X121297175Y-106382430D01*
X120179605Y-107500000D01*
X119820395Y-107500000D01*
X118702825Y-106382430D01*
X118415212Y-106505565D01*
X118155293Y-107187734D01*
X115710000Y-107187734D01*
X115710000Y-102800000D01*
X118152560Y-102800000D01*
X118152560Y-105200000D01*
X118196838Y-105435317D01*
X118335910Y-105651441D01*
X118548110Y-105796431D01*
X118800000Y-105847440D01*
X119169181Y-105847440D01*
X119005565Y-105915212D01*
X118882430Y-106202825D01*
X120000000Y-107320395D01*
X121117570Y-106202825D01*
X120994435Y-105915212D01*
X120816564Y-105847440D01*
X121200000Y-105847440D01*
X121435317Y-105803162D01*
X121651441Y-105664090D01*
X121796431Y-105451890D01*
X121847440Y-105200000D01*
X121847440Y-103400000D01*
X126752560Y-103400000D01*
X126752560Y-104600000D01*
X126796838Y-104835317D01*
X126935910Y-105051441D01*
X127148110Y-105196431D01*
X127400000Y-105247440D01*
X128600000Y-105247440D01*
X128835317Y-105203162D01*
X128962636Y-105121234D01*
X129331036Y-105247807D01*
X129821413Y-105217482D01*
X130133617Y-105088164D01*
X130183130Y-104862735D01*
X129500000Y-104179605D01*
X129485858Y-104193748D01*
X129306253Y-104014143D01*
X129320395Y-104000000D01*
X129679605Y-104000000D01*
X130362735Y-104683130D01*
X130588164Y-104633617D01*
X130747807Y-104168964D01*
X130717482Y-103678587D01*
X130588164Y-103366383D01*
X130362735Y-103316870D01*
X129679605Y-104000000D01*
X129320395Y-104000000D01*
X129306253Y-103985858D01*
X129485858Y-103806253D01*
X129500000Y-103820395D01*
X130183130Y-103137265D01*
X130133617Y-102911836D01*
X129668964Y-102752193D01*
X129178587Y-102782518D01*
X128956010Y-102874711D01*
X128851890Y-102803569D01*
X128600000Y-102752560D01*
X127400000Y-102752560D01*
X127164683Y-102796838D01*
X126948559Y-102935910D01*
X126803569Y-103148110D01*
X126752560Y-103400000D01*
X121847440Y-103400000D01*
X121847440Y-102800000D01*
X121803162Y-102564683D01*
X121664090Y-102348559D01*
X121451890Y-102203569D01*
X121200000Y-102152560D01*
X118800000Y-102152560D01*
X118564683Y-102196838D01*
X118348559Y-102335910D01*
X118203569Y-102548110D01*
X118152560Y-102800000D01*
X115710000Y-102800000D01*
X115710000Y-92007893D01*
X116270725Y-92007893D01*
X116511519Y-92590657D01*
X116884471Y-92964261D01*
X116513086Y-93334997D01*
X116271276Y-93917341D01*
X116270725Y-94547893D01*
X116511519Y-95130657D01*
X116884471Y-95504261D01*
X116513086Y-95874997D01*
X116271276Y-96457341D01*
X116270725Y-97087893D01*
X116511519Y-97670657D01*
X116956997Y-98116914D01*
X117539341Y-98358724D01*
X118169893Y-98359275D01*
X118752657Y-98118481D01*
X118869927Y-98001415D01*
X118981910Y-98175441D01*
X119194110Y-98320431D01*
X119446000Y-98371440D01*
X121346000Y-98371440D01*
X121581317Y-98327162D01*
X121797441Y-98188090D01*
X121942431Y-97975890D01*
X121993440Y-97724000D01*
X121993440Y-95824000D01*
X121949162Y-95588683D01*
X121810090Y-95372559D01*
X121625372Y-95246347D01*
X121738914Y-95133003D01*
X121980724Y-94550659D01*
X121981275Y-93920107D01*
X121740481Y-93337343D01*
X121301789Y-92897884D01*
X121332745Y-92810350D01*
X120396000Y-91873605D01*
X119459255Y-92810350D01*
X119490407Y-92898439D01*
X119125739Y-93262471D01*
X118827529Y-92963739D01*
X119192116Y-92599789D01*
X119279650Y-92630745D01*
X120216395Y-91694000D01*
X120575605Y-91694000D01*
X121512350Y-92630745D01*
X121774019Y-92538208D01*
X121992188Y-91946602D01*
X121967352Y-91316539D01*
X121774019Y-90849792D01*
X121512350Y-90757255D01*
X120575605Y-91694000D01*
X120216395Y-91694000D01*
X119279650Y-90757255D01*
X119191561Y-90788407D01*
X118981172Y-90577650D01*
X119459255Y-90577650D01*
X120396000Y-91514395D01*
X121332745Y-90577650D01*
X121240208Y-90315981D01*
X120648602Y-90097812D01*
X120018539Y-90122648D01*
X119551792Y-90315981D01*
X119459255Y-90577650D01*
X118981172Y-90577650D01*
X118755003Y-90351086D01*
X118172659Y-90109276D01*
X117542107Y-90108725D01*
X116959343Y-90349519D01*
X116513086Y-90794997D01*
X116271276Y-91377341D01*
X116270725Y-92007893D01*
X115710000Y-92007893D01*
X115710000Y-89339167D01*
X120222838Y-89339167D01*
X120364883Y-89682943D01*
X120627673Y-89946192D01*
X120971201Y-90088838D01*
X121343167Y-90089162D01*
X121464569Y-90039000D01*
X127163463Y-90039000D01*
X127081162Y-90237201D01*
X127080838Y-90609167D01*
X127222883Y-90952943D01*
X127256000Y-90986118D01*
X127256000Y-98806000D01*
X127313852Y-99096839D01*
X127478599Y-99343401D01*
X129256599Y-101121401D01*
X129503161Y-101286148D01*
X129794000Y-101344000D01*
X134559198Y-101344000D01*
X135892000Y-102676802D01*
X135892000Y-105355537D01*
X135859808Y-105387673D01*
X135717162Y-105731201D01*
X135716838Y-106103167D01*
X135858883Y-106446943D01*
X136121673Y-106710192D01*
X136465201Y-106852838D01*
X136837167Y-106853162D01*
X136965829Y-106800000D01*
X144152560Y-106800000D01*
X144152560Y-109200000D01*
X144196838Y-109435317D01*
X144335910Y-109651441D01*
X144548110Y-109796431D01*
X144800000Y-109847440D01*
X147200000Y-109847440D01*
X147435317Y-109803162D01*
X147651441Y-109664090D01*
X147796431Y-109451890D01*
X147847440Y-109200000D01*
X147847440Y-106800000D01*
X147803162Y-106564683D01*
X147664090Y-106348559D01*
X147451890Y-106203569D01*
X147200000Y-106152560D01*
X146805712Y-106152560D01*
X147038086Y-106056545D01*
X147554730Y-105540801D01*
X147834681Y-104866605D01*
X147835318Y-104136597D01*
X147556545Y-103461914D01*
X147040801Y-102945270D01*
X146366605Y-102665319D01*
X145636597Y-102664682D01*
X144961914Y-102943455D01*
X144445270Y-103459199D01*
X144165319Y-104133395D01*
X144164682Y-104863403D01*
X144443455Y-105538086D01*
X144959199Y-106054730D01*
X145194799Y-106152560D01*
X144800000Y-106152560D01*
X144564683Y-106196838D01*
X144348559Y-106335910D01*
X144203569Y-106548110D01*
X144152560Y-106800000D01*
X136965829Y-106800000D01*
X137180943Y-106711117D01*
X137444192Y-106448327D01*
X137586838Y-106104799D01*
X137587162Y-105732833D01*
X137445117Y-105389057D01*
X137412000Y-105355882D01*
X137412000Y-102362000D01*
X137354148Y-102071161D01*
X137239829Y-101900070D01*
X137345167Y-101900162D01*
X137688943Y-101758117D01*
X137952192Y-101495327D01*
X138094838Y-101151799D01*
X138095162Y-100779833D01*
X137953117Y-100436057D01*
X137690327Y-100172808D01*
X137346799Y-100030162D01*
X137299923Y-100030121D01*
X134745000Y-97475198D01*
X134745000Y-92002463D01*
X134777192Y-91970327D01*
X134919838Y-91626799D01*
X134920162Y-91254833D01*
X134778117Y-90911057D01*
X134515327Y-90647808D01*
X134171799Y-90505162D01*
X133799833Y-90504838D01*
X133456057Y-90646883D01*
X133192808Y-90909673D01*
X133050162Y-91253201D01*
X133049838Y-91625167D01*
X133191883Y-91968943D01*
X133225000Y-92002118D01*
X133225000Y-97790000D01*
X133282852Y-98080839D01*
X133447599Y-98327401D01*
X134961629Y-99841431D01*
X134874000Y-99824000D01*
X130108802Y-99824000D01*
X128776000Y-98491198D01*
X128776000Y-91998111D01*
X129009673Y-92232192D01*
X129353201Y-92374838D01*
X129725167Y-92375162D01*
X130068943Y-92233117D01*
X130332192Y-91970327D01*
X130474838Y-91626799D01*
X130475162Y-91254833D01*
X130425000Y-91133431D01*
X130425000Y-90424005D01*
X130425001Y-90424000D01*
X130357633Y-90085325D01*
X130326680Y-90039000D01*
X130165790Y-89798210D01*
X130165787Y-89798208D01*
X128895790Y-88528210D01*
X128879936Y-88517617D01*
X128608675Y-88336367D01*
X128552484Y-88325190D01*
X128270000Y-88268999D01*
X128269995Y-88269000D01*
X121464822Y-88269000D01*
X121344799Y-88219162D01*
X120972833Y-88218838D01*
X120629057Y-88360883D01*
X120365808Y-88623673D01*
X120223162Y-88967201D01*
X120222838Y-89339167D01*
X115710000Y-89339167D01*
X115710000Y-88486228D01*
X115798110Y-88546431D01*
X116050000Y-88597440D01*
X117950000Y-88597440D01*
X118185317Y-88553162D01*
X118401441Y-88414090D01*
X118546431Y-88201890D01*
X118597440Y-87950000D01*
X118597440Y-87284000D01*
X138452560Y-87284000D01*
X138452560Y-88484000D01*
X138496838Y-88719317D01*
X138635910Y-88935441D01*
X138848110Y-89080431D01*
X139100000Y-89131440D01*
X140300000Y-89131440D01*
X140535317Y-89087162D01*
X140662636Y-89005234D01*
X141031036Y-89131807D01*
X141521413Y-89101482D01*
X141833617Y-88972164D01*
X141883130Y-88746735D01*
X141200000Y-88063605D01*
X141185858Y-88077748D01*
X141006253Y-87898143D01*
X141020395Y-87884000D01*
X141379605Y-87884000D01*
X142062735Y-88567130D01*
X142288164Y-88517617D01*
X142447807Y-88052964D01*
X142417482Y-87562587D01*
X142288164Y-87250383D01*
X142062735Y-87200870D01*
X141379605Y-87884000D01*
X141020395Y-87884000D01*
X141006253Y-87869858D01*
X141185858Y-87690253D01*
X141200000Y-87704395D01*
X141883130Y-87021265D01*
X141833617Y-86795836D01*
X141368964Y-86636193D01*
X140878587Y-86666518D01*
X140656010Y-86758711D01*
X140551890Y-86687569D01*
X140300000Y-86636560D01*
X139100000Y-86636560D01*
X138864683Y-86680838D01*
X138648559Y-86819910D01*
X138503569Y-87032110D01*
X138452560Y-87284000D01*
X118597440Y-87284000D01*
X118597440Y-86050000D01*
X118553162Y-85814683D01*
X118485800Y-85710000D01*
X147513772Y-85710000D01*
X147453569Y-85798110D01*
M02*
