M48
INCH,TZ
T1C0.016
T2C0.024
T3C0.028
T4C0.039
T5C0.047
%
G90
G05
T1
X4.77Y-3.51
X4.96Y-3.58
X4.96Y-3.7
X5.04Y-3.56
X5.1Y-3.6
X5.275Y-3.6
X5.38Y-4.17
X5.4Y-3.975
T2
X5.0394Y-4.0945
X5.0984Y-4.0945
X5.5Y-3.46
X5.5591Y-3.46
T3
X4.9575Y-4.4094
X5.1575Y-4.4094
X5.315Y-4.4094
X5.515Y-4.4094
T4
X4.6063Y-3.4252
X4.6063Y-4.4488
X4.64Y-3.61
X4.64Y-3.71
X4.64Y-3.81
X4.74Y-3.61
X4.74Y-3.71
X4.74Y-3.81
X5.8661Y-3.4252
X5.8661Y-4.4488
T5
X4.7244Y-4.0945
X4.7244Y-4.2323
X5.748Y-4.1142
X5.748Y-4.252
T0
M30
